<?xml version="1.0" encoding="UTF-8"?>
<svg xmlns="http://www.w3.org/2000/svg" xmlns:xlink="http://www.w3.org/1999/xlink" width="75px" height="px" viewBox="0 0 75 89" version="1.1">
<g id="surface1">
<path style="fill-rule:nonzero;fill:rgb(69.803922%,69.803922%,69.803922%);fill-opacity:1;stroke-width:3.287;stroke-linecap:round;stroke-linejoin:round;stroke:rgb(0.392157%,0.392157%,0.392157%);stroke-opacity:1;stroke-miterlimit:4;" d="M 222.939483 161.197108 C 222.951886 221.711272 176.997735 270.766398 120.314748 270.766398 C 63.619357 270.766398 17.665206 221.711272 17.677609 161.197108 C 17.665206 100.695371 63.619357 51.627817 120.314748 51.627817 C 177.010139 51.627817 222.96429 100.695371 222.939483 161.197108 Z M 222.939483 161.197108 " transform="matrix(0.314937,0,0,0.314299,0.022513,0)"/>
<path style=" stroke:none;fill-rule:nonzero;fill:rgb(0.392157%,0.392157%,0.392157%);fill-opacity:0.313725;" d="M 68.277344 38.855469 C 68.300781 39.386719 68.316406 39.921875 68.316406 40.457031 C 68.316406 59.460938 53.835938 74.882812 35.992188 74.882812 C 22.046875 74.882812 10.148438 65.453125 5.617188 52.261719 C 6.402344 70.527344 20.570312 85.097656 37.910156 85.097656 C 55.753906 85.097656 70.234375 69.675781 70.234375 50.671875 C 70.234375 46.523438 69.542969 42.542969 68.277344 38.855469 Z M 68.277344 38.855469 "/>
<path style="fill-rule:nonzero;fill:rgb(20.392157%,20.392157%,20.392157%);fill-opacity:1;stroke-width:4;stroke-linecap:round;stroke-linejoin:round;stroke:rgb(0.392157%,0.392157%,0.392157%);stroke-opacity:1;stroke-miterlimit:4;" d="M 112.810763 271.785532 C 112.810763 280.870735 98.150087 281.15659 80.078509 281.15659 C 62.00693 281.15659 47.333851 281.852583 47.333851 271.785532 C 47.333851 254.06255 62.00693 239.682823 80.078509 239.682823 C 98.150087 239.682823 112.810763 254.06255 112.810763 271.785532 Z M 112.810763 271.785532 " transform="matrix(0.314937,0,0,0.314299,0.022513,0)"/>
<path style="fill-rule:nonzero;fill:rgb(0.392157%,0.392157%,0.392157%);fill-opacity:0.313725;stroke-width:4;stroke-linecap:butt;stroke-linejoin:round;stroke:rgb(0.392157%,0.392157%,0.392157%);stroke-opacity:1;stroke-miterlimit:4;" d="M 67.48918 280.560024 C 67.48918 264.191744 76.928076 254.124692 76.928076 254.124692 C 76.928076 254.124692 73.145075 267.969995 73.777643 280.560024 Z M 67.48918 280.560024 " transform="matrix(0.314937,0,0,0.314299,0.022513,0)"/>
<path style="fill-rule:nonzero;fill:rgb(20.392157%,20.392157%,20.392157%);fill-opacity:1;stroke-width:4;stroke-linecap:round;stroke-linejoin:round;stroke:rgb(0.392157%,0.392157%,0.392157%);stroke-opacity:1;stroke-miterlimit:4;" d="M 127.806329 271.785532 C 127.806329 280.870735 142.479408 281.15659 160.550987 281.15659 C 178.610162 281.15659 193.283241 281.852583 193.283241 271.785532 C 193.283241 254.06255 178.610162 239.682823 160.550987 239.682823 C 142.479408 239.682823 127.806329 254.06255 127.806329 271.785532 Z M 127.806329 271.785532 " transform="matrix(0.314937,0,0,0.314299,0.022513,0)"/>
<path style="fill-rule:nonzero;fill:rgb(0.392157%,0.392157%,0.392157%);fill-opacity:0.313725;stroke-width:4;stroke-linecap:butt;stroke-linejoin:round;stroke:rgb(0.392157%,0.392157%,0.392157%);stroke-opacity:1;stroke-miterlimit:4;" d="M 173.127912 280.560024 C 173.127912 264.191744 163.689016 254.124692 163.689016 254.124692 C 163.689016 254.124692 167.459613 267.969995 166.839449 280.560024 Z M 173.127912 280.560024 " transform="matrix(0.314937,0,0,0.314299,0.022513,0)"/>
<path style="fill-rule:nonzero;fill:rgb(41.176471%,41.176471%,41.176471%);fill-opacity:1;stroke-width:4;stroke-linecap:round;stroke-linejoin:round;stroke:rgb(0.392157%,0.392157%,0.392157%);stroke-opacity:1;stroke-miterlimit:4;" d="M 112.934796 49.092411 C 113.66659 49.191839 114.398383 49.316124 115.14258 49.42798 C 135.049844 52.41081 149.239196 61.061017 158.529252 73.390048 L 170.58524 56.450059 C 170.498417 56.450059 170.423997 56.43763 170.337174 56.43763 C 162.101397 37.40966 145.791084 23.688642 119.595357 19.761249 C 118.851161 19.649393 118.119367 19.525108 117.387574 19.425681 C 106.832383 18.108264 97.36868 18.816686 88.984063 21.227807 L 84.531286 50.894538 C 92.928306 48.483417 102.379605 47.774995 112.934796 49.092411 Z M 112.934796 49.092411 " transform="matrix(0.314937,0,0,0.314299,0.022513,0)"/>
<path style=" stroke:none;fill-rule:nonzero;fill:rgb(0.392157%,0.392157%,0.392157%);fill-opacity:0.313725;" d="M 64.496094 39.578125 C 64.496094 53.773438 47.136719 65.296875 38.722656 65.296875 C 30.621094 65.296875 12.949219 53.773438 12.949219 39.578125 C 12.949219 25.378906 20.703125 13.855469 38.722656 13.855469 C 56.746094 13.855469 64.496094 25.378906 64.496094 39.578125 Z M 64.496094 39.578125 "/>
<path style=" stroke:none;fill-rule:nonzero;fill:rgb(0.392157%,0.392157%,0.392157%);fill-opacity:0.313725;" d="M 62.582031 27 L 61.992188 27.835938 C 62.070312 28.804688 62.097656 29.785156 62.097656 30.78125 C 62.097656 44.980469 44.738281 56.507812 36.324219 56.507812 C 29.800781 56.507812 17.082031 49.039062 12.367188 38.71875 C 14.765625 51.367188 30.375 61.152344 37.839844 61.152344 C 46.253906 61.152344 63.613281 49.628906 63.613281 35.429688 C 63.613281 32.476562 63.277344 29.640625 62.582031 27 Z M 62.582031 27 "/>
<path style="fill-rule:nonzero;fill:rgb(69.803922%,69.803922%,69.803922%);fill-opacity:1;stroke-width:4;stroke-linecap:round;stroke-linejoin:round;stroke:rgb(0.392157%,0.392157%,0.392157%);stroke-opacity:1;stroke-miterlimit:4;" d="M 235.032681 4.200819 C 230.009352 -2.311693 170.151125 10.56419 161.642475 43.549319 C 161.555652 43.69846 161.419216 44.170742 161.270377 44.866735 C 161.220764 45.078019 161.171151 45.31416 161.121538 45.562729 C 159.199029 44.394454 157.214504 43.313178 155.19277 42.294045 C 145.20813 38.577935 133.52424 36.539668 120.017069 36.539668 C 119.124033 36.539668 118.230997 36.514811 117.362767 36.539668 C 104.488163 36.800666 93.325211 38.963218 83.762283 42.691755 C 81.455273 43.872459 79.210279 45.165018 77.039705 46.557006 C 76.990092 46.271151 76.940479 46.010154 76.903269 45.761584 C 76.68001 44.580881 76.469154 43.760603 76.369928 43.549319 C 69.72177 17.772696 31.730525 2.025839 13.038782 2.025839 C 7.792195 2.025839 4.071211 2.771546 2.979723 4.200819 C -1.026537 9.395915 7.221644 51.143107 29.547548 65.584976 C 33.752259 68.306808 38.440699 70.059221 43.650076 70.419646 C 45.771037 70.568788 47.755562 70.581216 49.628457 70.543931 C 43.798916 81.59283 40.48724 94.182859 40.48724 107.531024 C 40.48724 121.053186 37.894955 128.149836 49.82691 148.370938 C 61.771268 168.604469 101.623005 194.356235 120.017069 194.356235 C 138.584778 194.356235 176.501604 170.605451 188.830464 150.682632 C 201.171727 130.747384 199.261622 121.848608 199.261622 107.531024 C 199.261622 94.195287 195.949947 81.630116 190.120405 70.581216 C 191.459959 70.568788 192.886337 70.531502 194.349924 70.419646 C 199.956206 70.034364 204.954728 68.045811 209.382698 64.963553 C 231.001615 49.974832 238.976924 9.321344 235.032681 4.200819 Z M 235.032681 4.200819 " transform="matrix(0.314937,0,0,0.314299,0.022513,0)"/>
<path style=" stroke:none;fill-rule:nonzero;fill:rgb(0%,0%,0%);fill-opacity:1;" d="M 37.699219 8.96875 C 26.402344 8.96875 16.808594 16.628906 13.320312 27.292969 C 12.914062 29.082031 12.695312 30.941406 12.695312 32.855469 C 12.695312 33.257812 12.707031 33.664062 12.726562 34.070312 C 15.589844 22.347656 20.09375 12.613281 37.46875 12.613281 C 54.84375 12.613281 59.800781 22.339844 62.667969 34.058594 C 62.6875 33.65625 62.699219 33.253906 62.699219 32.855469 C 62.699219 30.917969 62.472656 29.03125 62.050781 27.21875 C 58.546875 16.597656 48.96875 8.96875 37.699219 8.96875 Z M 37.699219 8.96875 "/>
<path style="fill-rule:nonzero;fill:rgb(82.352941%,41.176471%,11.764706%);fill-opacity:1;stroke-width:4.999;stroke-linecap:round;stroke-linejoin:round;stroke:rgb(0.392157%,0.392157%,0.392157%);stroke-opacity:1;stroke-miterlimit:4;" d="M 120.996928 152.360474 C 96.177966 152.360474 76.047443 168.877895 76.047443 189.223282 C 76.047443 193.001533 76.75443 196.6555 78.044371 200.085754 C 93.920569 209.767524 109.77196 215.36033 120.996928 215.36033 C 132.494768 215.36033 148.184917 209.941522 163.850259 200.520751 C 165.239426 196.966211 165.996026 193.163103 165.996026 189.223282 C 165.996026 168.877895 145.828294 152.360474 120.996928 152.360474 Z M 120.996928 152.360474 " transform="matrix(0.314937,0,0,0.314299,0.022513,0)"/>
<path style=" stroke:none;fill-rule:nonzero;fill:rgb(0.392157%,0.392157%,0.392157%);fill-opacity:1;" d="M 33.28125 56.257812 C 34.003906 57.507812 35.328125 58.09375 36.238281 57.570312 C 37.152344 57.042969 37.304688 55.605469 36.582031 54.355469 C 35.859375 53.109375 34.535156 52.523438 33.625 53.046875 C 32.710938 53.574219 32.558594 55.011719 33.28125 56.257812 Z M 33.28125 56.257812 "/>
<path style=" stroke:none;fill-rule:nonzero;fill:rgb(0.392157%,0.392157%,0.392157%);fill-opacity:1;" d="M 43.589844 56.257812 C 42.867188 57.507812 41.542969 58.09375 40.632812 57.570312 C 39.71875 57.042969 39.566406 55.605469 40.289062 54.355469 C 41.011719 53.109375 42.335938 52.523438 43.246094 53.046875 C 44.160156 53.574219 44.3125 55.011719 43.589844 56.257812 Z M 43.589844 56.257812 "/>
<path style="fill-rule:nonzero;fill:rgb(100%,100%,100%);fill-opacity:1;stroke-width:4;stroke-linecap:round;stroke-linejoin:round;stroke:rgb(0.392157%,0.392157%,0.392157%);stroke-opacity:1;stroke-miterlimit:4;" d="M 168.030164 100.745085 C 168.030164 113.260543 157.884282 123.414594 145.369372 123.414594 C 132.84206 123.414594 122.696177 113.260543 122.708581 100.745085 C 122.696177 88.217199 132.854463 78.075577 145.369372 78.075577 C 157.884282 78.075577 168.030164 88.217199 168.030164 100.745085 Z M 168.030164 100.745085 " transform="matrix(0.314937,0,0,0.314299,0.022513,0)"/>
<path style=" stroke:none;fill-rule:nonzero;fill:rgb(0.392157%,0.392157%,0.392157%);fill-opacity:1;" d="M 46.59375 32.917969 C 46.597656 34.230469 45.53125 35.292969 44.214844 35.292969 C 42.902344 35.292969 41.835938 34.230469 41.835938 32.917969 C 41.835938 31.609375 42.902344 30.542969 44.214844 30.542969 C 45.53125 30.542969 46.597656 31.609375 46.59375 32.917969 Z M 46.59375 32.917969 "/>
<path style="fill-rule:nonzero;fill:rgb(100%,100%,100%);fill-opacity:1;stroke-width:4;stroke-linecap:round;stroke-linejoin:round;stroke:rgb(0.392157%,0.392157%,0.392157%);stroke-opacity:1;stroke-miterlimit:4;" d="M 115.303823 100.745085 C 115.303823 113.260543 105.15794 123.414594 92.643031 123.414594 C 80.115718 123.414594 69.969836 113.260543 69.969836 100.745085 C 69.969836 88.217199 80.115718 78.075577 92.643031 78.075577 C 105.15794 78.075577 115.303823 88.217199 115.303823 100.745085 Z M 115.303823 100.745085 " transform="matrix(0.314937,0,0,0.314299,0.022513,0)"/>
<path style=" stroke:none;fill-rule:nonzero;fill:rgb(0.392157%,0.392157%,0.392157%);fill-opacity:1;" d="M 33.359375 32.917969 C 33.359375 34.230469 32.292969 35.292969 30.980469 35.292969 C 29.664062 35.292969 28.597656 34.230469 28.601562 32.917969 C 28.597656 31.609375 29.664062 30.542969 30.980469 30.542969 C 32.292969 30.542969 33.359375 31.609375 33.359375 32.917969 Z M 33.359375 32.917969 "/>
<path style="fill-rule:nonzero;fill:rgb(0.392157%,0.392157%,0.392157%);fill-opacity:1;stroke-width:4;stroke-linecap:butt;stroke-linejoin:round;stroke:rgb(0.392157%,0.392157%,0.392157%);stroke-opacity:1;stroke-miterlimit:4;" d="M 62.428642 54.958644 C 59.923179 18.729687 22.117983 19.475395 20.331911 23.775641 C 18.533435 28.088316 27.637443 67.511387 62.428642 54.958644 Z M 62.428642 54.958644 " transform="matrix(0.314937,0,0,0.314299,0.022513,0)"/>
<path style="fill-rule:nonzero;fill:rgb(0.392157%,0.392157%,0.392157%);fill-opacity:1;stroke-width:4;stroke-linecap:butt;stroke-linejoin:round;stroke:rgb(0.392157%,0.392157%,0.392157%);stroke-opacity:1;stroke-miterlimit:4;" d="M 177.39464 55.082928 C 179.900103 18.841543 214.654092 18.990685 216.452568 23.290931 C 218.251043 27.603606 212.18584 67.635672 177.39464 55.082928 Z M 177.39464 55.082928 " transform="matrix(0.314937,0,0,0.314299,0.022513,0)"/>
</g>
</svg>
