<?xml version="1.0" encoding="UTF-8"?>
<svg xmlns="http://www.w3.org/2000/svg" xmlns:xlink="http://www.w3.org/1999/xlink" width="75px" height="px" viewBox="0 0 75 75" version="1.1">
<defs>
<radialGradient id="radial0" gradientUnits="userSpaceOnUse" cx="414.68" cy="-8.8805" fx="414.68" fy="-8.8805" r="123.55" gradientTransform="matrix(0,0.8942,-1.9479,0,598.73,580.58)">
<stop offset="0" style="stop-color:rgb(100%,69.411765%,25.882353%);stop-opacity:1;"/>
<stop offset="0.88679" style="stop-color:rgb(100%,69.411765%,25.490196%);stop-opacity:1;"/>
<stop offset="1" style="stop-color:rgb(78.431373%,46.27451%,0%);stop-opacity:1;"/>
</radialGradient>
<filter id="alpha" filterUnits="objectBoundingBox" x="0%" y="0%" width="100%" height="100%">
  <feColorMatrix type="matrix" in="SourceGraphic" values="0 0 0 0 1 0 0 0 0 1 0 0 0 0 1 0 0 0 1 0"/>
</filter>
<mask id="mask0">
  <g filter="url(#alpha)">
<rect x="0" y="0" width="75" height="75" style="fill:rgb(0%,0%,0%);fill-opacity:0.321569;stroke:none;"/>
  </g>
</mask>
<clipPath id="clip1">
  <rect x="0" y="0" width="75" height="75"/>
</clipPath>
<g id="surface5" clip-path="url(#clip1)">
<path style="fill-rule:nonzero;fill:rgb(0.392157%,0.392157%,0.392157%);fill-opacity:1;stroke-width:4;stroke-linecap:round;stroke-linejoin:round;stroke:rgb(0.392157%,0.392157%,0.392157%);stroke-opacity:1;stroke-miterlimit:4;" d="M 246.263493 178.704525 L 160.261693 180.930308 C 160.261693 180.930308 162.363822 200.900532 157.541291 222.756489 C 150.122013 225.260496 142.950044 228.320948 136.087211 231.876019 C 160.107124 252.062638 188.1149 264.459016 205.890254 264.459016 C 224.469363 264.459016 252.755362 251.846243 276.775275 231.3814 C 268.830465 227.362625 260.483777 223.962122 251.827952 221.334461 C 245.552479 199.138454 246.263493 178.704525 246.263493 178.704525 Z M 246.263493 178.704525 " transform="matrix(0.12636,0,0,0.12636,12.796208,1.72749)"/>
</g>
<mask id="mask1">
  <g filter="url(#alpha)">
<rect x="0" y="0" width="75" height="75" style="fill:rgb(0%,0%,0%);fill-opacity:0.321569;stroke:none;"/>
  </g>
</mask>
<clipPath id="clip2">
  <rect x="0" y="0" width="75" height="75"/>
</clipPath>
<g id="surface8" clip-path="url(#clip2)">
<path style="fill-rule:nonzero;fill:rgb(0.392157%,0.392157%,0.392157%);fill-opacity:1;stroke-width:3.796;stroke-linecap:round;stroke-linejoin:round;stroke:rgb(0.392157%,0.392157%,0.392157%);stroke-opacity:1;stroke-miterlimit:4;" d="M 245.490652 181.641322 L 162.611131 183.774365 C 162.611131 183.774365 162.672958 184.639947 162.765699 186.247458 C 162.827527 187.020299 162.85844 187.607659 162.920267 188.751464 C 162.920267 188.936946 162.951181 189.091514 162.951181 189.276996 C 162.982095 189.833442 162.982095 190.266233 162.982095 190.884507 C 162.982095 191.069989 162.982095 191.25547 162.982095 191.440952 C 163.013008 192.399276 163.043922 193.388513 163.043922 194.501405 C 163.043922 195.336074 163.013008 196.201656 162.982095 197.129066 C 162.982095 197.407289 163.013008 197.623684 162.982095 197.932821 C 162.982095 198.396526 162.951181 198.891144 162.951181 199.354849 C 162.920267 200.529568 162.85844 201.64246 162.765699 202.879006 C 162.765699 203.033575 162.796613 203.188143 162.765699 203.342711 C 163.569454 208.659861 162.982095 211.658486 160.230779 223.622072 C 158.808751 230.052113 156.52114 236.636722 153.553429 242.912195 C 172.874466 255.772278 193.215654 269.034237 206.910405 269.034237 C 220.97612 269.034237 240.389898 257.287047 259.432712 244.705188 C 255.630332 237.904182 251.240592 228.259121 249.200291 221.179893 C 245.861616 211.473004 247.376385 207.63971 246.510802 200.127691 C 246.23258 197.932821 246.047098 195.923433 245.892529 194.006786 C 245.768875 192.151967 245.676134 190.451715 245.614306 188.936946 C 245.552479 187.391263 245.490652 186.061976 245.490652 184.979998 C 245.459738 182.939696 245.490652 181.641322 245.490652 181.641322 Z M 245.490652 181.641322 " transform="matrix(0.12636,0,0,0.12636,12.796208,1.72749)"/>
</g>
<mask id="mask2">
  <g filter="url(#alpha)">
<rect x="0" y="0" width="75" height="75" style="fill:rgb(0%,0%,0%);fill-opacity:0.321569;stroke:none;"/>
  </g>
</mask>
<clipPath id="clip3">
  <rect x="0" y="0" width="75" height="75"/>
</clipPath>
<g id="surface11" clip-path="url(#clip3)">
<path style="fill-rule:nonzero;fill:rgb(0.392157%,0.392157%,0.392157%);fill-opacity:1;stroke-width:6.091;stroke-linecap:butt;stroke-linejoin:miter;stroke:rgb(0.392157%,0.392157%,0.392157%);stroke-opacity:1;stroke-miterlimit:4;" d="M 211.361972 133.075964 C 195.565092 133.075964 178.377097 149.738426 179.057198 160.24907 C 188.547691 197.438202 148.421761 214.533456 213.433187 214.533456 C 278.444613 214.533456 231.084886 180.961222 242.955732 159.352574 C 242.275631 147.110765 221.65622 132.210381 211.361972 133.075964 Z M 211.361972 133.075964 " transform="matrix(0.12636,0,0,0.12636,12.796208,1.72749)"/>
</g>
<linearGradient id="linear0" gradientUnits="userSpaceOnUse" x1="0.43534" y1="0.50018" x2="0.63257" y2="0.50018" gradientTransform="matrix(0.6415,0,0,-0.7781,-31.166,4.888)">
<stop offset="0" style="stop-color:rgb(98.431373%,69.019608%,27.058824%);stop-opacity:1;"/>
<stop offset="1" style="stop-color:rgb(78.039216%,47.058824%,16.078431%);stop-opacity:1;"/>
</linearGradient>
</defs>
<g id="surface1">
<rect x="0" y="0" width="75" height="75" style="fill:rgb(100%,100%,100%);fill-opacity:1;stroke:none;"/>
<path style="fill-rule:nonzero;fill:rgb(100%,100%,100%);fill-opacity:1;stroke-width:4;stroke-linecap:butt;stroke-linejoin:miter;stroke:rgb(0.392157%,0.392157%,0.392157%);stroke-opacity:1;stroke-miterlimit:4;" d="M 317.674046 264.428002 C 249.509427 289.066189 337.737011 398.469629 264.100675 493.93101 C 250.467751 511.582709 346.052786 496.898721 379.872329 399.118816 C 412.733549 304.0284 381.448926 246.003461 317.674046 264.428002 Z M 317.674046 264.428002 " transform="matrix(0.12636,0,0,0.12636,12.796208,1.727503)"/>
<path style="fill-rule:nonzero;fill:rgb(100%,100%,66.666667%);fill-opacity:1;stroke-width:4;stroke-linecap:butt;stroke-linejoin:miter;stroke:rgb(0.392157%,0.392157%,0.392157%);stroke-opacity:1;stroke-miterlimit:4;" d="M 317.674046 264.428002 C 249.509427 289.066189 337.737011 398.469629 264.100675 493.93101 C 250.467751 511.582709 346.052786 496.898721 379.872329 399.118816 C 412.733549 304.0284 381.448926 246.003461 317.674046 264.428002 Z M 317.674046 264.428002 " transform="matrix(0.12636,0,0,0.12636,12.796208,1.727503)"/>
<path style=" stroke:none;fill-rule:nonzero;fill:rgb(0.392157%,0.392157%,0.392157%);fill-opacity:0.309804;" d="M 55.757812 34.710938 C 55.683594 34.710938 55.609375 34.714844 55.535156 34.71875 C 58.433594 37.066406 59.664062 42.507812 58.179688 50.070312 C 56.207031 60.125 48.589844 64.464844 46.058594 64.695312 C 46.878906 65.867188 56.972656 63.234375 60.796875 52.164062 C 64.429688 41.648438 61.859375 34.71875 55.757812 34.710938 Z M 55.757812 34.710938 "/>
<path style="fill-rule:nonzero;fill:rgb(100%,100%,66.666667%);fill-opacity:1;stroke-width:4;stroke-linecap:butt;stroke-linejoin:miter;stroke:rgb(0.392157%,0.392157%,0.392157%);stroke-opacity:1;stroke-miterlimit:4;" d="M 96.054022 264.428002 C 164.218641 289.066189 75.991057 398.469629 149.627394 493.93101 C 163.229404 511.582709 67.644369 496.898721 33.85574 399.118816 C 0.99452 304.0284 32.248229 246.003461 96.054022 264.428002 Z M 96.054022 264.428002 " transform="matrix(0.12636,0,0,0.12636,12.796208,1.727503)"/>
<path style=" stroke:none;fill-rule:nonzero;fill:rgb(0.392157%,0.392157%,0.392157%);fill-opacity:0.309804;" d="M 15.683594 40.503906 C 15.066406 43.472656 15.453125 47.460938 17.078125 52.164062 C 21.347656 64.519531 33.425781 66.375 31.703125 64.144531 C 30.96875 63.191406 30.359375 62.222656 29.859375 61.253906 C 26.464844 60.4375 20.183594 56.867188 17.34375 48.65625 C 16.292969 45.609375 15.761719 42.863281 15.683594 40.503906 Z M 28.441406 41.644531 C 28.285156 43.179688 28.109375 44.8125 28.035156 46.523438 C 28.210938 44.761719 28.40625 43.117188 28.441406 41.644531 Z M 28.441406 41.644531 "/>
<path style="fill-rule:evenodd;fill:url(#radial0);stroke-width:5;stroke-linecap:butt;stroke-linejoin:miter;stroke:rgb(0%,0%,0%);stroke-opacity:1;stroke-miterlimit:4;" d="M 156.892004 464.841356 C 88.758299 471.88967 10.639481 527.286948 41.707709 539.374189 C 72.745023 551.46143 162.889254 556.500356 179.891766 542.403727 C 188.640332 535.139017 204.313557 517.023613 206.137463 499.990187 C 207.992283 517.023613 223.603681 535.139017 232.352246 542.403727 C 249.385673 556.500356 339.560817 551.46143 370.598131 539.374189 C 401.666359 527.286948 323.547542 471.88967 255.413836 464.841356 C 220.357747 468.241859 207.744974 480.08179 206.168377 493.6838 C 204.560867 480.08179 191.948094 468.241859 156.892004 464.841356 Z M 156.892004 464.841356 " transform="matrix(0.12636,0,0,0.12636,12.79622,1.72749)"/>
<path style=" stroke:none;fill-rule:evenodd;fill:rgb(0%,0%,0%);fill-opacity:0.309804;" d="M 32.621094 60.46875 C 28.394531 60.90625 23.871094 62.8125 20.816406 64.824219 C 25.441406 66.972656 31.097656 68.296875 37.226562 68.449219 C 38.011719 67.414062 38.714844 66.140625 38.847656 64.910156 C 38.980469 66.128906 39.667969 67.390625 40.441406 68.421875 C 46.46875 68.167969 52.003906 66.777344 56.511719 64.589844 C 53.46875 62.664062 49.132812 60.886719 45.074219 60.46875 C 40.640625 60.898438 39.046875 62.394531 38.847656 64.109375 C 38.648438 62.394531 37.054688 60.898438 32.621094 60.46875 Z M 32.621094 60.46875 "/>
<path style="fill-rule:nonzero;fill:rgb(100%,100%,66.666667%);fill-opacity:1;stroke-width:4;stroke-linecap:round;stroke-linejoin:round;stroke:rgb(0.392157%,0.392157%,0.392157%);stroke-opacity:1;stroke-miterlimit:4;" d="M 362.035148 364.990236 C 362.066061 451.146605 292.572155 521.011475 206.848577 521.011475 C 121.155914 521.011475 51.662007 451.146605 51.692921 364.990236 C 51.662007 278.833868 121.155914 208.999911 206.848577 208.999911 C 292.572155 208.999911 362.035148 278.864781 362.035148 364.990236 Z M 362.035148 364.990236 " transform="matrix(0.12636,0,0,0.12636,12.796208,1.72749)"/>
<path style=" stroke:none;fill-rule:nonzero;fill:rgb(0.392157%,0.392157%,0.392157%);fill-opacity:0.309804;" d="M 57.355469 41.089844 C 57.371094 41.390625 57.378906 41.699219 57.378906 42.003906 C 57.378906 52.882812 48.597656 61.710938 37.773438 61.710938 C 29.3125 61.710938 22.09375 56.3125 19.347656 48.761719 C 19.824219 59.21875 28.417969 67.558594 38.9375 67.558594 C 49.761719 67.558594 58.542969 58.730469 58.542969 47.851562 C 58.542969 45.476562 58.125 43.199219 57.355469 41.089844 Z M 57.355469 41.089844 "/>
<use xlink:href="#surface5" mask="url(#mask0)"/>
<path style="fill-rule:nonzero;fill:rgb(100%,100%,66.666667%);fill-opacity:1;stroke-width:4;stroke-linecap:round;stroke-linejoin:round;stroke:rgb(0.392157%,0.392157%,0.392157%);stroke-opacity:1;stroke-miterlimit:4;" d="M 134.788837 258.708975 C 169.906755 233.328861 160.230779 175.211181 160.230779 175.211181 L 243.512178 170.295909 C 243.512178 170.295909 241.379135 231.566782 277.208066 257.379688 " transform="matrix(0.12636,0,0,0.12636,12.796208,1.727503)"/>
<use xlink:href="#surface8" mask="url(#mask1)"/>
<path style="fill-rule:nonzero;fill:rgb(100%,100%,66.666667%);fill-opacity:1;stroke-width:4;stroke-linecap:round;stroke-linejoin:round;stroke:rgb(0.392157%,0.392157%,0.392157%);stroke-opacity:1;stroke-miterlimit:4;" d="M 275.198678 26.702062 C 256.774137 13.656497 233.372497 6.020823 205.85934 6.020823 C 180.85019 6.020823 159.519765 11.98716 142.208116 22.374149 C 122.423374 36.130728 106.502839 56.100952 96.765036 79.842642 C 92.282556 93.073688 89.933118 107.44854 89.933118 122.534406 C 89.933118 186.865731 169.44305 239.078902 205.890254 239.078902 C 243.728573 239.078902 321.816477 186.865731 321.816477 122.534406 C 321.816477 106.984835 319.219729 92.177192 314.304458 78.637009 C 305.524978 57.801203 291.984795 39.933108 275.229592 26.702062 Z M 275.198678 26.702062 " transform="matrix(0.12636,0,0,0.12636,12.796208,1.72749)"/>
<use xlink:href="#surface11" mask="url(#mask2)"/>
<path style="fill-rule:nonzero;fill:url(#linear0);stroke-width:4;stroke-linecap:butt;stroke-linejoin:miter;stroke:rgb(0.392157%,0.392157%,0.392157%);stroke-opacity:1;stroke-miterlimit:4;" d="M 209.692634 123.461915 C 186.105512 123.461915 160.478088 148.069188 161.529153 163.618759 C 175.656695 218.614159 115.776937 243.901532 212.753086 243.901532 C 309.729236 243.901532 239.091524 194.285109 256.805051 162.320385 C 255.7849 144.174067 225.056723 122.163542 209.692634 123.461915 Z M 209.692634 123.461915 " transform="matrix(0.12636,0,0,0.12636,12.796208,1.727477)"/>
<path style="fill-rule:nonzero;fill:rgb(100%,100%,100%);fill-opacity:1;stroke-width:5;stroke-linecap:round;stroke-linejoin:miter;stroke:rgb(0.392157%,0.392157%,0.392157%);stroke-opacity:1;stroke-miterlimit:4;" d="M 175.718522 47.568782 C 153.39886 47.568782 135.283456 68.620984 135.283456 94.557544 C 135.283456 120.494104 153.39886 141.546306 175.718522 141.546306 C 188.825914 141.546306 200.44945 134.281596 207.837815 122.998111 C 215.226179 134.281596 226.880629 141.546306 240.018934 141.546306 C 262.307682 141.546306 280.423087 120.494104 280.423087 94.557544 C 280.423087 68.620984 262.307682 47.568782 240.018934 47.568782 C 226.880629 47.568782 215.226179 54.833492 207.837815 66.086064 C 200.44945 54.833492 188.825914 47.568782 175.718522 47.568782 Z M 175.718522 47.568782 " transform="matrix(0.12636,0,0,0.12636,12.796208,1.72749)"/>
<path style="fill-rule:nonzero;fill:rgb(0.392157%,0.392157%,0.392157%);fill-opacity:1;stroke-width:3.169;stroke-linecap:round;stroke-linejoin:miter;stroke:rgb(0.392157%,0.392157%,0.392157%);stroke-opacity:1;stroke-miterlimit:4;" d="M 205.302895 97.741651 C 205.302895 104.233519 200.047572 109.488841 193.586618 109.488841 C 187.125663 109.488841 181.870341 104.233519 181.870341 97.741651 C 181.870341 91.249782 187.125663 85.963547 193.586618 85.963547 C 200.047572 85.963547 205.302895 91.249782 205.302895 97.741651 Z M 205.302895 97.741651 " transform="matrix(0.12636,0,0,0.12636,12.796208,1.72749)"/>
<path style=" stroke:none;fill-rule:nonzero;fill:rgb(100%,100%,100%);fill-opacity:1;" d="M 37.109375 13.554688 C 37.109375 13.769531 36.9375 13.941406 36.722656 13.941406 C 36.511719 13.941406 36.339844 13.769531 36.339844 13.554688 C 36.339844 13.34375 36.511719 13.171875 36.722656 13.171875 C 36.9375 13.171875 37.109375 13.34375 37.109375 13.554688 Z M 37.109375 13.554688 "/>
<path style="fill-rule:nonzero;fill:rgb(0.392157%,0.392157%,0.392157%);fill-opacity:1;stroke-width:3.169;stroke-linecap:round;stroke-linejoin:miter;stroke:rgb(0.392157%,0.392157%,0.392157%);stroke-opacity:1;stroke-miterlimit:4;" d="M 234.91818 97.741651 C 234.91818 104.233519 229.693772 109.488841 223.232817 109.488841 C 216.771862 109.488841 211.51654 104.233519 211.51654 97.741651 C 211.51654 91.249782 216.771862 85.963547 223.232817 85.963547 C 229.693772 85.963547 234.91818 91.249782 234.91818 97.741651 Z M 234.91818 97.741651 " transform="matrix(0.12636,0,0,0.12636,12.796208,1.72749)"/>
<path style=" stroke:none;fill-rule:nonzero;fill:rgb(100%,100%,100%);fill-opacity:1;" d="M 40.851562 13.554688 C 40.851562 13.769531 40.679688 13.941406 40.46875 13.941406 C 40.257812 13.941406 40.085938 13.769531 40.085938 13.554688 C 40.085938 13.34375 40.257812 13.171875 40.46875 13.171875 C 40.679688 13.171875 40.851562 13.34375 40.851562 13.554688 Z M 40.851562 13.554688 "/>
</g>
</svg>
