<?xml version="1.0" encoding="UTF-8"?>
<svg width="280.48" height="254.87" viewBox="0 0 280.48321 254.8668" xmlns="http://www.w3.org/2000/svg">
 <path d="m250.79 129.57c0.018 60.508-49.028 109.57-109.54 109.57s-109.56-49.061-109.54-109.57c-0.019-60.508 49.028-109.57 109.54-109.57s109.56 49.061 109.54 109.57z" fill="#939dac" stroke="#010101" stroke-linecap="round" stroke-linejoin="round" stroke-width="4"/>
 <path d="m144.74625,18.0038c-11.78252,0-23.01243,2.36087-33.25,6.625 .05-.19037.10546-.37156.15625-.5625-46.12989,12.9142-79.95328,55.2471-79.9375,105.5-.0048,15.127 3.05281,29.54784 8.59375,42.65625 8.11676-3.4247 22.46527-13.99838 34.37328-23.49828 15.40572,23.87746 60.45569,46.75178 66.80378,46.75178s50.28982-25.63604 65.9965-47.50529c6.31163,4.83433 20.00153,16.15203 25.42019,19.40804-24.25297,30.03528-61.36217,49.25-102.96875,49.25-30.327,0-58.2505-10.211-80.5625-27.375 19.534,30.03 53.377,49.875 91.875,49.875 45.38039,0 84.31426-27.58643 100.9375-66.90625 .0838-.19828.16731-.39488.25-.59375 .0127-.0304.0186-.0633.0312-.0937 .24556-.5921.48333-1.18396.71875-1.78125l.21875-.5625c.24941-.64327.51246-1.28841.75-1.9375l.15625-.4375c.25048-.6936.48196-1.39372.71875-2.09375 .0347-.1026.0594-.20976.0937-.3125 .40733-1.21727.79095-2.45153 1.15625-3.6875 .35959-1.21522.71309-2.42381 1.03125-3.65625l.0312-.125c.2034-.79209.40773-1.57608.59375-2.375l.0625-.25c.17231-.74811.31184-1.49612.46875-2.25 .028-.13451.0662-.27156.0937-.40625 .14612-.71584.27416-1.43541.40625-2.15625l.0937-.53125c.11966-.67173.23639-1.35535.34375-2.03125 .13551-.8531.25929-1.70298.375-2.5625 .0379-.28132.0892-.56176.125-.84375 .029-.22912.0661-.45794.0937-.6875 .0824-.68452.14901-1.37415.21875-2.0625 .0534-.52815.11036-1.06343.15625-1.59375 .27421-3.16886.40721-6.38541.40625-9.625 .01251-41.04593-22.53413-76.82516-55.9372-95.5938-14.14027-10.05795-31.41914-15.96875-50.09375-15.96875z" fill="#010101" fill-opacity=".3137"/>
 <path d="m56.252 229.37c-6e-3 20.842 16.887 23.497 37.729 23.497s37.735-2.655 37.729-23.497c6e-3 -20.841-17.598-32.346-37.729-37.739-31.318-8.392-37.735 16.898-37.729 37.739z" fill="#939dac" stroke="#010101" stroke-linecap="round" stroke-linejoin="round" stroke-width="4"/>
 <path d="m123.35 241.12c1.51 5.63-2.987 7.604-8.773 9.154s-10.667 2.089-12.174-3.542 1.956-11.452 7.741-13.003 11.698 1.759 13.206 7.391z" fill="#fff" stroke="#010101" stroke-linecap="round" stroke-linejoin="round" stroke-width="4"/>
 <path d="m85.267 247.22c-1.507 5.632-6.389 5.092-12.174 3.543-5.786-1.551-10.284-3.525-8.773-9.155s7.42-8.94 13.206-7.39 9.251 7.371 7.741 13.002z" fill="#fff" stroke="#010101" stroke-linecap="round" stroke-linejoin="round" stroke-width="4"/>
 <path d="m103.9 246.3c2e-3 5.829-4.853 6.571-10.843 6.571s-10.844-0.742-10.842-6.571 4.853-10.557 10.842-10.557 10.845 4.726 10.843 10.557z" fill="#fff" stroke="#010101" stroke-linecap="round" stroke-linejoin="round" stroke-width="4"/>
 <path d="m105.92 195.76c5.162 6.766 8.33 15.213 8.328 25.644 6e-3 24.649-16.893 27.798-37.734 27.798-3.225 0-6.345-0.097-9.333-0.315 6.836 3.318 16.312 3.991 26.793 3.991 20.841 0 37.74-2.677 37.733-23.519 5e-3 -16.562-11.119-27.209-25.787-33.599z" fill="#010101" fill-opacity=".3137"/>
 <path d="m226.25 229.37c6e-3 20.842-16.887 23.497-37.729 23.497s-37.735-2.655-37.729-23.497c-7e-3 -20.841 17.598-32.346 37.729-37.739 31.319-8.392 37.735 16.898 37.729 37.739z" fill="#939dac" stroke="#010101" stroke-linecap="round" stroke-linejoin="round" stroke-width="4"/>
 <path d="m218.81 241.12c1.51 5.63-2.987 7.604-8.773 9.154s-10.666 2.089-12.174-3.542 1.956-11.452 7.741-13.003 11.698 1.759 13.206 7.391z" fill="#fff" stroke="#010101" stroke-linecap="round" stroke-linejoin="round" stroke-width="4"/>
 <path d="m180.73 247.22c-1.508 5.632-6.389 5.092-12.175 3.543s-10.283-3.525-8.772-9.155 7.421-8.94 13.206-7.39 9.25 7.371 7.741 13.002z" fill="#fff" stroke="#010101" stroke-linecap="round" stroke-linejoin="round" stroke-width="4"/>
 <path d="m199.37 246.3c2e-3 5.829-4.853 6.571-10.843 6.571s-10.845-0.742-10.843-6.571 4.854-10.557 10.843-10.557 10.845 4.726 10.843 10.557z" fill="#fff" stroke="#010101" stroke-linecap="round" stroke-linejoin="round" stroke-width="4"/>
 <path d="m205.54 190.54c9.705 7.491 12.266 22.672 12.263 36.068 6e-3 21.566-17.468 24.323-39.026 24.323-4.679 0-9.14-0.151-13.296-0.574 6.372 2.04 14.355 2.498 23.03 2.498 20.842 0 37.74-2.648 37.734-23.49 4e-3 -16.328-3.938-35.372-20.705-38.825z" fill="#010101" fill-opacity=".3137"/>
 <path d="m13.504 11.656c21.953-18.108 65.234-6.5647 91.089 0.93092-14.056 49.307-2.8246 80.096-14.911 108.01-27.771 27.658-70.754 58.114-68.333 40.089 11.667-86.849-41.908-120.94-7.8457-149.03z" fill="#939dac" stroke="#010101" stroke-linecap="round" stroke-linejoin="round" stroke-width="4"/>
 <path d="m266.98 11.656c-21.953-18.108-65.234-6.5647-91.089 0.93092 14.056 49.307 2.8246 80.096 14.911 108.01 27.771 27.658 70.754 58.114 68.333 40.089-11.667-86.849 41.908-120.94 7.8457-149.03z" fill="#939dac" stroke="#010101" stroke-linecap="round" stroke-linejoin="round" stroke-width="4"/>
 <path d="m140.24 4.0018c-80.354 0-100.3 35.215-86.544 86.569 16.307 60.859 69.458 86.569 86.543 86.569s70.504-26.706 86.544-86.569c13.734-51.256-6.1888-86.569-86.543-86.569z" fill="#939dac" stroke="#010101" stroke-linecap="round" stroke-linejoin="round" stroke-width="4"/>
 <path d="m190.28 58.101c3e-3 12.519-10.145 22.669-22.663 22.669s-22.667-10.15-22.663-22.669 10.144-22.669 22.663-22.669 22.666 10.15 22.663 22.669z" fill="#fff" stroke="#010101" stroke-linecap="round" stroke-linejoin="round" stroke-width="4"/>
 <path d="m170.14 62.101c2e-3 4.173-3.381 7.557-7.554 7.557s-7.556-3.384-7.555-7.557 3.382-7.557 7.555-7.557 7.556 3.384 7.554 7.557z" fill="#010101"/>
 <path d="m137.55 58.101c4e-3 12.519-10.145 22.669-22.663 22.669s-22.666-10.15-22.663-22.669 10.145-22.669 22.663-22.669 22.667 10.15 22.663 22.669z" fill="#fff" stroke="#010101" stroke-linecap="round" stroke-linejoin="round" stroke-width="4"/>
 <path d="m128.11 62.101c2e-3 4.173-3.381 7.557-7.554 7.557s-7.556-3.384-7.555-7.557 3.382-7.557 7.555-7.557 7.556 3.384 7.554 7.557z" fill="#010101"/>
 <path d="m113.25 104.14c37.975 131.36-10.592 127.42 32.308 128.16s4.4479 7.1068 22.527-122.99" opacity=".32474" stroke="#010101" stroke-linecap="round" stroke-linejoin="round" stroke-width="4.0022"/>
 <path d="m109.15 95.148c36.539 136.37-10.192 132.27 31.087 133.04s-3.3018 4.2751 31.087-133.04" fill="#939dac" stroke="#010101" stroke-linecap="round" stroke-linejoin="round" stroke-width="4"/>
 <path d="m130.19 213.76h20.106" fill="none" stroke="#687588" stroke-linecap="round" stroke-linejoin="round" stroke-width="4"/>
 <path d="m132.19 197.76h16.106" fill="none" stroke="#687588" stroke-linecap="round" stroke-linejoin="round" stroke-width="4"/>
 <path d="m132.19 181.76h16.106" fill="none" stroke="#687588" stroke-linecap="round" stroke-linejoin="round" stroke-width="4"/>
 <path d="m130.19 165.76h20.106" fill="none" stroke="#687588" stroke-linecap="round" stroke-linejoin="round" stroke-width="4"/>
 <path d="m128.19 149.76h24.106" fill="none" stroke="#687588" stroke-linecap="round" stroke-linejoin="round" stroke-width="4"/>
 <path d="m126.19 133.76h28.106" fill="none" stroke="#687588" stroke-linecap="round" stroke-linejoin="round" stroke-width="4"/>
 <path d="m122.19 117.76h36.106" fill="none" stroke="#687588" stroke-linecap="round" stroke-linejoin="round" stroke-width="4"/>
</svg>
