<?xml version="1.0" encoding="UTF-8"?>
<svg xmlns="http://www.w3.org/2000/svg" xmlns:xlink="http://www.w3.org/1999/xlink" width="75px" height="px" viewBox="0 0 74 68" version="1.1">
<defs>
<filter id="alpha" filterUnits="objectBoundingBox" x="0%" y="0%" width="100%" height="100%">
  <feColorMatrix type="matrix" in="SourceGraphic" values="0 0 0 0 1 0 0 0 0 1 0 0 0 0 1 0 0 0 1 0"/>
</filter>
<mask id="mask0">
  <g filter="url(#alpha)">
<rect x="0" y="0" width="74" height="68" style="fill:rgb(0%,0%,0%);fill-opacity:0.32549;stroke:none;"/>
  </g>
</mask>
<clipPath id="clip1">
  <rect x="0" y="0" width="74" height="68"/>
</clipPath>
<g id="surface5" clip-path="url(#clip1)">
<path style="fill-rule:nonzero;fill:rgb(0%,0%,0%);fill-opacity:1;stroke-width:4.0022;stroke-linecap:round;stroke-linejoin:round;stroke:rgb(0.392157%,0.392157%,0.392157%);stroke-opacity:1;stroke-miterlimit:4;" d="M 113.248762 104.133876 C 151.220058 235.502566 102.65109 231.562092 145.559098 232.294522 C 188.452326 233.041601 150.008051 239.413744 168.084694 109.304833 " transform="matrix(0.264283,0,0,0.266664,0,0.000815578)"/>
</g>
</defs>
<g id="surface1">
<path style="fill-rule:nonzero;fill:rgb(57.647059%,61.568627%,67.45098%);fill-opacity:1;stroke-width:4;stroke-linecap:round;stroke-linejoin:round;stroke:rgb(0.392157%,0.392157%,0.392157%);stroke-opacity:1;stroke-miterlimit:4;" d="M 250.796789 129.563854 C 250.81157 190.077242 201.754843 239.135421 141.243171 239.135421 C 80.731498 239.135421 31.689552 190.077242 31.704332 129.563854 C 31.689552 69.065115 80.731498 20.006936 141.243171 20.006936 C 201.754843 20.006936 250.81157 69.065115 250.796789 129.563854 Z M 250.796789 129.563854 " transform="matrix(0.264283,0,0,0.266664,0,0.000815578)"/>
<path style=" stroke:none;fill-rule:nonzero;fill:rgb(0.392157%,0.392157%,0.392157%);fill-opacity:0.313725;" d="M 38.253906 4.800781 C 35.140625 4.800781 32.171875 5.429688 29.464844 6.570312 C 29.480469 6.519531 29.496094 6.46875 29.507812 6.417969 C 17.316406 9.863281 8.378906 21.152344 8.382812 34.550781 C 8.378906 38.585938 9.1875 42.429688 10.652344 45.925781 C 12.796875 45.011719 16.589844 42.195312 19.738281 39.660156 C 23.808594 46.027344 35.714844 52.128906 37.390625 52.128906 C 39.070312 52.128906 50.683594 45.289062 54.832031 39.460938 C 56.503906 40.75 60.121094 43.765625 61.550781 44.632812 C 55.140625 52.644531 45.335938 57.769531 34.339844 57.769531 C 26.324219 57.769531 18.945312 55.046875 13.046875 50.46875 C 18.210938 58.476562 27.15625 63.769531 37.328125 63.769531 C 49.320312 63.769531 59.613281 56.410156 64.003906 45.925781 C 64.027344 45.875 64.050781 45.820312 64.070312 45.769531 C 64.074219 45.761719 64.074219 45.75 64.078125 45.742188 C 64.144531 45.585938 64.207031 45.425781 64.269531 45.269531 L 64.328125 45.117188 C 64.394531 44.945312 64.460938 44.773438 64.523438 44.601562 L 64.566406 44.484375 C 64.632812 44.300781 64.695312 44.113281 64.757812 43.925781 C 64.765625 43.898438 64.773438 43.871094 64.78125 43.84375 C 64.890625 43.519531 64.992188 43.1875 65.085938 42.859375 C 65.183594 42.535156 65.273438 42.214844 65.359375 41.882812 L 65.367188 41.851562 C 65.421875 41.640625 65.476562 41.429688 65.523438 41.21875 L 65.542969 41.152344 C 65.585938 40.953125 65.625 40.753906 65.664062 40.550781 C 65.671875 40.515625 65.683594 40.480469 65.691406 40.441406 C 65.726562 40.253906 65.761719 40.058594 65.796875 39.867188 L 65.820312 39.726562 C 65.851562 39.546875 65.882812 39.363281 65.914062 39.183594 C 65.949219 38.957031 65.980469 38.730469 66.011719 38.5 C 66.023438 38.425781 66.035156 38.351562 66.042969 38.277344 C 66.050781 38.214844 66.0625 38.152344 66.070312 38.09375 C 66.089844 37.910156 66.109375 37.726562 66.128906 37.542969 C 66.140625 37.402344 66.15625 37.257812 66.167969 37.117188 C 66.242188 36.273438 66.277344 35.414062 66.277344 34.550781 C 66.28125 23.605469 60.320312 14.066406 51.492188 9.058594 C 47.753906 6.378906 43.1875 4.800781 38.253906 4.800781 Z M 38.253906 4.800781 "/>
<path style="fill-rule:nonzero;fill:rgb(57.647059%,61.568627%,67.45098%);fill-opacity:1;stroke-width:4;stroke-linecap:round;stroke-linejoin:round;stroke:rgb(0.392157%,0.392157%,0.392157%);stroke-opacity:1;stroke-miterlimit:4;" d="M 56.254867 229.364801 C 56.240086 250.209766 73.134283 252.861164 93.974893 252.861164 C 114.830284 252.861164 131.7097 250.209766 131.7097 229.364801 C 131.7097 208.534484 114.106036 197.020681 93.974893 191.629994 C 62.669636 183.236343 56.240086 208.534484 56.254867 229.364801 Z M 56.254867 229.364801 " transform="matrix(0.264283,0,0,0.266664,0,0.000815578)"/>
<path style="fill-rule:nonzero;fill:rgb(100%,100%,100%);fill-opacity:1;stroke-width:4;stroke-linecap:round;stroke-linejoin:round;stroke:rgb(0.392157%,0.392157%,0.392157%);stroke-opacity:1;stroke-miterlimit:4;" d="M 123.343895 241.112982 C 124.866294 246.752695 120.358219 248.730257 114.579014 250.26836 C 108.785029 251.821113 103.907439 252.363111 102.399821 246.738047 C 100.892202 241.098334 104.365637 235.282837 110.144842 233.730085 C 115.924046 232.177333 121.836276 235.487918 123.343895 241.112982 Z M 123.343895 241.112982 " transform="matrix(0.264283,0,0,0.266664,0,0.000815578)"/>
<path style="fill-rule:nonzero;fill:rgb(100%,100%,100%);fill-opacity:1;stroke-width:4;stroke-linecap:round;stroke-linejoin:round;stroke:rgb(0.392157%,0.392157%,0.392157%);stroke-opacity:1;stroke-miterlimit:4;" d="M 85.269135 247.221451 C 83.761516 252.846515 78.883926 252.319165 73.089941 250.766413 C 67.310737 249.213661 62.802661 247.236099 64.32506 241.611035 C 65.832679 235.971322 71.744909 232.660737 77.524114 234.213489 C 83.318099 235.766241 86.776753 241.581738 85.269135 247.221451 Z M 85.269135 247.221451 " transform="matrix(0.264283,0,0,0.266664,0,0.000815578)"/>
<path style="fill-rule:nonzero;fill:rgb(100%,100%,100%);fill-opacity:1;stroke-width:4;stroke-linecap:round;stroke-linejoin:round;stroke:rgb(0.392157%,0.392157%,0.392157%);stroke-opacity:1;stroke-miterlimit:4;" d="M 103.892659 246.298588 C 103.907439 252.128733 99.04463 252.875812 93.058497 252.875812 C 87.072365 252.875812 82.209556 252.128733 82.209556 246.298588 C 82.224336 240.468444 87.072365 235.736944 93.058497 235.736944 C 99.04463 235.736944 103.907439 240.468444 103.892659 246.298588 Z M 103.892659 246.298588 " transform="matrix(0.264283,0,0,0.266664,0,0.000815578)"/>
<path style=" stroke:none;fill-rule:nonzero;fill:rgb(0.392157%,0.392157%,0.392157%);fill-opacity:0.313725;" d="M 27.992188 52.203125 C 29.355469 54.007812 30.195312 56.257812 30.195312 59.042969 C 30.195312 65.613281 25.730469 66.453125 20.222656 66.453125 C 19.367188 66.453125 18.542969 66.429688 17.753906 66.371094 C 19.5625 67.253906 22.066406 67.433594 24.835938 67.433594 C 30.34375 67.433594 34.808594 66.71875 34.808594 61.164062 C 34.808594 56.746094 31.871094 53.90625 27.992188 52.203125 Z M 27.992188 52.203125 "/>
<path style="fill-rule:nonzero;fill:rgb(57.647059%,61.568627%,67.45098%);fill-opacity:1;stroke-width:4;stroke-linecap:round;stroke-linejoin:round;stroke:rgb(0.392157%,0.392157%,0.392157%);stroke-opacity:1;stroke-miterlimit:4;" d="M 226.246255 229.364801 C 226.261035 250.209766 209.366839 252.861164 188.526229 252.861164 C 167.685618 252.861164 150.791422 250.209766 150.791422 229.364801 C 150.791422 208.534484 168.395086 197.020681 188.526229 191.629994 C 219.846266 183.236343 226.261035 208.534484 226.246255 229.364801 Z M 226.246255 229.364801 " transform="matrix(0.264283,0,0,0.266664,0,0.000815578)"/>
<path style="fill-rule:nonzero;fill:rgb(100%,100%,100%);fill-opacity:1;stroke-width:4;stroke-linecap:round;stroke-linejoin:round;stroke:rgb(0.392157%,0.392157%,0.392157%);stroke-opacity:1;stroke-miterlimit:4;" d="M 218.811626 241.112982 C 220.319244 246.752695 215.82595 248.730257 210.031965 250.26836 C 204.25276 251.821113 199.37517 252.363111 197.867552 246.738047 C 196.359933 241.098334 199.818588 235.282837 205.597792 233.730085 C 211.391777 232.177333 217.304007 235.487918 218.811626 241.112982 Z M 218.811626 241.112982 " transform="matrix(0.264283,0,0,0.266664,0,0.000815578)"/>
<path style="fill-rule:nonzero;fill:rgb(100%,100%,100%);fill-opacity:1;stroke-width:4;stroke-linecap:round;stroke-linejoin:round;stroke:rgb(0.392157%,0.392157%,0.392157%);stroke-opacity:1;stroke-miterlimit:4;" d="M 180.736866 247.221451 C 179.229247 252.846515 174.336877 252.319165 168.557672 250.766413 C 162.763687 249.213661 158.270392 247.236099 159.778011 241.611035 C 161.30041 235.971322 167.197859 232.660737 172.991845 234.213489 C 178.771049 235.766241 182.244484 241.581738 180.736866 247.221451 Z M 180.736866 247.221451 " transform="matrix(0.264283,0,0,0.266664,0,0.000815578)"/>
<path style="fill-rule:nonzero;fill:rgb(100%,100%,100%);fill-opacity:1;stroke-width:4;stroke-linecap:round;stroke-linejoin:round;stroke:rgb(0.392157%,0.392157%,0.392157%);stroke-opacity:1;stroke-miterlimit:4;" d="M 199.37517 246.298588 C 199.37517 252.128733 194.512361 252.875812 188.526229 252.875812 C 182.540096 252.875812 177.677287 252.128733 177.677287 246.298588 C 177.692067 240.468444 182.540096 235.736944 188.526229 235.736944 C 194.512361 235.736944 199.37517 240.468444 199.37517 246.298588 Z M 199.37517 246.298588 " transform="matrix(0.264283,0,0,0.266664,0,0.000815578)"/>
<path style=" stroke:none;fill-rule:nonzero;fill:rgb(0.392157%,0.392157%,0.392157%);fill-opacity:0.313725;" d="M 54.320312 50.8125 C 56.886719 52.808594 57.5625 56.855469 57.5625 60.429688 C 57.5625 66.179688 52.945312 66.914062 47.246094 66.914062 C 46.011719 66.914062 44.832031 66.875 43.734375 66.761719 C 45.417969 67.304688 47.527344 67.429688 49.820312 67.429688 C 55.328125 67.429688 59.792969 66.722656 59.792969 61.164062 C 59.792969 56.808594 58.75 51.730469 54.320312 50.8125 Z M 54.320312 50.8125 "/>
<path style="fill-rule:nonzero;fill:rgb(57.647059%,61.568627%,67.45098%);fill-opacity:1;stroke-width:4;stroke-linecap:round;stroke-linejoin:round;stroke:rgb(0.392157%,0.392157%,0.392157%);stroke-opacity:1;stroke-miterlimit:4;" d="M 13.509445 11.657231 C 35.458598 -6.448445 78.736121 5.094656 104.587346 12.580093 C 90.531019 61.887298 101.764256 92.678666 89.688526 120.598908 C 61.915827 148.255474 18.933916 178.709924 21.34315 160.69214 C 33.019804 73.84056 -20.559779 39.738607 13.509445 11.657231 Z M 13.509445 11.657231 " transform="matrix(0.264283,0,0,0.266664,0,0.000815578)"/>
<path style="fill-rule:nonzero;fill:rgb(57.647059%,61.568627%,67.45098%);fill-opacity:1;stroke-width:4;stroke-linecap:round;stroke-linejoin:round;stroke:rgb(0.392157%,0.392157%,0.392157%);stroke-opacity:1;stroke-miterlimit:4;" d="M 266.981518 11.657231 C 245.032365 -6.448445 201.740062 5.094656 175.888837 12.580093 C 189.945164 61.887298 178.711927 92.678666 190.802437 120.598908 C 218.575137 148.255474 261.557047 178.709924 259.133033 160.69214 C 247.47116 73.84056 301.035962 39.738607 266.981518 11.657231 Z M 266.981518 11.657231 " transform="matrix(0.264283,0,0,0.266664,0,0.000815578)"/>
<path style="fill-rule:nonzero;fill:rgb(57.647059%,61.568627%,67.45098%);fill-opacity:1;stroke-width:4;stroke-linecap:round;stroke-linejoin:round;stroke:rgb(0.392157%,0.392157%,0.392157%);stroke-opacity:1;stroke-miterlimit:4;" d="M 140.238091 3.996011 C 59.890888 3.996011 39.937112 39.211258 53.697827 90.569267 C 70.000801 151.434222 123.151747 177.142524 140.238091 177.142524 C 157.324436 177.142524 210.741432 150.438116 226.778356 90.569267 C 240.52429 39.313798 220.600075 3.996011 140.238091 3.996011 Z M 140.238091 3.996011 " transform="matrix(0.264283,0,0,0.266664,0,0.000815578)"/>
<path style="fill-rule:nonzero;fill:rgb(100%,100%,100%);fill-opacity:1;stroke-width:4;stroke-linecap:round;stroke-linejoin:round;stroke:rgb(0.392157%,0.392157%,0.392157%);stroke-opacity:1;stroke-miterlimit:4;" d="M 190.285117 58.107958 C 190.285117 70.617867 180.130862 80.76935 167.611716 80.76935 C 155.092569 80.76935 144.953095 70.617867 144.953095 58.107958 C 144.953095 45.583401 155.092569 35.431917 167.611716 35.431917 C 180.130862 35.431917 190.285117 45.583401 190.285117 58.107958 Z M 190.285117 58.107958 " transform="matrix(0.264283,0,0,0.266664,0,0.000815578)"/>
<path style=" stroke:none;fill-rule:nonzero;fill:rgb(0.392157%,0.392157%,0.392157%);fill-opacity:1;" d="M 44.964844 16.5625 C 44.964844 17.671875 44.070312 18.574219 42.96875 18.574219 C 41.867188 18.574219 40.972656 17.671875 40.972656 16.5625 C 40.972656 15.449219 41.867188 14.546875 42.96875 14.546875 C 44.070312 14.546875 44.964844 15.449219 44.964844 16.5625 Z M 44.964844 16.5625 "/>
<path style="fill-rule:nonzero;fill:rgb(100%,100%,100%);fill-opacity:1;stroke-width:4;stroke-linecap:round;stroke-linejoin:round;stroke:rgb(0.392157%,0.392157%,0.392157%);stroke-opacity:1;stroke-miterlimit:4;" d="M 137.548027 58.107958 C 137.548027 70.617867 127.408553 80.76935 114.889406 80.76935 C 102.370259 80.76935 92.216005 70.617867 92.230785 58.107958 C 92.230785 45.583401 102.370259 35.431917 114.889406 35.431917 C 127.408553 35.431917 137.548027 45.583401 137.548027 58.107958 Z M 137.548027 58.107958 " transform="matrix(0.264283,0,0,0.266664,0,0.000815578)"/>
<path style=" stroke:none;fill-rule:nonzero;fill:rgb(0.392157%,0.392157%,0.392157%);fill-opacity:1;" d="M 33.855469 16.5625 C 33.859375 17.671875 32.964844 18.574219 31.859375 18.574219 C 30.757812 18.574219 29.863281 17.671875 29.863281 16.5625 C 29.863281 15.449219 30.757812 14.546875 31.859375 14.546875 C 32.964844 14.546875 33.859375 15.449219 33.855469 16.5625 Z M 33.855469 16.5625 "/>
<use xlink:href="#surface5" mask="url(#mask0)"/>
<path style="fill-rule:nonzero;fill:rgb(57.647059%,61.568627%,67.45098%);fill-opacity:1;stroke-width:4;stroke-linecap:round;stroke-linejoin:round;stroke:rgb(0.392157%,0.392157%,0.392157%);stroke-opacity:1;stroke-miterlimit:4;" d="M 109.154543 95.154281 C 145.692123 231.518146 98.955947 227.416536 140.238091 228.192913 C 181.520236 228.95464 136.942023 232.470305 171.32164 95.154281 " transform="matrix(0.264283,0,0,0.266664,0,0.000815578)"/>
<path style="fill:none;stroke-width:4;stroke-linecap:round;stroke-linejoin:round;stroke:rgb(40.784314%,45.882353%,53.333333%);stroke-opacity:1;stroke-miterlimit:4;" d="M 130.187301 213.764036 L 150.288882 213.764036 " transform="matrix(0.264283,0,0,0.266664,0,0.000815578)"/>
<path style="fill:none;stroke-width:4;stroke-linecap:round;stroke-linejoin:round;stroke:rgb(40.784314%,45.882353%,53.333333%);stroke-opacity:1;stroke-miterlimit:4;" d="M 132.182678 197.753111 L 148.293505 197.753111 " transform="matrix(0.264283,0,0,0.266664,0,0.000815578)"/>
<path style="fill:none;stroke-width:4;stroke-linecap:round;stroke-linejoin:round;stroke:rgb(40.784314%,45.882353%,53.333333%);stroke-opacity:1;stroke-miterlimit:4;" d="M 132.182678 181.756834 L 148.293505 181.756834 " transform="matrix(0.264283,0,0,0.266664,0,0.000815578)"/>
<path style="fill:none;stroke-width:4;stroke-linecap:round;stroke-linejoin:round;stroke:rgb(40.784314%,45.882353%,53.333333%);stroke-opacity:1;stroke-miterlimit:4;" d="M 130.187301 165.760557 L 150.288882 165.760557 " transform="matrix(0.264283,0,0,0.266664,0,0.000815578)"/>
<path style="fill:none;stroke-width:4;stroke-linecap:round;stroke-linejoin:round;stroke:rgb(40.784314%,45.882353%,53.333333%);stroke-opacity:1;stroke-miterlimit:4;" d="M 128.191923 149.764281 L 152.29904 149.764281 " transform="matrix(0.264283,0,0,0.266664,0,0.000815578)"/>
<path style="fill:none;stroke-width:4;stroke-linecap:round;stroke-linejoin:round;stroke:rgb(40.784314%,45.882353%,53.333333%);stroke-opacity:1;stroke-miterlimit:4;" d="M 126.196546 133.753355 L 154.294418 133.753355 " transform="matrix(0.264283,0,0,0.266664,0,0.000815578)"/>
<path style="fill:none;stroke-width:4;stroke-linecap:round;stroke-linejoin:round;stroke:rgb(40.784314%,45.882353%,53.333333%);stroke-opacity:1;stroke-miterlimit:4;" d="M 122.19101 117.757078 L 158.299954 117.757078 " transform="matrix(0.264283,0,0,0.266664,0,0.000815578)"/>
</g>
</svg>
