<?xml version="1.0" encoding="UTF-8"?>
<svg xmlns="http://www.w3.org/2000/svg" xmlns:xlink="http://www.w3.org/1999/xlink" width="75px" height="px" viewBox="0 0 75 75" version="1.1">
<g id="surface1">
<rect x="0" y="0" width="75" height="75" style="fill:rgb(100%,100%,100%);fill-opacity:1;stroke:none;"/>
<path style="fill-rule:nonzero;fill:rgb(78.431373%,74.509804%,71.764706%);fill-opacity:1;stroke-width:3.2874;stroke-linecap:round;stroke-linejoin:round;stroke:rgb(0%,0%,0%);stroke-opacity:1;stroke-miterlimit:4;" d="M 403.80911 278.229777 C 403.837751 378.128962 318.230336 459.125204 212.631629 459.125204 C 107.032921 459.125204 21.454147 378.128962 21.482788 278.229777 C 21.425506 178.330593 107.032921 97.334351 212.631629 97.334351 C 318.230336 97.334351 403.837751 178.330593 403.80911 278.229777 Z M 403.80911 278.229777 " transform="matrix(0.136387,0,0,0.136387,8.19111,4.76778)"/>
<path style=" stroke:none;fill-rule:nonzero;fill:rgb(0%,0%,0%);fill-opacity:0.309804;" d="M 61.691406 34.253906 C 61.707031 34.632812 61.71875 35.015625 61.71875 35.398438 C 61.71875 49.015625 50.039062 60.0625 35.648438 60.0625 C 24.398438 60.0625 14.800781 53.308594 11.144531 43.859375 C 11.777344 56.941406 23.207031 67.378906 37.195312 67.378906 C 51.589844 67.378906 63.265625 56.332031 63.265625 42.71875 C 63.265625 39.746094 62.710938 36.890625 61.691406 34.253906 Z M 61.691406 34.253906 "/>
<path style="fill-rule:nonzero;fill:rgb(42.352941%,36.470588%,32.54902%);fill-opacity:1;stroke-width:4;stroke-linecap:round;stroke-linejoin:round;stroke:rgb(0%,0%,0%);stroke-opacity:1;stroke-miterlimit:4;" d="M 226.923398 460.786372 C 226.923398 475.794162 252.528293 476.281056 284.061837 476.281056 C 315.595381 476.281056 341.171634 477.426689 341.171634 460.786372 C 341.171634 431.544093 315.595381 407.800852 284.061837 407.800852 C 252.528293 407.800852 226.923398 431.544093 226.923398 460.786372 Z M 226.923398 460.786372 " transform="matrix(0.136387,0,0,0.136387,8.19111,4.76778)"/>
<path style=" stroke:none;fill-rule:nonzero;fill:rgb(0%,0%,0%);fill-opacity:0.309804;" d="M 57.339844 34.769531 C 57.339844 44.941406 44.21875 53.199219 37.859375 53.199219 C 31.738281 53.199219 18.378906 44.941406 18.378906 34.769531 C 18.378906 24.597656 24.242188 16.34375 37.859375 16.34375 C 51.480469 16.34375 57.339844 24.597656 57.339844 34.769531 Z M 57.339844 34.769531 "/>
<path style="fill-rule:evenodd;fill:rgb(42.352941%,36.470588%,32.54902%);fill-opacity:1;stroke-width:4;stroke-linecap:butt;stroke-linejoin:round;stroke:rgb(0%,0%,0%);stroke-opacity:1;stroke-miterlimit:4;" d="M 119.66776 305.525439 C 133.192167 335.135897 139.514161 344.042764 139.105989 360.971283 C 138.914294 368.688522 155.116661 348.363818 156.255759 338.210339 C 155.429815 352.885858 158.355601 356.88958 160.050854 372.057671 C 161.779773 387.248281 167.468174 413.566365 169.128675 407.660024 C 172.540208 395.420601 174.152322 369.990054 183.572696 362.135458 C 187.840437 377.318768 209.594315 402.785516 206.00335 393.074055 C 197.288903 369.458599 194.082354 358.152552 201.7103 343.47072 C 215.396665 359.179754 223.22212 365.656859 220.578928 356.896113 C 216.147751 342.066411 222.470184 321.687083 233.964306 313.099894 C 248.534407 302.20895 119.668665 304.941289 119.66776 305.525439 Z M 119.66776 305.525439 " transform="matrix(0.133782,0.026541,-0.026541,0.133782,18.119032,0.989003)"/>
<path style="fill-rule:evenodd;fill:rgb(0%,0%,0%);fill-opacity:0.309804;stroke-width:4;stroke-linecap:butt;stroke-linejoin:round;stroke:rgb(0%,0%,0%);stroke-opacity:1;stroke-miterlimit:4;" d="M 306.029247 475.278627 C 306.029247 448.270333 289.560774 431.630016 289.560774 431.630016 C 289.560774 431.630016 296.148163 454.485391 295.031171 475.278627 Z M 306.029247 475.278627 " transform="matrix(0.136387,0,0,0.136387,8.191124,4.76778)"/>
<path style="fill-rule:nonzero;fill:rgb(78.431373%,74.509804%,71.764706%);fill-opacity:1;stroke-width:4;stroke-linecap:round;stroke-linejoin:round;stroke:rgb(0%,0%,0%);stroke-opacity:1;stroke-miterlimit:4;" d="M 207.982386 63.333026 C 155.373817 64.355811 119.06522 82.578599 96.935489 110.790571 C 54.916532 106.522976 2.875239 159.966371 -1.574839 180.50091 C -6.018418 201.063343 42.482512 186.322777 76.001589 152.340018 C 109.486273 118.335863 69.761428 182.231759 69.765318 198.405461 C 69.760835 272.986157 167.739499 333.531767 212.613251 333.517019 C 259.230248 333.537255 355.460592 272.974763 355.43718 198.400566 C 355.461184 182.220365 334.077596 119.974774 349.230788 152.322595 C 364.383979 184.670416 444.958845 237.03689 426.063341 191.15085 C 407.161338 145.236916 370.267443 106.54381 328.292124 110.794478 C 305.499109 81.755825 267.70961 63.327893 212.602244 63.344797 C 211.039363 63.32661 209.504375 63.301923 207.982386 63.333026 Z M 207.982386 63.333026 " transform="matrix(0.132828,0.0309463,-0.0309463,0.132828,15.091897,-1.133832)"/>
<path style="fill-rule:nonzero;fill:rgb(100%,100%,100%);fill-opacity:1;stroke-width:5.8889;stroke-linecap:round;stroke-linejoin:round;stroke:rgb(0%,0%,0%);stroke-opacity:1;stroke-miterlimit:4;" d="M 208.060961 159.095771 C 208.065898 183.008763 187.564948 202.414297 162.283016 202.404082 C 137.001084 202.393866 116.533424 183.011198 116.528486 159.098205 C 116.523549 135.185213 136.996854 115.787162 162.306431 115.789894 C 187.588363 115.80011 208.056023 135.182778 208.060961 159.095771 Z M 208.060961 159.095771 " transform="matrix(0.131655,0.0356381,-0.0356381,0.131655,14.629191,-0.262962)"/>
<path style="fill-rule:nonzero;fill:rgb(100%,100%,100%);fill-opacity:1;stroke-width:5.8889;stroke-linecap:round;stroke-linejoin:round;stroke:rgb(0%,0%,0%);stroke-opacity:1;stroke-miterlimit:4;" d="M 313.332756 171.313492 C 313.361397 195.887316 292.281752 215.821328 266.275887 215.821328 C 240.298662 215.821328 219.219018 195.887316 219.247658 171.313492 C 219.219018 146.711026 240.298662 126.777015 266.275887 126.777015 C 292.281752 126.777015 313.361397 146.711026 313.332756 171.313492 Z M 313.332756 171.313492 " transform="matrix(0.136387,0,0,0.136387,8.19111,4.767794)"/>
<path style=" stroke:none;fill-rule:nonzero;fill:rgb(0%,0%,0%);fill-opacity:1;" d="M 44.085938 30.136719 C 44.085938 31.078125 43.28125 31.839844 42.289062 31.839844 C 41.292969 31.839844 40.488281 31.078125 40.488281 30.136719 C 40.488281 29.199219 41.292969 28.4375 42.289062 28.4375 C 43.28125 28.4375 44.085938 29.199219 44.085938 30.136719 Z M 44.085938 30.136719 "/>
<path style=" stroke:none;fill-rule:nonzero;fill:rgb(0%,0%,0%);fill-opacity:1;" d="M 33.535156 28.773438 C 33.535156 29.714844 32.730469 30.476562 31.738281 30.476562 C 30.746094 30.476562 29.9375 29.714844 29.941406 28.773438 C 29.941406 27.832031 30.746094 27.070312 31.738281 27.070312 C 32.730469 27.070312 33.535156 27.832031 33.535156 28.773438 Z M 33.535156 28.773438 "/>
<path style="fill-rule:evenodd;fill:rgb(42.352941%,36.470588%,32.54902%);fill-opacity:1;stroke-width:4;stroke-linecap:butt;stroke-linejoin:round;stroke:rgb(0%,0%,0%);stroke-opacity:1;stroke-miterlimit:4;" d="M 250.381379 103.929394 C 248.175355 91.487812 264.238624 60.379127 297.38025 48.772691 C 320.182964 40.782288 344.080188 31.572782 347.771219 79.411516 C 332.925129 51.848043 321.546899 63.923419 309.066641 70.494188 C 284.055781 83.675314 295.320775 111.740826 283.355919 119.112121 C 272.197354 125.99607 252.645834 116.797571 250.381379 103.929394 Z M 250.381379 103.929394 " transform="matrix(0.133592,0.0274548,-0.0274548,0.133592,11.275617,-3.211386)"/>
<path style=" stroke:none;fill-rule:nonzero;fill:rgb(0%,0%,0%);fill-opacity:0.309804;" d="M 56.554688 29.351562 L 56.023438 29.875 C 55.976562 30.570312 55.894531 31.269531 55.789062 31.976562 C 54.273438 42.035156 40.066406 48.242188 33.777344 47.292969 C 28.90625 46.558594 20.195312 39.835938 17.777344 31.992188 C 18.21875 41.226562 28.835938 49.914062 34.414062 50.757812 C 40.703125 51.703125 54.910156 45.496094 56.425781 35.4375 C 56.742188 33.347656 56.789062 31.300781 56.554688 29.351562 Z M 56.554688 29.351562 "/>
<path style="fill-rule:nonzero;fill:rgb(42.352941%,36.470588%,32.54902%);fill-opacity:1;stroke-width:4;stroke-linecap:round;stroke-linejoin:round;stroke:rgb(0%,0%,0%);stroke-opacity:1;stroke-miterlimit:4;" d="M 200.745688 460.786372 C 200.745688 475.794162 175.140794 476.281056 143.60725 476.281056 C 112.073705 476.281056 86.468811 477.426689 86.468811 460.786372 C 86.468811 431.544093 112.073705 407.800852 143.60725 407.800852 C 175.140794 407.800852 200.745688 431.544093 200.745688 460.786372 Z M 200.745688 460.786372 " transform="matrix(0.136387,0,0,0.136387,8.19111,4.76778)"/>
<path style="fill-rule:evenodd;fill:rgb(0%,0%,0%);fill-opacity:0.309804;stroke-width:4;stroke-linecap:butt;stroke-linejoin:round;stroke:rgb(0%,0%,0%);stroke-opacity:1;stroke-miterlimit:4;" d="M 121.63974 475.278627 C 121.63974 448.270333 138.108212 431.630016 138.108212 431.630016 C 138.108212 431.630016 131.520823 454.485391 132.637815 475.278627 Z M 121.63974 475.278627 " transform="matrix(0.136387,0,0,0.136387,8.19111,4.76778)"/>
<path style=" stroke:none;fill-rule:nonzero;fill:rgb(0%,0%,0%);fill-opacity:1;" d="M 39.097656 38.742188 C 38.550781 39.636719 37.550781 40.058594 36.859375 39.679688 C 36.171875 39.304688 36.054688 38.273438 36.601562 37.378906 C 37.148438 36.484375 38.148438 36.066406 38.839844 36.441406 C 39.527344 36.820312 39.644531 37.847656 39.097656 38.742188 Z M 39.097656 38.742188 "/>
<path style=" stroke:none;fill-rule:nonzero;fill:rgb(0%,0%,0%);fill-opacity:1;" d="M 32.53125 38.335938 C 33.078125 39.230469 34.078125 39.648438 34.769531 39.273438 C 35.457031 38.894531 35.574219 37.863281 35.027344 36.972656 C 34.480469 36.078125 33.480469 35.65625 32.792969 36.03125 C 32.101562 36.410156 31.984375 37.441406 32.53125 38.335938 Z M 32.53125 38.335938 "/>
<path style="fill-rule:evenodd;fill:rgb(42.352941%,36.470588%,32.54902%);fill-opacity:1;stroke-width:4;stroke-linecap:butt;stroke-linejoin:round;stroke:rgb(0%,0%,0%);stroke-opacity:1;stroke-miterlimit:4;" d="M 226.252224 80.305089 C 228.411339 64.907307 212.637283 26.309003 180.084256 11.935895 C 157.677383 2.028877 119.551177 13.759953 115.935446 73.044331 C 130.513054 38.906778 156.358839 30.743441 168.583084 38.8735 C 193.184388 55.200964 182.09578 89.99587 193.873439 99.163634 C 204.819233 107.685684 224.02263 96.28907 226.252224 80.305089 Z M 226.252224 80.305089 " transform="matrix(0.135324,0.0170484,-0.0170484,0.135324,9.3182,1.908386)"/>
</g>
</svg>
