<?xml version="1.0" encoding="UTF-8"?>
<svg xmlns="http://www.w3.org/2000/svg" xmlns:xlink="http://www.w3.org/1999/xlink" width="75px" height="px" viewBox="0 0 75 92" version="1.1">
<g id="surface1">
<path style="fill-rule:nonzero;fill:rgb(57.647059%,61.568627%,67.45098%);fill-opacity:1;stroke-width:4;stroke-linecap:round;stroke-linejoin:round;stroke:rgb(0.392157%,0.392157%,0.392157%);stroke-opacity:1;stroke-miterlimit:4;" d="M 221.064329 147.273728 C 221.087558 207.781351 172.038293 256.834328 111.525229 256.834328 C 51.02378 256.834328 1.974515 207.781351 1.986129 147.273728 C 1.974515 86.766104 51.02378 37.70145 111.525229 37.70145 C 172.038293 37.70145 221.087558 86.766104 221.064329 147.273728 Z M 221.064329 147.273728 " transform="matrix(0.336317,0,0,0.334539,0,0.000658588)"/>
<path style=" stroke:none;fill-rule:nonzero;fill:rgb(0.392157%,0.392157%,0.392157%);fill-opacity:0.313725;" d="M 74.207031 52.476562 C 67.199219 67.761719 51.695312 78.394531 33.703125 78.394531 C 23.503906 78.394531 14.113281 74.976562 6.609375 69.234375 C 13.175781 79.28125 24.558594 85.921875 37.507812 85.921875 C 56.769531 85.921875 72.582031 71.21875 74.207031 52.476562 Z M 74.207031 52.476562 "/>
<path style="fill-rule:nonzero;fill:rgb(57.647059%,61.568627%,67.45098%);fill-opacity:1;stroke-width:4;stroke-linecap:round;stroke-linejoin:round;stroke:rgb(0.392157%,0.392157%,0.392157%);stroke-opacity:1;stroke-miterlimit:4;" d="M 14.483645 247.773364 C 14.47203 270.449127 32.858245 273.333223 55.530319 273.333223 C 78.214007 273.333223 96.600222 270.449127 96.588607 247.773364 C 96.600222 225.085924 77.44743 212.568716 55.530319 206.695437 C 21.45252 197.564414 14.47203 225.085924 14.483645 247.773364 Z M 14.483645 247.773364 " transform="matrix(0.336317,0,0,0.334539,0,0.000658588)"/>
<path style=" stroke:none;fill-rule:nonzero;fill:rgb(0.392157%,0.392157%,0.392157%);fill-opacity:0.313725;" d="M 23.046875 70.652344 C 24.9375 73.117188 26.097656 76.191406 26.097656 79.988281 C 26.097656 88.960938 19.914062 90.109375 12.285156 90.109375 C 11.105469 90.109375 9.964844 90.074219 8.871094 89.992188 C 11.371094 91.203125 14.839844 91.445312 18.675781 91.445312 C 26.304688 91.445312 32.488281 90.472656 32.484375 82.882812 C 32.488281 76.855469 28.417969 72.980469 23.046875 70.652344 Z M 23.046875 70.652344 "/>
<path style="fill-rule:nonzero;fill:rgb(100%,100%,100%);fill-opacity:1;stroke-width:4;stroke-linecap:round;stroke-linejoin:round;stroke:rgb(0.392157%,0.392157%,0.392157%);stroke-opacity:1;stroke-miterlimit:4;" d="M 87.494225 260.559132 C 89.143526 266.689294 84.242083 268.83777 77.946866 270.519186 C 71.651649 272.212279 66.34369 272.796104 64.694389 266.665941 C 63.056704 260.535779 66.831511 254.207116 73.126728 252.514023 C 79.421945 250.832607 85.85654 254.428969 87.494225 260.559132 Z M 87.494225 260.559132 " transform="matrix(0.336317,0,0,0.334539,0,0.000658588)"/>
<path style="fill-rule:nonzero;fill:rgb(100%,100%,100%);fill-opacity:1;stroke-width:4;stroke-linecap:round;stroke-linejoin:round;stroke:rgb(0.392157%,0.392157%,0.392157%);stroke-opacity:1;stroke-miterlimit:4;" d="M 46.052649 267.20306 C 44.414963 273.333223 39.107003 272.737722 32.811786 271.056305 C 26.504954 269.363213 21.615127 267.214737 23.264428 261.096251 C 24.902113 254.966088 31.336708 251.35805 37.631925 253.051142 C 43.927142 254.732558 47.701949 261.072898 46.052649 267.20306 Z M 46.052649 267.20306 " transform="matrix(0.336317,0,0,0.334539,0,0.000658588)"/>
<path style="fill-rule:nonzero;fill:rgb(100%,100%,100%);fill-opacity:1;stroke-width:4;stroke-linecap:round;stroke-linejoin:round;stroke:rgb(0.392157%,0.392157%,0.392157%);stroke-opacity:1;stroke-miterlimit:4;" d="M 66.332075 266.187205 C 66.34369 272.539221 61.058959 273.3449 54.531447 273.3449 C 48.015548 273.3449 42.730818 272.527545 42.742433 266.187205 C 42.742433 259.846865 48.015548 254.697529 54.531447 254.697529 C 61.058959 254.697529 66.34369 259.846865 66.332075 266.187205 Z M 66.332075 266.187205 " transform="matrix(0.336317,0,0,0.334539,0,0.000658588)"/>
<path style="fill-rule:nonzero;fill:rgb(57.647059%,61.568627%,67.45098%);fill-opacity:1;stroke-width:4;stroke-linecap:round;stroke-linejoin:round;stroke:rgb(0.392157%,0.392157%,0.392157%);stroke-opacity:1;stroke-miterlimit:4;" d="M 208.590042 247.773364 C 208.601657 270.449127 190.215442 273.333223 167.531754 273.333223 C 144.848066 273.333223 126.473466 270.449127 126.473466 247.773364 C 126.473466 225.085924 145.626257 212.568716 167.531754 206.695437 C 201.609553 197.564414 208.601657 225.085924 208.590042 247.773364 Z M 208.590042 247.773364 " transform="matrix(0.336317,0,0,0.334539,0,0.000658588)"/>
<path style="fill-rule:nonzero;fill:rgb(100%,100%,100%);fill-opacity:1;stroke-width:4;stroke-linecap:round;stroke-linejoin:round;stroke:rgb(0.392157%,0.392157%,0.392157%);stroke-opacity:1;stroke-miterlimit:4;" d="M 200.494533 260.559132 C 202.143833 266.689294 197.254006 268.83777 190.958789 270.519186 C 184.651957 272.212279 179.343997 272.796104 177.706311 266.665941 C 176.068626 260.535779 179.831818 254.207116 186.127035 252.514023 C 192.422252 250.832607 198.856847 254.428969 200.494533 260.559132 Z M 200.494533 260.559132 " transform="matrix(0.336317,0,0,0.334539,0,0.000658588)"/>
<path style="fill-rule:nonzero;fill:rgb(100%,100%,100%);fill-opacity:1;stroke-width:4;stroke-linecap:round;stroke-linejoin:round;stroke:rgb(0.392157%,0.392157%,0.392157%);stroke-opacity:1;stroke-miterlimit:4;" d="M 159.052956 267.20306 C 157.403656 273.333223 152.095696 272.737722 145.800479 271.056305 C 139.505262 269.363213 134.615435 267.214737 136.25312 261.096251 C 137.902421 254.966088 144.3254 251.35805 150.620617 253.051142 C 156.915835 254.732558 160.690642 261.072898 159.052956 267.20306 Z M 159.052956 267.20306 " transform="matrix(0.336317,0,0,0.334539,0,0.000658588)"/>
<path style="fill-rule:nonzero;fill:rgb(100%,100%,100%);fill-opacity:1;stroke-width:4;stroke-linecap:round;stroke-linejoin:round;stroke:rgb(0.392157%,0.392157%,0.392157%);stroke-opacity:1;stroke-miterlimit:4;" d="M 179.343997 266.187205 C 179.343997 272.539221 174.059267 273.3449 167.543369 273.3449 C 161.015856 273.3449 155.742741 272.527545 155.742741 266.187205 C 155.742741 259.846865 161.027471 254.697529 167.543369 254.697529 C 174.059267 254.697529 179.343997 259.846865 179.343997 266.187205 Z M 179.343997 266.187205 " transform="matrix(0.336317,0,0,0.334539,0,0.000658588)"/>
<path style=" stroke:none;fill-rule:nonzero;fill:rgb(0.392157%,0.392157%,0.392157%);fill-opacity:0.313725;" d="M 62.574219 68.753906 C 66.125 71.480469 67.0625 77.007812 67.0625 81.882812 C 67.066406 89.734375 60.667969 90.738281 52.777344 90.738281 C 51.066406 90.738281 49.433594 90.683594 47.914062 90.53125 C 50.246094 91.273438 53.167969 91.441406 56.34375 91.441406 C 63.96875 91.441406 70.15625 90.476562 70.152344 82.886719 C 70.152344 76.945312 68.710938 70.011719 62.574219 68.753906 Z M 62.574219 68.753906 "/>
<path style=" stroke:none;fill-rule:nonzero;fill:rgb(0.392157%,0.392157%,0.392157%);fill-opacity:0.313725;" d="M 71.902344 41.070312 C 74.253906 55.121094 63.582031 66.394531 40.988281 68.921875 C 22.039062 71.042969 3.539062 58.488281 3.542969 42.492188 C 14.304688 26.210938 44.5625 7.796875 44.730469 23.792969 C 44.800781 30.671875 63.832031 13.890625 71.902344 41.070312 Z M 71.902344 41.070312 "/>
<path style="fill-rule:nonzero;fill:rgb(57.647059%,61.568627%,67.45098%);fill-opacity:1;stroke-width:4;stroke-linecap:round;stroke-linejoin:round;stroke:rgb(0.392157%,0.392157%,0.392157%);stroke-opacity:1;stroke-miterlimit:4;" d="M 192.898459 91.985499 C 191.864742 77.576698 188.206083 64.055311 182.514835 52.086898 C 188.9262 47.287857 193.212058 38.787365 193.212058 29.119223 C 193.212058 14.14995 183.002656 1.994713 170.423837 1.994713 C 162.293483 1.994713 155.185231 7.10902 151.154898 14.733775 C 139.145203 6.64196 125.265527 1.994713 110.491513 1.994713 C 95.705883 1.994713 81.861051 6.64196 69.851357 14.733775 C 65.821024 7.10902 58.712772 1.994713 50.582417 1.994713 C 38.003598 1.994713 27.794196 14.14995 27.794196 29.119223 C 27.794196 38.799041 32.06844 47.287857 38.491419 52.086898 C 32.800171 64.055311 29.153127 77.576698 28.107796 91.985499 C 17.619639 103.019792 11.510258 116.260943 11.510258 130.51795 C 11.510258 168.910282 55.832303 200.016479 110.503127 200.016479 C 165.185566 200.016479 209.507611 168.910282 209.507611 130.51795 C 209.507611 116.260943 203.386616 103.019792 192.898459 91.985499 Z M 192.898459 91.985499 " transform="matrix(0.336317,0,0,0.334539,0,0.000658588)"/>
<path style=" stroke:none;fill-rule:nonzero;fill:rgb(0.392157%,0.392157%,0.392157%);fill-opacity:1;" d="M 54.84375 46.464844 C 53.546875 49.128906 51.160156 50.378906 49.519531 49.257812 C 47.878906 48.136719 47.605469 45.070312 48.902344 42.40625 C 50.203125 39.742188 52.585938 38.492188 54.226562 39.613281 C 55.867188 40.734375 56.140625 43.800781 54.84375 46.464844 Z M 54.84375 46.464844 "/>
<path style=" stroke:none;fill-rule:nonzero;fill:rgb(0.392157%,0.392157%,0.392157%);fill-opacity:1;" d="M 19.488281 46.464844 C 20.785156 49.128906 23.167969 50.378906 24.808594 49.257812 C 26.449219 48.136719 26.726562 45.070312 25.425781 42.40625 C 24.128906 39.742188 21.746094 38.492188 20.105469 39.613281 C 18.464844 40.734375 18.1875 43.800781 19.488281 46.464844 Z M 19.488281 46.464844 "/>
<path style="fill-rule:nonzero;fill:rgb(90.196078%,90.196078%,90.196078%);fill-opacity:1;stroke-width:4;stroke-linecap:round;stroke-linejoin:round;stroke:rgb(0.392157%,0.392157%,0.392157%);stroke-opacity:1;stroke-miterlimit:4;" d="M 169.668876 14.803834 C 165.104263 14.803834 161.108774 17.664576 158.832275 21.949852 C 165.82438 27.542895 171.840842 34.70059 176.544832 43.025934 C 180.133803 40.30531 182.514835 35.517945 182.514835 30.088372 C 182.514835 21.646263 176.765513 14.803834 169.668876 14.803834 Z M 169.668876 14.803834 " transform="matrix(0.336317,0,0,0.334539,0,0.000658588)"/>
<path style="fill-rule:nonzero;fill:rgb(90.196078%,90.196078%,90.196078%);fill-opacity:1;stroke-width:4;stroke-linecap:round;stroke-linejoin:round;stroke:rgb(0.392157%,0.392157%,0.392157%);stroke-opacity:1;stroke-miterlimit:4;" d="M 49.490627 14.803834 C 54.066855 14.803834 58.050728 17.664576 60.327228 21.949852 C 53.346738 27.542895 47.330276 34.70059 42.626285 43.025934 C 39.037315 40.30531 36.644668 35.517945 36.644668 30.088372 C 36.644668 21.646263 42.405604 14.803834 49.490627 14.803834 Z M 49.490627 14.803834 " transform="matrix(0.336317,0,0,0.334539,0,0.000658588)"/>
<path style="fill-rule:nonzero;fill:rgb(100%,100%,100%);fill-opacity:1;stroke-width:4;stroke-linecap:round;stroke-linejoin:round;stroke:rgb(0.392157%,0.392157%,0.392157%);stroke-opacity:1;stroke-miterlimit:4;" d="M 156.544161 73.805189 C 156.544161 86.322397 146.392833 96.469275 133.872088 96.469275 C 121.362957 96.469275 111.21163 86.322397 111.21163 73.805189 C 111.223244 61.276304 121.362957 51.129425 133.872088 51.129425 C 146.392833 51.129425 156.544161 61.276304 156.544161 73.805189 Z M 156.544161 73.805189 " transform="matrix(0.336317,0,0,0.334539,0,0.000658588)"/>
<path style=" stroke:none;fill-rule:nonzero;fill:rgb(0.392157%,0.392157%,0.392157%);fill-opacity:1;" d="M 45.871094 26.027344 C 45.871094 27.425781 44.734375 28.554688 43.328125 28.554688 C 41.925781 28.554688 40.789062 27.425781 40.789062 26.027344 C 40.789062 24.632812 41.925781 23.5 43.328125 23.5 C 44.734375 23.5 45.871094 24.632812 45.871094 26.027344 Z M 45.871094 26.027344 "/>
<path style="fill-rule:nonzero;fill:rgb(100%,100%,100%);fill-opacity:1;stroke-width:4;stroke-linecap:round;stroke-linejoin:round;stroke:rgb(0.392157%,0.392157%,0.392157%);stroke-opacity:1;stroke-miterlimit:4;" d="M 103.801393 73.805189 C 103.801393 86.322397 93.650065 96.469275 81.140934 96.469275 C 68.620189 96.469275 58.468861 86.322397 58.468861 73.805189 C 58.480476 61.276304 68.620189 51.129425 81.140934 51.129425 C 93.650065 51.129425 103.801393 61.276304 103.801393 73.805189 Z M 103.801393 73.805189 " transform="matrix(0.336317,0,0,0.334539,0,0.000658588)"/>
<path style=" stroke:none;fill-rule:nonzero;fill:rgb(0.392157%,0.392157%,0.392157%);fill-opacity:1;" d="M 31.734375 26.027344 C 31.734375 27.425781 30.597656 28.554688 29.195312 28.554688 C 27.792969 28.554688 26.652344 27.425781 26.652344 26.027344 C 26.65625 24.632812 27.792969 23.5 29.195312 23.5 C 30.597656 23.5 31.734375 24.632812 31.734375 26.027344 Z M 31.734375 26.027344 "/>
<path style=" stroke:none;fill-rule:nonzero;fill:rgb(0.392157%,0.392157%,0.392157%);fill-opacity:0.313725;" d="M 69.800781 39.148438 C 68.140625 55.066406 60.269531 61.015625 42.222656 63.011719 C 34.148438 63.90625 28.992188 64.796875 14.082031 60.671875 C 27.757812 67.808594 29.890625 66.246094 40.652344 66.582031 C 48.890625 66.835938 62.175781 63.125 68.789062 51.304688 C 72.488281 42.269531 70.128906 40.894531 69.800781 39.148438 Z M 69.800781 39.148438 "/>
<path style="fill-rule:nonzero;fill:rgb(100%,100%,100%);fill-opacity:1;stroke-width:4;stroke-linecap:butt;stroke-linejoin:round;stroke:rgb(0.392157%,0.392157%,0.392157%);stroke-opacity:1;stroke-miterlimit:4;" d="M 127.414264 177.25898 C 134.232147 176.161389 142.6761 171.397377 146.148923 167.298925 C 149.714664 163.095385 151.793711 182.268198 150.701921 184.895411 C 149.703049 187.312447 141.305555 191.53934 138.843219 191.212398 C 136.195046 190.850426 121.049358 178.286512 127.414264 177.25898 Z M 127.414264 177.25898 " transform="matrix(0.336317,0,0,0.334539,0,0.000658588)"/>
</g>
</svg>
