<?xml version="1.0" encoding="UTF-8"?>
<svg viewBox="0 0 300.45667 353.4353" xmlns="http://www.w3.org/2000/svg">
 <g transform="translate(-215.23 -337.26)">
  <path d="m336 686.86h-113c-9 0-7.0334-7.8846 2.893-10.797 9.5256-2.7945 47.32-9.5671 70.607-12.203 26.5-3 59-5.5 59-5.5l-19.5 28.5z" fill="#803300" fill-rule="evenodd" stroke="#000" stroke-width="4"/>
  <path d="m344.19 674.91c-11.947 0.17524-29.178 0.50503-45.094 1.1875-23.415 1.004-61.584 5.1274-71.281 7.25-3.1579 0.69123-5.6003 1.8977-7.1562 3.2812 0.67685 0.14087 1.4567 0.25 2.3438 0.25h113l8.1875-11.969z" fill-opacity=".31373" fill-rule="evenodd"/>
  <path d="m513.69 561.96a121.5 121.5 0 1 1 -243 0 121.5 121.5 0 1 1 243 0z" fill="#803300" stroke="#000" stroke-linecap="round" stroke-linejoin="round" stroke-width="4"/>
  <path d="m392.19 440.47c-12.925 0-25.375 2.037-37.062 5.7812 10.514-2.4554 21.602-3.7812 33.062-3.7812 31.438 0 60.108 9.8781 81.688 26.094-21.064-17.541-48.154-28.094-77.688-28.094zm115.06 82.375c1.5943 6.4882 2.4375 13.187 2.4375 20.062 1e-5 55.444-54.433 100.44-121.5 100.44-56.084 2e-5 -103.31-31.459-117.28-74.188 3.7241 63.725 56.628 114.31 121.28 114.31 67.067 0 121.5-54.433 121.5-121.5 0-13.683-2.2614-26.849-6.4375-39.125z" fill-opacity=".31373"/>
  <path d="m392.19 440.47c-20.721 0-40.236 5.1847-57.312 14.344 8.0876 28.248 31.719 54.375 59.625 54.375 27.168 1e-5 50.324-24.751 59-52.125-18-10.548-38.957-16.594-61.312-16.594z" fill-opacity=".31373"/>
  <path d="m308.22 339.28c-4.1313-0.00124-7.0708 0.59381-7.9375 1.7188-3.7503 4.868 6.1437 50.451 32.094 52.25 1.6731 0.11599 3.2439 0.12374 4.7188 0.09375-4.6047 8.7188-7.2188 18.648-7.2188 29.188 0 34.576 28.049 74.644 62.625 74.644s62.656-40.068 62.656-74.644c0-10.53-2.6221-20.443-7.2188-29.156 1.0624-0.00924 2.1855-0.0447 3.3438-0.125 25.95-1.7991 35.844-47.382 32.094-52.25-3.9618-5.1426-51.192 0.4111-57.906 26.438-0.07949 0.15898-0.24029 0.73001-0.40625 1.5938-9.4915-5.7924-20.637-9.1562-32.562-9.1562-12.446 0-24.028 3.6705-33.781 9.9375-0.20045-1.2696-0.43129-2.1751-0.53125-2.375-5.2454-20.333-35.214-28.152-49.969-28.156z" fill="#803300" stroke="#000" stroke-linecap="round" stroke-linejoin="round" stroke-width="4"/>
  <path transform="matrix(.46795 0 0 .46795 176.85 345.79)" d="m440.04 422.84a49.103 49.103 0 1 1 -98.205 0 49.103 49.103 0 1 1 98.205 0z" fill-opacity=".31373"/>
  <path transform="matrix(.46795 0 0 .46795 173.06 341.12)" d="m440.04 422.84a49.103 49.103 0 1 1 -98.205 0 49.103 49.103 0 1 1 98.205 0z" fill="#803300" stroke="#000" stroke-linecap="round" stroke-linejoin="round" stroke-width="8.548"/>
  <path transform="matrix(.46795 0 0 .46795 247.91 346.14)" d="m440.04 422.84a49.103 49.103 0 1 1 -98.205 0 49.103 49.103 0 1 1 98.205 0z" fill-opacity=".31373"/>
  <path transform="matrix(.46795 0 0 .46795 244.19 341.12)" d="m440.04 422.84a49.103 49.103 0 1 1 -98.205 0 49.103 49.103 0 1 1 98.205 0z" fill="#803300" stroke="#000" stroke-linecap="round" stroke-linejoin="round" stroke-width="8.548"/>
  <path d="m451.06 614.22c-30.406 0-55.094 24.688-55.094 55.094 0 6.2866 1.0577 12.308 3 17.938h104.16c1.9423-5.6294 3-11.651 3-17.938 0-30.406-24.657-55.094-55.062-55.094z" fill="#803300" stroke="#000" stroke-linecap="round" stroke-linejoin="round" stroke-width="4"/>
  <path d="m340.88 614.22c-30.406 0-55.062 24.688-55.062 55.094 0 6.2866 1.0577 12.308 3 17.938h104.16c1.9423-5.6294 3-11.651 3-17.938 0-30.406-24.688-55.094-55.094-55.094z" fill="#803300" stroke="#000" stroke-linecap="round" stroke-linejoin="round" stroke-width="4"/>
  <path transform="matrix(2.1667 0 0 2.1667 -414.44 -478.21)" d="m371.42 413.4a9.4428 9.4428 0 1 1 -18.886 0 9.4428 9.4428 0 1 1 18.886 0z" fill="#fff" stroke="#000" stroke-linecap="round" stroke-linejoin="round" stroke-width="1.8462"/>
  <path transform="matrix(2.1667 0 0 2.1667 -369.11 -478.21)" d="m371.42 413.4a9.4428 9.4428 0 1 1 -18.886 0 9.4428 9.4428 0 1 1 18.886 0z" fill="#fff" stroke="#000" stroke-linecap="round" stroke-linejoin="round" stroke-width="1.8462"/>
  <path transform="translate(6.9066 -6.9247)" d="m377.08 426.93a6.61 6.61 0 1 1 -13.22 0 6.61 6.61 0 1 1 13.22 0z"/>
  <path transform="translate(37.142 -6.9247)" d="m377.08 426.93a6.61 6.61 0 1 1 -13.22 0 6.61 6.61 0 1 1 13.22 0z"/>
  <path d="m381.93 456.77c3.3386-3.5611 17.512-4.3345 20.476 0.44514s-4.4514 14.69-10.238 14.244c-5.7698-0.44383-13.362-11.358-10.238-14.69z" fill-rule="evenodd"/>
  <path d="m359.46 583.37c34.624 18.886 65.47-1.259 65.47-1.259" fill-opacity=".31373" fill-rule="evenodd" stroke="#000" stroke-linecap="round" stroke-width="4"/>
  <path d="m344.66 384.13c-2.2033-31.791-34.938-39.03-36.512-35.253s5.9805 46.27 36.512 35.253z" fill="#520" fill-rule="evenodd" stroke="#000" stroke-linejoin="round" stroke-width="4"/>
  <path d="m437.95 384.13c2.2033-31.791 34.938-39.03 36.512-35.253s-5.9805 46.27-36.512 35.253z" fill="#520" fill-rule="evenodd" stroke="#000" stroke-linejoin="round" stroke-width="4"/>
  <path transform="matrix(.84286 0 0 1 37.629 -.5)" d="m354 671.86a17.5 17.5 0 1 1 -35 0 17.5 17.5 0 1 1 35 0z" fill="#520" stroke="#000" stroke-linecap="round" stroke-linejoin="round" stroke-width="4"/>
  <path transform="matrix(.84286 0 0 1 74.629 -.5)" d="m354 671.86a17.5 17.5 0 1 1 -35 0 17.5 17.5 0 1 1 35 0z" fill="#520" stroke="#000" stroke-linecap="round" stroke-linejoin="round" stroke-width="4"/>
  <path transform="matrix(.84286 0 0 1 57.129 -.5)" d="m354 671.86a17.5 17.5 0 1 1 -35 0 17.5 17.5 0 1 1 35 0z" fill="#520" stroke="#000" stroke-linecap="round" stroke-linejoin="round" stroke-width="4"/>
  <path transform="matrix(.84286 0 0 1 151.13 -.5)" d="m354 671.86a17.5 17.5 0 1 1 -35 0 17.5 17.5 0 1 1 35 0z" fill="#520" stroke="#000" stroke-linecap="round" stroke-linejoin="round" stroke-width="4"/>
  <path transform="matrix(.84286 0 0 1 188.13 -.5)" d="m354 671.86a17.5 17.5 0 1 1 -35 0 17.5 17.5 0 1 1 35 0z" fill="#520" stroke="#000" stroke-linecap="round" stroke-linejoin="round" stroke-width="4"/>
  <path transform="matrix(.84286 0 0 1 170.63 -.5)" d="m354 671.86a17.5 17.5 0 1 1 -35 0 17.5 17.5 0 1 1 35 0z" fill="#520" stroke="#000" stroke-linecap="round" stroke-linejoin="round" stroke-width="4"/>
  <path d="m450.22 398.28c1.1409 4.7146 1.75 9.6544 1.75 14.719 0 34.576-28.08 74.625-62.656 74.625-25.201-1e-5 -46.911-21.288-56.844-46.219 7.692 28.784 31.66 55.781 60.031 55.781 34.576 1e-5 62.656-40.08 62.656-74.656 0-8.6039-1.7582-16.788-4.9062-24.25h-0.03125z" fill-opacity=".31373"/>
  <path transform="matrix(.39134 -.22594 .25714 .44538 48.209 328.11)" d="m354 671.86a17.5 17.5 0 1 1 -35 0 17.5 17.5 0 1 1 35 0z" fill="#520" stroke="#000" stroke-linecap="round" stroke-linejoin="round" stroke-width="7.6176"/>
  <path transform="matrix(.39134 -.22594 .25714 .44538 65.388 318.2)" d="m354 671.86a17.5 17.5 0 1 1 -35 0 17.5 17.5 0 1 1 35 0z" fill="#520" stroke="#000" stroke-linecap="round" stroke-linejoin="round" stroke-width="7.6176"/>
  <path transform="matrix(.39134 -.22594 .25714 .44538 59.263 327.39)" d="m354 671.86a17.5 17.5 0 1 1 -35 0 17.5 17.5 0 1 1 35 0z" fill="#520" stroke="#000" stroke-linecap="round" stroke-linejoin="round" stroke-width="7.6176"/>
  <path transform="matrix(-.39134 -.22594 -.25714 .44538 735.79 328.11)" d="m354 671.86a17.5 17.5 0 1 1 -35 0 17.5 17.5 0 1 1 35 0z" fill="#520" stroke="#000" stroke-linecap="round" stroke-linejoin="round" stroke-width="7.6176"/>
  <path transform="matrix(-.39134 -.22594 -.25714 .44538 718.61 318.2)" d="m354 671.86a17.5 17.5 0 1 1 -35 0 17.5 17.5 0 1 1 35 0z" fill="#520" stroke="#000" stroke-linecap="round" stroke-linejoin="round" stroke-width="7.6176"/>
  <path transform="matrix(-.39134 -.22594 -.25714 .44538 724.74 327.39)" d="m354 671.86a17.5 17.5 0 1 1 -35 0 17.5 17.5 0 1 1 35 0z" fill="#520" stroke="#000" stroke-linecap="round" stroke-linejoin="round" stroke-width="7.6176"/>
 </g>
</svg>
