<?xml version="1.0" encoding="UTF-8"?>
<svg xmlns="http://www.w3.org/2000/svg" xmlns:xlink="http://www.w3.org/1999/xlink" width="75px" height="px" viewBox="0 0 75 88" version="1.1">
<g id="surface1">
<path style="fill-rule:evenodd;fill:rgb(50.196078%,20%,0%);fill-opacity:1;stroke-width:4;stroke-linecap:butt;stroke-linejoin:miter;stroke:rgb(0%,0%,0%);stroke-opacity:1;stroke-miterlimit:4;" d="M 336.007322 686.8544 L 223.007446 686.8544 C 213.993746 686.8544 215.965493 678.976393 225.886823 676.05745 C 235.416933 673.264053 273.208748 666.500266 296.49414 663.863801 C 323.003182 660.866392 355.505708 658.355473 355.505708 658.355473 Z M 336.007322 686.8544 " transform="matrix(0.24962,0,0,0.248913,-53.725717,-83.935658)"/>
<path style=" stroke:none;fill-rule:evenodd;fill:rgb(0%,0%,0%);fill-opacity:0.313725;" d="M 32.191406 84.058594 C 29.207031 84.101562 24.90625 84.183594 20.933594 84.355469 C 15.089844 84.605469 5.5625 85.628906 3.140625 86.160156 C 2.351562 86.332031 1.742188 86.628906 1.355469 86.976562 C 1.523438 87.011719 1.71875 87.039062 1.941406 87.039062 L 30.148438 87.039062 Z M 32.191406 84.058594 "/>
<path style="fill-rule:nonzero;fill:rgb(50.196078%,20%,0%);fill-opacity:1;stroke-width:4;stroke-linecap:round;stroke-linejoin:round;stroke:rgb(0%,0%,0%);stroke-opacity:1;stroke-miterlimit:4;" d="M 513.683626 561.967583 C 513.683626 629.056191 459.288449 683.46466 392.18646 683.46466 C 325.08447 683.46466 270.689294 629.056191 270.689294 561.967583 C 270.689294 494.863282 325.08447 440.454813 392.18646 440.454813 C 459.288449 440.454813 513.683626 494.863282 513.683626 561.967583 Z M 513.683626 561.967583 " transform="matrix(0.24962,0,0,0.248913,-53.725717,-83.935658)"/>
<path style=" stroke:none;fill-rule:nonzero;fill:rgb(0%,0%,0%);fill-opacity:0.313725;" d="M 44.171875 25.703125 C 40.945312 25.703125 37.839844 26.210938 34.921875 27.140625 C 37.546875 26.53125 40.3125 26.199219 43.175781 26.199219 C 51.023438 26.199219 58.179688 28.660156 63.566406 32.695312 C 58.308594 28.328125 51.546875 25.703125 44.171875 25.703125 Z M 72.894531 46.207031 C 73.292969 47.820312 73.503906 49.488281 73.503906 51.199219 C 73.503906 65 59.914062 76.203125 43.171875 76.203125 C 29.175781 76.203125 17.386719 68.371094 13.898438 57.734375 C 14.828125 73.597656 28.035156 86.1875 44.171875 86.1875 C 60.914062 86.1875 74.5 72.640625 74.5 55.945312 C 74.5 52.539062 73.9375 49.261719 72.894531 46.207031 Z M 72.894531 46.207031 "/>
<path style=" stroke:none;fill-rule:nonzero;fill:rgb(0%,0%,0%);fill-opacity:0.313725;" d="M 44.171875 25.703125 C 39 25.703125 34.128906 26.992188 29.867188 29.273438 C 31.886719 36.304688 37.785156 42.808594 44.75 42.808594 C 51.53125 42.808594 57.3125 36.648438 59.476562 29.832031 C 54.984375 27.207031 49.753906 25.703125 44.171875 25.703125 Z M 44.171875 25.703125 "/>
<path style="fill-rule:nonzero;fill:rgb(50.196078%,20%,0%);fill-opacity:1;stroke-width:4;stroke-linecap:round;stroke-linejoin:round;stroke:rgb(0%,0%,0%);stroke-opacity:1;stroke-miterlimit:4;" d="M 308.21508 339.280484 C 304.083801 339.280484 301.141829 339.876827 300.281146 340.991047 C 296.525438 345.871645 306.431118 391.444819 332.376804 393.249542 C 334.051224 393.359395 335.616102 393.375088 337.102737 393.343701 C 332.486345 402.069144 329.872998 411.987272 329.872998 422.533131 C 329.872998 457.105342 357.931269 497.170188 392.499435 497.170188 C 427.08325 497.170188 455.15717 457.105342 455.15717 422.533131 C 455.15717 412.002966 452.528174 402.084837 447.94308 393.375088 C 449.007198 393.359395 450.118261 393.328008 451.276271 393.249542 C 477.237606 391.444819 487.127638 345.871645 483.371929 341.00674 C 479.412787 335.859357 432.184754 341.414765 425.471425 367.434159 C 425.393181 367.591092 425.236693 368.171742 425.064557 369.03487 C 415.565744 363.244064 404.423809 359.870017 392.499435 359.870017 C 380.058651 359.870017 368.47855 363.542235 358.713709 369.819532 C 358.525923 368.548379 358.291192 367.638171 358.197299 367.434159 C 352.939307 347.111411 322.971884 339.280484 308.21508 339.280484 Z M 308.21508 339.280484 " transform="matrix(0.24962,0,0,0.248913,-53.725717,-83.935658)"/>
<path style=" stroke:none;fill-rule:nonzero;fill:rgb(0%,0%,0%);fill-opacity:0.313725;" d="M 41.820312 51.386719 C 41.828125 53.4375 40.738281 55.335938 38.960938 56.363281 C 37.183594 57.390625 34.988281 57.390625 33.210938 56.363281 C 31.429688 55.335938 30.339844 53.4375 30.347656 51.386719 C 30.339844 49.339844 31.429688 47.441406 33.210938 46.414062 C 34.988281 45.386719 37.183594 45.386719 38.960938 46.414062 C 40.738281 47.441406 41.828125 49.339844 41.820312 51.386719 Z M 41.820312 51.386719 "/>
<path style="fill-rule:nonzero;fill:rgb(50.196078%,20%,0%);fill-opacity:1;stroke-width:8.548;stroke-linecap:round;stroke-linejoin:round;stroke:rgb(0%,0%,0%);stroke-opacity:1;stroke-miterlimit:4;" d="M 440.044631 422.850042 C 440.111513 440.422985 430.781433 456.721554 415.565711 465.541562 C 400.316548 474.361569 381.556064 474.361569 366.306901 465.541562 C 351.091179 456.721554 341.761099 440.422985 341.827981 422.850042 C 341.761099 405.243563 351.091179 388.944994 366.306901 380.124986 C 381.556064 371.304979 400.316548 371.304979 415.565711 380.124986 C 430.781433 388.944994 440.111513 405.243563 440.044631 422.850042 Z M 440.044631 422.850042 " transform="matrix(0.11681,0,0,0.116479,-10.526476,0.973504)"/>
<path style=" stroke:none;fill-rule:nonzero;fill:rgb(0%,0%,0%);fill-opacity:0.313725;" d="M 59.558594 51.476562 C 59.566406 53.523438 58.476562 55.421875 56.699219 56.449219 C 54.917969 57.476562 52.726562 57.476562 50.949219 56.449219 C 49.167969 55.421875 48.078125 53.523438 48.085938 51.476562 C 48.078125 49.425781 49.167969 47.527344 50.949219 46.5 C 52.726562 45.472656 54.917969 45.472656 56.699219 46.5 C 58.476562 47.527344 59.566406 49.425781 59.558594 51.476562 Z M 59.558594 51.476562 "/>
<path style="fill-rule:nonzero;fill:rgb(50.196078%,20%,0%);fill-opacity:1;stroke-width:8.548;stroke-linecap:round;stroke-linejoin:round;stroke:rgb(0%,0%,0%);stroke-opacity:1;stroke-miterlimit:4;" d="M 440.031227 422.850042 C 440.13155 440.422985 430.768029 456.721554 415.552307 465.541562 C 400.336585 474.361569 381.54266 474.361569 366.326938 465.541562 C 351.111216 456.721554 341.747695 440.422985 341.848018 422.850042 C 341.747695 405.243563 351.111216 388.944994 366.326938 380.124986 C 381.54266 371.304979 400.336585 371.304979 415.552307 380.124986 C 430.768029 388.944994 440.13155 405.243563 440.031227 422.850042 Z M 440.031227 422.850042 " transform="matrix(0.11681,0,0,0.116479,7.228996,0.973504)"/>
<path style="fill-rule:nonzero;fill:rgb(50.196078%,20%,0%);fill-opacity:1;stroke-width:4;stroke-linecap:round;stroke-linejoin:round;stroke:rgb(0%,0%,0%);stroke-opacity:1;stroke-miterlimit:4;" d="M 451.057188 614.226078 C 420.651599 614.226078 395.973466 638.911547 395.973466 669.309356 C 395.973466 675.602346 397.021934 681.628551 398.962383 687.246731 L 503.120696 687.246731 C 505.061145 681.628551 506.125262 675.602346 506.125262 669.309356 C 506.125262 638.911547 481.462777 614.226078 451.057188 614.226078 Z M 451.057188 614.226078 " transform="matrix(0.24962,0,0,0.248913,-53.725717,-83.935658)"/>
<path style="fill-rule:nonzero;fill:rgb(50.196078%,20%,0%);fill-opacity:1;stroke-width:4;stroke-linecap:round;stroke-linejoin:round;stroke:rgb(0%,0%,0%);stroke-opacity:1;stroke-miterlimit:4;" d="M 340.874094 614.226078 C 310.468505 614.226078 285.821669 638.911547 285.821669 669.309356 C 285.821669 675.602346 286.870137 681.628551 288.810587 687.246731 L 392.984548 687.246731 C 394.924997 681.628551 395.973466 675.602346 395.973466 669.309356 C 395.973466 638.911547 371.295332 614.226078 340.889743 614.226078 Z M 340.874094 614.226078 " transform="matrix(0.24962,0,0,0.248913,-53.725717,-83.935658)"/>
<path style="fill-rule:nonzero;fill:rgb(100%,100%,100%);fill-opacity:1;stroke-width:1.8462;stroke-linecap:round;stroke-linejoin:round;stroke:rgb(0%,0%,0%);stroke-opacity:1;stroke-miterlimit:4;" d="M 371.416719 413.403468 C 371.416719 418.618372 367.191612 422.840997 361.977036 422.840997 C 356.762459 422.840997 352.537353 418.618372 352.537353 413.403468 C 352.537353 408.18132 356.762459 403.958696 361.977036 403.958696 C 367.191612 403.958696 371.416719 408.18132 371.416719 413.403468 Z M 371.416719 413.403468 " transform="matrix(0.540852,0,0,0.53932,-157.178238,-202.968287)"/>
<path style="fill-rule:nonzero;fill:rgb(100%,100%,100%);fill-opacity:1;stroke-width:1.8462;stroke-linecap:round;stroke-linejoin:round;stroke:rgb(0%,0%,0%);stroke-opacity:1;stroke-miterlimit:4;" d="M 371.41881 413.403468 C 371.41881 418.618372 367.193703 422.840997 361.979127 422.840997 C 356.76455 422.840997 352.532221 418.618372 352.532221 413.403468 C 352.532221 408.18132 356.76455 403.958696 361.979127 403.958696 C 367.193703 403.958696 371.41881 408.18132 371.41881 413.403468 Z M 371.41881 413.403468 " transform="matrix(0.540852,0,0,0.53932,-145.862963,-202.968287)"/>
<path style=" stroke:none;fill-rule:nonzero;fill:rgb(0%,0%,0%);fill-opacity:1;" d="M 42.125 20.609375 C 42.125 21.519531 41.386719 22.253906 40.476562 22.253906 C 39.5625 22.253906 38.824219 21.519531 38.824219 20.609375 C 38.824219 19.699219 39.5625 18.964844 40.476562 18.964844 C 41.386719 18.964844 42.125 19.699219 42.125 20.609375 Z M 42.125 20.609375 "/>
<path style=" stroke:none;fill-rule:nonzero;fill:rgb(0%,0%,0%);fill-opacity:1;" d="M 49.671875 20.609375 C 49.671875 21.519531 48.933594 22.253906 48.023438 22.253906 C 47.109375 22.253906 46.371094 21.519531 46.371094 20.609375 C 46.371094 19.699219 47.109375 18.964844 48.023438 18.964844 C 48.933594 18.964844 49.671875 19.699219 49.671875 20.609375 Z M 49.671875 20.609375 "/>
<path style=" stroke:none;fill-rule:evenodd;fill:rgb(0%,0%,0%);fill-opacity:1;" d="M 41.613281 29.761719 C 42.445312 28.875 45.984375 28.679688 46.722656 29.871094 C 47.460938 31.0625 45.613281 33.527344 44.167969 33.417969 C 42.726562 33.304688 40.832031 30.589844 41.613281 29.761719 Z M 41.613281 29.761719 "/>
<path style="fill-rule:evenodd;fill:rgb(0%,0%,0%);fill-opacity:0.313725;stroke-width:4;stroke-linecap:round;stroke-linejoin:miter;stroke:rgb(0%,0%,0%);stroke-opacity:1;stroke-miterlimit:4;" d="M 359.46485 583.373165 C 394.079963 602.252134 424.923718 582.117705 424.923718 582.117705 " transform="matrix(0.24962,0,0,0.248913,-53.725717,-83.935658)"/>
<path style="fill-rule:evenodd;fill:rgb(33.333333%,13.333333%,0%);fill-opacity:1;stroke-width:4;stroke-linecap:butt;stroke-linejoin:round;stroke:rgb(0%,0%,0%);stroke-opacity:1;stroke-miterlimit:4;" d="M 344.6611 384.131768 C 342.454621 352.337261 309.717363 345.102676 308.152485 348.884748 C 306.571957 352.651126 314.130321 395.148424 344.6611 384.131768 Z M 344.6611 384.131768 " transform="matrix(0.24962,0,0,0.248913,-53.725717,-83.935658)"/>
<path style="fill-rule:evenodd;fill:rgb(33.333333%,13.333333%,0%);fill-opacity:1;stroke-width:4;stroke-linecap:butt;stroke-linejoin:round;stroke:rgb(0%,0%,0%);stroke-opacity:1;stroke-miterlimit:4;" d="M 437.943507 384.131768 C 440.149985 352.337261 472.887243 345.102676 474.467771 348.884748 C 476.032649 352.651126 468.474286 395.148424 437.943507 384.131768 Z M 437.943507 384.131768 " transform="matrix(0.24962,0,0,0.248913,-53.725717,-83.935658)"/>
<path style="fill-rule:nonzero;fill:rgb(33.333333%,13.333333%,0%);fill-opacity:1;stroke-width:4;stroke-linecap:round;stroke-linejoin:round;stroke:rgb(0%,0%,0%);stroke-opacity:1;stroke-miterlimit:4;" d="M 354.006978 671.865171 C 354.006978 681.532208 346.172003 689.363135 336.498965 689.363135 C 326.825927 689.363135 318.990952 681.532208 318.990952 671.865171 C 318.990952 662.198134 326.825927 654.367206 336.498965 654.367206 C 346.172003 654.367206 354.006978 662.198134 354.006978 671.865171 Z M 354.006978 671.865171 " transform="matrix(0.210395,0,0,0.248913,-44.332765,-84.060114)"/>
<path style="fill-rule:nonzero;fill:rgb(33.333333%,13.333333%,0%);fill-opacity:1;stroke-width:4;stroke-linecap:round;stroke-linejoin:round;stroke:rgb(0%,0%,0%);stroke-opacity:1;stroke-miterlimit:4;" d="M 353.999536 671.865171 C 353.999536 681.532208 346.164561 689.363135 336.491523 689.363135 C 326.837051 689.363135 319.002076 681.532208 319.002076 671.865171 C 319.002076 662.198134 326.837051 654.367206 336.491523 654.367206 C 346.164561 654.367206 353.999536 662.198134 353.999536 671.865171 Z M 353.999536 671.865171 " transform="matrix(0.210395,0,0,0.248913,-35.096824,-84.060114)"/>
<path style="fill-rule:nonzero;fill:rgb(33.333333%,13.333333%,0%);fill-opacity:1;stroke-width:4;stroke-linecap:round;stroke-linejoin:round;stroke:rgb(0%,0%,0%);stroke-opacity:1;stroke-miterlimit:4;" d="M 354.005063 671.865171 C 354.005063 681.532208 346.170088 689.363135 336.49705 689.363135 C 326.842578 689.363135 319.007603 681.532208 319.007603 671.865171 C 319.007603 662.198134 326.842578 654.367206 336.49705 654.367206 C 346.170088 654.367206 354.005063 662.198134 354.005063 671.865171 Z M 354.005063 671.865171 " transform="matrix(0.210395,0,0,0.248913,-39.465175,-84.060114)"/>
<path style="fill-rule:nonzero;fill:rgb(33.333333%,13.333333%,0%);fill-opacity:1;stroke-width:4;stroke-linecap:round;stroke-linejoin:round;stroke:rgb(0%,0%,0%);stroke-opacity:1;stroke-miterlimit:4;" d="M 354.006548 671.865171 C 354.006548 681.532208 346.171572 689.363135 336.498534 689.363135 C 326.844062 689.363135 319.009087 681.532208 319.009087 671.865171 C 319.009087 662.198134 326.844062 654.367206 336.498534 654.367206 C 346.171572 654.367206 354.006548 662.198134 354.006548 671.865171 Z M 354.006548 671.865171 " transform="matrix(0.210395,0,0,0.248913,-16.000643,-84.060114)"/>
<path style="fill-rule:nonzero;fill:rgb(33.333333%,13.333333%,0%);fill-opacity:1;stroke-width:4;stroke-linecap:round;stroke-linejoin:round;stroke:rgb(0%,0%,0%);stroke-opacity:1;stroke-miterlimit:4;" d="M 353.999106 671.865171 C 353.999106 681.532208 346.16413 689.363135 336.491092 689.363135 C 326.83662 689.363135 319.001645 681.532208 319.001645 671.865171 C 319.001645 662.198134 326.83662 654.367206 336.491092 654.367206 C 346.16413 654.367206 353.999106 662.198134 353.999106 671.865171 Z M 353.999106 671.865171 " transform="matrix(0.210395,0,0,0.248913,-6.764703,-84.060114)"/>
<path style="fill-rule:nonzero;fill:rgb(33.333333%,13.333333%,0%);fill-opacity:1;stroke-width:4;stroke-linecap:round;stroke-linejoin:round;stroke:rgb(0%,0%,0%);stroke-opacity:1;stroke-miterlimit:4;" d="M 354.004633 671.865171 C 354.004633 681.532208 346.169657 689.363135 336.496619 689.363135 C 326.842147 689.363135 319.007172 681.532208 319.007172 671.865171 C 319.007172 662.198134 326.842147 654.367206 336.496619 654.367206 C 346.169657 654.367206 354.004633 662.198134 354.004633 671.865171 Z M 354.004633 671.865171 " transform="matrix(0.210395,0,0,0.248913,-11.133053,-84.060114)"/>
<path style=" stroke:none;fill-rule:nonzero;fill:rgb(0%,0%,0%);fill-opacity:0.313725;" d="M 58.660156 15.203125 C 58.941406 16.375 59.09375 17.605469 59.09375 18.863281 C 59.09375 27.472656 52.085938 37.441406 43.453125 37.441406 C 37.164062 37.441406 31.746094 32.140625 29.265625 25.9375 C 31.183594 33.101562 37.167969 39.820312 44.25 39.820312 C 52.882812 39.820312 59.890625 29.84375 59.890625 21.238281 C 59.890625 19.097656 59.453125 17.058594 58.664062 15.203125 L 58.65625 15.203125 Z M 58.660156 15.203125 "/>
<path style="fill-rule:nonzero;fill:rgb(33.333333%,13.333333%,0%);fill-opacity:1;stroke-width:7.6176;stroke-linecap:round;stroke-linejoin:round;stroke:rgb(0%,0%,0%);stroke-opacity:1;stroke-miterlimit:4;" d="M 354.015581 671.861007 C 353.99629 681.505782 346.152481 689.365809 336.511055 689.372493 C 326.839638 689.363962 319.002712 681.512393 318.992012 671.852405 C 319.011303 662.20763 326.837747 654.374029 336.496538 654.340919 C 346.167955 654.34945 354.004881 662.201018 354.015581 671.861007 Z M 354.015581 671.861007 " transform="matrix(0.0976863,-0.0562394,0.0641873,0.110861,-41.691785,-2.264852)"/>
<path style="fill-rule:nonzero;fill:rgb(33.333333%,13.333333%,0%);fill-opacity:1;stroke-width:7.6176;stroke-linecap:round;stroke-linejoin:round;stroke:rgb(0%,0%,0%);stroke-opacity:1;stroke-miterlimit:4;" d="M 353.98367 671.861804 C 353.99437 681.521792 346.167926 689.355393 336.496509 689.346862 C 326.855083 689.353546 319.000792 681.528404 318.990092 671.868415 C 318.996757 662.182 326.823201 654.348399 336.494618 654.35693 C 346.166035 654.36546 354.020326 662.190602 353.98367 671.861804 Z M 353.98367 671.861804 " transform="matrix(0.0976863,-0.0562394,0.0641873,0.110861,-37.403563,-4.731579)"/>
<path style="fill-rule:nonzero;fill:rgb(33.333333%,13.333333%,0%);fill-opacity:1;stroke-width:7.6176;stroke-linecap:round;stroke-linejoin:round;stroke:rgb(0%,0%,0%);stroke-opacity:1;stroke-miterlimit:4;" d="M 354.006253 671.852034 C 353.999588 681.538449 346.173144 689.37205 336.501727 689.363519 C 326.83031 689.354988 319.00601 681.545061 319.012675 671.858645 C 319.001975 662.198657 326.828419 654.365056 336.499836 654.373586 C 346.158627 654.340476 353.995553 662.192045 354.006253 671.852034 Z M 354.006253 671.852034 " transform="matrix(0.0976863,-0.0562394,0.0641873,0.110861,-38.932486,-2.44407)"/>
<path style="fill-rule:nonzero;fill:rgb(33.333333%,13.333333%,0%);fill-opacity:1;stroke-width:7.6176;stroke-linecap:round;stroke-linejoin:round;stroke:rgb(0%,0%,0%);stroke-opacity:1;stroke-miterlimit:4;" d="M 353.988755 671.847399 C 353.999455 681.507387 346.155647 689.367415 336.484229 689.358884 C 326.842803 689.365568 319.005877 681.513999 318.995177 671.85401 C 318.984477 662.194022 326.840912 654.375635 336.499703 654.342525 C 346.17112 654.351055 354.008046 662.202624 353.988755 671.847399 Z M 353.988755 671.847399 " transform="matrix(-0.0976863,-0.0562394,-0.0641873,0.110861,129.942198,-2.264852)"/>
<path style="fill-rule:nonzero;fill:rgb(33.333333%,13.333333%,0%);fill-opacity:1;stroke-width:7.6176;stroke-linecap:round;stroke-linejoin:round;stroke:rgb(0%,0%,0%);stroke-opacity:1;stroke-miterlimit:4;" d="M 353.984919 671.862437 C 353.995619 681.522426 346.169175 689.356027 336.497758 689.347496 C 326.856332 689.354179 319.002041 681.529037 318.991341 671.869049 C 318.998006 662.182633 326.82445 654.349033 336.495867 654.357563 C 346.167284 654.366094 354.021575 662.191236 353.984919 671.862437 Z M 353.984919 671.862437 " transform="matrix(-0.0976863,-0.0562394,-0.0641873,0.110861,125.653726,-4.731579)"/>
<path style="fill-rule:nonzero;fill:rgb(33.333333%,13.333333%,0%);fill-opacity:1;stroke-width:7.6176;stroke-linecap:round;stroke-linejoin:round;stroke:rgb(0%,0%,0%);stroke-opacity:1;stroke-miterlimit:4;" d="M 354.017084 671.857528 C 353.980429 681.528729 346.153985 689.36233 336.512558 689.369014 C 326.841141 689.360483 318.986851 681.535341 318.993515 671.848926 C 319.012806 662.204151 326.83925 654.37055 336.480677 654.363867 C 346.169458 654.345971 354.006384 662.19754 354.017084 671.857528 Z M 354.017084 671.857528 " transform="matrix(-0.0976863,-0.0562394,-0.0641873,0.110861,127.183896,-2.44407)"/>
</g>
</svg>
