<?xml version="1.0" encoding="UTF-8"?>
<svg xmlns="http://www.w3.org/2000/svg" xmlns:xlink="http://www.w3.org/1999/xlink" width="75px" height="px" viewBox="0 0 75 90" version="1.1">
<g id="surface1">
<path style="fill-rule:nonzero;fill:rgb(100%,66.666667%,83.137255%);fill-opacity:1;stroke-width:1.791;stroke-linecap:butt;stroke-linejoin:miter;stroke:rgb(0%,0%,0%);stroke-opacity:1;stroke-miterlimit:4;" d="M -304.7872 60.333892 C -307.521717 60.277933 -310.300103 60.865503 -312.84452 62.20852 C -314.014367 62.83806 -314.453059 64.265016 -313.809643 65.398187 C -313.166228 66.545347 -311.703919 66.96504 -310.519449 66.349491 C -304.860316 63.355681 -297.358673 65.538084 -294.419433 71.693581 C -291.787278 77.177568 -293.702902 84.382297 -298.937966 88.621196 C -298.981836 86.802526 -299.201182 85.011836 -299.756859 83.291095 C -302.520622 74.617441 -311.192111 70.280615 -318.079584 72.994629 C -325.230273 75.806571 -327.116651 84.913908 -321.983948 91.055415 C -321.706109 91.391169 -321.399024 91.712934 -321.09194 92.020708 C -323.577864 90.971476 -326.268512 90.76163 -328.754436 91.656975 C -331.869153 92.790145 -333.901762 95.46219 -334.384324 98.400041 C -334.852262 101.295922 -333.84327 104.471599 -331.386591 106.919808 C -333.770154 105.926534 -336.416932 105.786637 -338.815118 106.807889 C -344.313398 109.14418 -345.55636 116.432847 -341.198681 121.04947 C -338.946726 123.455709 -335.744271 124.784737 -332.249353 124.994583 C -332.790407 125.498215 -333.360708 125.973867 -334.018747 126.337601 C -337.703764 128.422075 -342.193051 127.470771 -344.079429 124.980593 C -344.591237 124.295095 -345.439376 123.931361 -346.316761 124.0153 C -347.179523 124.113228 -347.9253 124.644839 -348.276254 125.428266 C -348.612585 126.197703 -348.510224 127.107038 -347.983792 127.778546 C -344.401137 132.493097 -337.250448 133.598288 -331.576691 130.408622 C -328.886044 128.883738 -326.92655 126.631386 -325.698211 124.085248 C -324.206657 123.581617 -322.729725 122.938088 -321.325909 122.014763 C -316.763507 119.020954 -313.868136 114.376352 -312.903012 109.479934 C -311.426081 108.878375 -309.963772 108.164897 -308.589202 107.213593 C -304.099915 104.107865 -301.08756 99.589171 -299.727613 94.734723 C -299.09882 94.440938 -298.484651 94.119173 -297.885104 93.741449 C -289.462207 88.551247 -286.025782 78.058924 -290.032508 69.707034 C -292.84014 63.817343 -298.733243 60.47379 -304.7872 60.333892 Z M -313.093112 76.967722 C -309.700557 77.303476 -305.927801 79.835624 -304.377754 84.676082 C -303.719715 86.746567 -303.631976 89.026899 -303.982931 91.30723 C -309.466587 93.041961 -315.315821 91.573036 -318.225815 88.089585 C -321.603748 84.046543 -320.375409 78.968258 -316.266322 77.359435 C -315.315821 76.981712 -314.21909 76.855804 -313.093112 76.967722 Z M -316.763507 95.042498 C -313.444066 96.637331 -309.52508 97.140962 -305.606093 96.539402 C -306.907547 99.183468 -308.837795 101.603697 -311.396834 103.380397 C -311.791658 103.646203 -312.215727 103.856049 -312.625174 104.093875 C -312.727535 103.142571 -312.917635 102.205257 -313.180851 101.281932 C -313.897382 98.777765 -315.184213 96.69329 -316.763507 95.042498 Z M -325.917558 95.825924 C -323.109925 95.588098 -319.234808 97.658583 -317.845615 102.527022 C -317.53853 103.604233 -317.436168 104.751394 -317.436168 105.926534 C -321.691486 106.77991 -325.727458 105.800626 -327.877051 103.716151 C -329.397852 102.233236 -329.836544 100.554465 -329.602575 99.141499 C -329.368606 97.728532 -328.53509 96.609351 -327.043535 96.06375 C -326.707204 95.937842 -326.327004 95.853904 -325.917558 95.825924 Z M -327.686951 109.465945 C -324.952434 110.780983 -321.720732 111.284614 -318.372046 110.90689 C -319.439531 113.732823 -321.369778 116.348909 -324.045803 118.111619 C -324.133541 118.167578 -324.206657 118.195558 -324.294395 118.251517 C -324.279772 116.824561 -324.455249 115.383615 -324.893942 114.012618 C -325.493488 112.207938 -326.487858 110.697044 -327.686951 109.465945 Z M -334.954624 110.822952 C -332.878146 110.962849 -330.509206 112.431775 -329.514836 115.453564 C -329.046898 116.89451 -329.032275 118.531312 -329.412475 120.112155 C -332.805031 120.587807 -335.948994 119.650493 -337.630648 117.873793 C -340.087327 115.271697 -339.283057 112.151979 -336.855625 111.116737 C -336.299948 110.878911 -335.641909 110.780983 -334.954624 110.822952 Z M -334.954624 110.822952 " transform="matrix(0.267129,0,0,0.279222,150.105,11.4972)"/>
<path style="fill-rule:nonzero;fill:rgb(100%,66.666667%,83.137255%);fill-opacity:1;stroke-width:4;stroke-linecap:round;stroke-linejoin:round;stroke:rgb(0%,0%,0%);stroke-opacity:1;stroke-miterlimit:4;" d="M -328.242628 131.261998 C -328.228005 191.767729 -377.273831 240.829833 -437.784156 240.829833 C -498.29448 240.829833 -547.340307 191.767729 -547.325683 131.261998 C -547.340307 70.756267 -498.29448 21.694163 -437.784156 21.694163 C -377.273831 21.694163 -328.213382 70.756267 -328.242628 131.261998 Z M -328.242628 131.261998 " transform="matrix(0.267129,0,0,0.279222,150.105,11.4972)"/>
<path style=" stroke:none;fill-rule:nonzero;fill:rgb(0%,0%,0%);fill-opacity:0.313725;" d="M 60.652344 37.652344 C 60.675781 38.125 60.6875 38.601562 60.6875 39.078125 C 60.6875 55.960938 47.582031 69.660156 31.429688 69.660156 C 18.804688 69.660156 8.03125 61.28125 3.929688 49.5625 C 4.640625 65.789062 17.46875 78.734375 33.164062 78.734375 C 49.316406 78.734375 62.425781 65.035156 62.425781 48.152344 C 62.425781 44.464844 61.800781 40.925781 60.652344 37.652344 Z M 60.652344 37.652344 "/>
<path style="fill-rule:nonzero;fill:rgb(25.490196%,14.117647%,14.117647%);fill-opacity:1;stroke-width:4;stroke-linecap:round;stroke-linejoin:round;stroke:rgb(0%,0%,0%);stroke-opacity:1;stroke-miterlimit:4;" d="M -429.595228 241.823106 C -429.595228 250.916453 -414.928274 251.210238 -396.854142 251.210238 C -378.780009 251.210238 -364.113055 251.909726 -364.113055 241.823106 C -364.113055 224.112064 -378.780009 209.730586 -396.854142 209.730586 C -414.928274 209.730586 -429.595228 224.112064 -429.595228 241.823106 Z M -429.595228 241.823106 " transform="matrix(0.267129,0,0,0.279222,150.105,11.4972)"/>
<path style="fill-rule:evenodd;fill:rgb(0%,0%,0%);fill-opacity:0.313725;stroke-width:4;stroke-linecap:butt;stroke-linejoin:round;stroke:rgb(0%,0%,0%);stroke-opacity:1;stroke-miterlimit:4;" d="M -384.263666 250.608678 C -384.263666 234.240653 -393.710178 224.168023 -393.710178 224.168023 C -393.710178 224.168023 -389.937423 238.01789 -390.566215 250.608678 Z M -384.263666 250.608678 " transform="matrix(0.267129,0,0,0.279222,150.105,11.4972)"/>
<path style="fill-rule:nonzero;fill:rgb(25.490196%,14.117647%,14.117647%);fill-opacity:1;stroke-width:4;stroke-linecap:round;stroke-linejoin:round;stroke:rgb(0%,0%,0%);stroke-opacity:1;stroke-miterlimit:4;" d="M -444.58389 241.823106 C -444.58389 250.916453 -459.250844 251.210238 -477.324977 251.210238 C -495.39911 251.210238 -510.066064 251.909726 -510.066064 241.823106 C -510.066064 224.112064 -495.39911 209.730586 -477.324977 209.730586 C -459.250844 209.730586 -444.58389 224.112064 -444.58389 241.823106 Z M -444.58389 241.823106 " transform="matrix(0.267129,0,0,0.279222,150.105,11.4972)"/>
<path style="fill-rule:evenodd;fill:rgb(0%,0%,0%);fill-opacity:0.313725;stroke-width:4;stroke-linecap:butt;stroke-linejoin:round;stroke:rgb(0%,0%,0%);stroke-opacity:1;stroke-miterlimit:4;" d="M -489.915453 250.608678 C -489.915453 234.240653 -480.483563 224.168023 -480.483563 224.168023 C -480.483563 224.168023 -484.256319 238.01789 -483.627526 250.608678 Z M -489.915453 250.608678 " transform="matrix(0.267129,0,0,0.279222,150.105,11.4972)"/>
<path style="fill-rule:nonzero;fill:rgb(100%,66.666667%,83.137255%);fill-opacity:1;stroke-width:3.782;stroke-linecap:round;stroke-linejoin:round;stroke:rgb(0%,0%,0%);stroke-opacity:1;stroke-miterlimit:4;" d="M -411.772984 11.243809 C -418.806688 17.651121 -411.246553 27.709761 -401.639187 39.838887 C -392.046443 51.968013 -384.77877 62.306449 -376.984666 55.199648 C -363.268212 42.720779 -343.892625 8.138081 -353.485369 -3.991045 C -363.092735 -16.120171 -398.056531 -1.235061 -411.772984 11.243809 Z M -411.772984 11.243809 " transform="matrix(-0.267129,0,0,0.279222,-83.750412,11.4972)"/>
<path style="fill-rule:evenodd;fill:rgb(100%,66.666667%,83.137255%);fill-opacity:1;stroke-width:3.5;stroke-linecap:round;stroke-linejoin:round;stroke:rgb(0%,0%,0%);stroke-opacity:1;stroke-miterlimit:4;" d="M -385.217462 9.439129 C -379.763052 5.452046 -365.622529 2.528185 -357.33124 1.143199 " transform="matrix(-0.267129,0,0,0.279222,-83.750412,11.4972)"/>
<path style="fill-rule:nonzero;fill:rgb(100%,66.666667%,83.137255%);fill-opacity:1;stroke-width:3.782;stroke-linecap:round;stroke-linejoin:round;stroke:rgb(0%,0%,0%);stroke-opacity:1;stroke-miterlimit:4;" d="M -411.769688 11.243809 C -418.803392 17.651121 -411.243257 27.709761 -401.63589 39.838887 C -392.043147 51.968013 -384.790097 62.306449 -376.981369 55.199648 C -363.264916 42.720779 -343.889329 8.138081 -353.496695 -3.991045 C -363.089439 -16.120171 -398.053235 -1.235061 -411.769688 11.243809 Z M -411.769688 11.243809 " transform="matrix(0.267129,0,0,0.279222,150.105,11.4972)"/>
<path style="fill-rule:evenodd;fill:rgb(100%,66.666667%,83.137255%);fill-opacity:1;stroke-width:3.5;stroke-linecap:round;stroke-linejoin:round;stroke:rgb(0%,0%,0%);stroke-opacity:1;stroke-miterlimit:4;" d="M -385.214166 9.439129 C -379.774379 5.452046 -365.619233 2.528185 -357.327944 1.143199 " transform="matrix(0.267129,0,0,0.279222,150.105,11.4972)"/>
<path style="fill-rule:nonzero;fill:rgb(100%,66.666667%,83.137255%);fill-opacity:1;stroke-width:3.031;stroke-linecap:round;stroke-linejoin:round;stroke:rgb(0%,0%,0%);stroke-opacity:1;stroke-miterlimit:4;" d="M -354.403327 76.49207 C -354.388704 122.140671 -391.721439 159.157588 -437.769533 159.157588 C -483.83225 159.157588 -521.164985 122.140671 -521.150362 76.49207 C -521.164985 30.829479 -483.83225 -6.187438 -437.769533 -6.187438 C -391.721439 -6.187438 -354.388704 30.829479 -354.403327 76.49207 Z M -354.403327 76.49207 " transform="matrix(0.267129,0,0,0.279222,150.105,11.4972)"/>
<path style="fill-rule:nonzero;fill:rgb(100%,66.666667%,83.137255%);fill-opacity:1;stroke-width:2.7;stroke-linecap:round;stroke-linejoin:round;stroke:rgb(0%,0%,0%);stroke-opacity:1;stroke-miterlimit:4;" d="M -402.308552 115.509523 C -402.308552 131.024172 -418.189222 143.61496 -437.784156 143.61496 C -457.364466 143.61496 -473.245136 131.024172 -473.245136 115.509523 C -473.245136 99.994874 -457.364466 87.404086 -437.784156 87.404086 C -418.189222 87.404086 -402.308552 99.994874 -402.308552 115.509523 Z M -402.308552 115.509523 " transform="matrix(0.267129,0,0,0.279222,150.105,11.4972)"/>
<path style="fill-rule:nonzero;fill:rgb(100%,100%,100%);fill-opacity:1;stroke-width:2.71;stroke-linecap:round;stroke-linejoin:round;stroke:rgb(0%,0%,0%);stroke-opacity:1;stroke-miterlimit:4;" d="M 142.814875 56.162858 C 142.825418 64.645476 135.951409 71.524366 127.464326 71.524366 C 118.987787 71.524366 112.113778 64.645476 112.113778 56.162858 C 112.113778 47.690326 118.987787 40.811437 127.464326 40.811437 C 135.951409 40.811437 142.825418 47.690326 142.814875 56.162858 Z M 142.814875 56.162858 " transform="matrix(0.370508,0,0,0.387281,-6.523418,5.06951)"/>
<path style=" stroke:none;fill-rule:nonzero;fill:rgb(0%,0%,0%);fill-opacity:1;" d="M 41.335938 27.871094 C 41.335938 28.964844 40.488281 29.851562 39.4375 29.851562 C 38.390625 29.851562 37.542969 28.964844 37.542969 27.871094 C 37.542969 26.777344 38.390625 25.886719 39.4375 25.886719 C 40.488281 25.886719 41.335938 26.777344 41.335938 27.871094 Z M 41.335938 27.871094 "/>
<path style="fill-rule:nonzero;fill:rgb(100%,100%,100%);fill-opacity:1;stroke-width:2.71;stroke-linecap:round;stroke-linejoin:round;stroke:rgb(0%,0%,0%);stroke-opacity:1;stroke-miterlimit:4;" d="M 107.100921 56.162858 C 107.100921 64.645476 100.226912 71.524366 91.750373 71.524366 C 83.26329 71.524366 76.389281 64.645476 76.399824 56.162858 C 76.389281 47.690326 83.26329 40.811437 91.750373 40.811437 C 100.226912 40.811437 107.100921 47.690326 107.100921 56.162858 Z M 107.100921 56.162858 " transform="matrix(0.370508,0,0,0.387281,-8.834084,5.06951)"/>
<path style=" stroke:none;fill-rule:nonzero;fill:rgb(0%,0%,0%);fill-opacity:1;" d="M 28.476562 27.871094 C 28.476562 28.964844 27.628906 29.851562 26.582031 29.851562 C 25.53125 29.851562 24.683594 28.964844 24.683594 27.871094 C 24.683594 26.777344 25.53125 25.886719 26.582031 25.886719 C 27.628906 25.886719 28.476562 26.777344 28.476562 27.871094 Z M 28.476562 27.871094 "/>
<path style=" stroke:none;fill-rule:nonzero;fill:rgb(0%,0%,0%);fill-opacity:0.313725;" d="M 54.207031 25.53125 L 53.679688 26.320312 C 53.746094 27.230469 53.773438 28.160156 53.773438 29.101562 C 53.773438 42.5 40.152344 53.617188 30.738281 52.160156 C 22.898438 50.945312 15.519531 47.773438 11.308594 38.035156 C 13.453125 49.972656 25.421875 57.371094 32.09375 57.304688 C 46.882812 57.152344 55.128906 46.882812 55.128906 33.484375 C 55.128906 30.699219 54.828125 28.023438 54.207031 25.53125 Z M 54.207031 25.53125 "/>
<path style=" stroke:none;fill-rule:nonzero;fill:rgb(0%,0%,0%);fill-opacity:1;" d="M 39.199219 43.320312 C 39.199219 44.414062 38.351562 45.300781 37.300781 45.300781 C 36.253906 45.300781 35.40625 44.414062 35.40625 43.320312 C 35.40625 42.226562 36.253906 41.335938 37.300781 41.335938 C 38.351562 41.335938 39.199219 42.226562 39.199219 43.320312 Z M 39.199219 43.320312 "/>
<path style=" stroke:none;fill-rule:nonzero;fill:rgb(0%,0%,0%);fill-opacity:1;" d="M 30.617188 43.320312 C 30.617188 44.414062 29.765625 45.300781 28.71875 45.300781 C 27.671875 45.300781 26.824219 44.414062 26.824219 43.320312 C 26.824219 42.226562 27.671875 41.335938 28.71875 41.335938 C 29.765625 41.335938 30.617188 42.226562 30.617188 43.320312 Z M 30.617188 43.320312 "/>
</g>
</svg>
