<?xml version="1.0" encoding="UTF-8"?>
<svg xmlns="http://www.w3.org/2000/svg" xmlns:xlink="http://www.w3.org/1999/xlink" width="75px" height="px" viewBox="0 0 75 75" version="1.1">
<g id="surface1">
<rect x="0" y="0" width="75" height="75" style="fill:rgb(100%,100%,100%);fill-opacity:1;stroke:none;"/>
<path style="fill-rule:evenodd;fill:rgb(100%,45.490196%,0%);fill-opacity:1;stroke-width:2.918;stroke-linecap:round;stroke-linejoin:miter;stroke:rgb(0%,0%,0%);stroke-opacity:1;stroke-miterlimit:4;" d="M 70.325229 245.578664 C 65.38288 246.070848 66.100648 252.182134 66.326233 255.791485 C 66.26471 265.348059 66.34674 274.904634 66.449279 284.481717 C 58.676871 283.456333 50.904464 281.344043 43.152564 280.687798 C 38.804938 281.220997 37.923108 288.193606 42.619364 288.952389 C 45.633992 289.998281 56.338997 290.18285 54.226707 291.741433 C 47.582221 294.776568 40.199459 296.663274 33.842081 300.088055 C 30.4173 303.451313 35.154572 309.439553 39.297122 306.814571 C 47.438667 303.697405 55.51869 300.39567 63.639728 297.216981 C 62.860436 301.646638 58.963979 305.789188 59.784286 310.321383 C 61.547945 314.915102 69.197307 313.930733 69.361368 308.619246 C 71.391628 303.328267 73.237318 297.93475 75.24707 292.623263 C 82.527293 289.38305 90.443254 287.147714 97.497893 283.640902 C 101.045721 280.913382 98.092616 274.781588 93.703974 276.278648 C 87.674719 278.431954 81.727494 280.954398 75.800777 283.271764 C 75.636716 272.095083 75.636716 260.877387 75.677731 249.741721 C 75.329101 247.157755 72.86818 245.35308 70.325229 245.578664 Z M 70.325229 245.578664 " transform="matrix(0.190477,0,0,0.190477,15.13197,8.902477)"/>
<path style="fill-rule:nonzero;fill:rgb(24.705882%,24.705882%,24.705882%);fill-opacity:1;stroke-width:4.137;stroke-linecap:round;stroke-linejoin:round;stroke:rgb(0%,0%,0%);stroke-opacity:1;stroke-miterlimit:4;" d="M 205.429769 112.750476 C 208.218812 104.362838 206.865306 99.399982 205.060631 98.210537 C 201.020619 94.908802 195.934717 95.052355 191.197445 94.12951 C 188.346878 94.252556 185.065651 93.493772 181.005132 101.450749 C 177.641874 109.141126 175.38603 118.718208 173.519832 127.167369 C 169.828451 144.434828 169.889974 160.061674 174.709277 162.194472 C 180.75904 165.332146 191.464044 149.377177 199.503052 129.36169 C 201.635849 124.111726 203.645601 118.492624 205.429769 112.750476 Z M 205.429769 112.750476 " transform="matrix(0.190477,0,0,0.190477,15.13197,8.902478)"/>
<path style="fill-rule:nonzero;fill:rgb(24.705882%,24.705882%,24.705882%);fill-opacity:1;stroke-width:4.137;stroke-linecap:round;stroke-linejoin:round;stroke:rgb(0%,0%,0%);stroke-opacity:1;stroke-miterlimit:4;" d="M 220.851538 124.378326 C 225.732363 116.995564 225.732363 111.848138 224.296826 110.24854 C 221.261691 105.982944 216.298835 104.814007 211.971716 102.681209 C 209.182672 102.045471 206.229568 100.466381 200.22082 107.090358 C 194.970856 113.632306 190.295107 122.286543 186.296111 129.956412 C 178.216089 145.644781 174.196585 160.779442 178.318627 164.081178 C 183.322499 168.695404 197.821422 156.083186 210.802779 138.856742 C 214.22756 134.345054 217.631833 129.44372 220.851538 124.378326 Z M 220.851538 124.378326 " transform="matrix(0.190477,0,0,0.190477,15.13197,8.902478)"/>
<path style="fill-rule:nonzero;fill:rgb(24.705882%,24.705882%,24.705882%);fill-opacity:1;stroke-width:4.137;stroke-linecap:round;stroke-linejoin:round;stroke:rgb(0%,0%,0%);stroke-opacity:1;stroke-miterlimit:4;" d="M 234.325078 137.052167 C 240.641441 130.85885 241.687332 125.83447 240.620933 123.947764 C 238.549658 119.169477 233.95594 116.975156 230.16202 114.001544 C 227.578054 112.791591 224.994087 110.638286 217.734372 115.867742 C 211.253947 121.179229 204.876061 128.644021 199.359498 135.329522 C 188.182817 148.987631 181.10767 162.932848 184.429913 167.034382 C 188.367386 172.591961 205.183677 163.281478 221.466768 149.131185 C 225.773379 145.439804 230.121005 141.358778 234.325078 137.052167 Z M 234.325078 137.052167 " transform="matrix(0.190477,0,0,0.190477,15.13197,8.902458)"/>
<path style="fill-rule:evenodd;fill:rgb(100%,45.490196%,0%);fill-opacity:1;stroke-width:2.918;stroke-linecap:round;stroke-linejoin:miter;stroke:rgb(0%,0%,0%);stroke-opacity:1;stroke-miterlimit:4;" d="M 146.080567 244.020081 C 140.522988 244.758357 141.445833 251.464366 141.855987 255.504377 C 141.507357 264.19963 141.814972 272.976913 141.589387 281.713181 C 134.965409 279.621399 128.628539 275.478849 121.717454 274.638035 C 116.46749 275.273772 117.903027 283.333287 122.701822 283.353795 C 129.120723 286.327407 136.790592 288.07056 142.430202 291.823463 C 145.198737 298.037288 146.347167 305.255988 150.120579 310.87509 C 153.586375 313.766672 159.964261 309.419046 157.257248 305.255988 C 156.27288 301.318515 150.674286 292.602755 158.241616 297.442565 C 165.726917 300.04704 172.904602 303.943497 180.574471 305.789188 C 185.59885 305.850711 186.111542 297.647642 181.046147 297.278504 C 174.565723 294.715045 168.105806 292.151586 161.64589 289.588127 C 166.608746 288.029544 172.843079 289.198481 177.108674 286.019792 C 180.082287 282.656534 175.324507 277.488601 171.551095 279.416322 C 164.681025 280.585259 157.810955 281.754197 150.920378 282.923134 C 150.858855 270.8031 151.576623 258.539513 150.694793 246.542525 C 149.894994 244.840388 147.926258 243.835512 146.080567 244.020081 Z M 146.080567 244.020081 " transform="matrix(0.190477,0,0,0.190477,15.13197,8.902478)"/>
<path style="fill-rule:nonzero;fill:rgb(49.803922%,0%,0%);fill-opacity:1;stroke-width:4;stroke-linecap:round;stroke-linejoin:round;stroke:rgb(0%,0%,0%);stroke-opacity:1;stroke-miterlimit:4;" d="M 203.850678 181.963867 C 203.871186 231.120756 164.02478 270.987669 114.867891 270.987669 C 65.711003 270.987669 25.864597 231.120756 25.885105 181.963867 C 25.864597 132.806979 65.711003 92.960573 114.867891 92.960573 C 164.02478 92.960573 203.871186 132.806979 203.850678 181.963867 Z M 203.850678 181.963867 " transform="matrix(0.190477,0,0,0.190477,15.13197,8.902478)"/>
<path style=" stroke:none;fill-rule:nonzero;fill:rgb(0%,0%,0%);fill-opacity:0.309804;" d="M 52.9375 38.128906 C 52.949219 38.390625 52.957031 38.65625 52.957031 38.917969 C 52.957031 48.273438 45.363281 55.867188 36.007812 55.867188 C 28.695312 55.867188 22.453125 51.226562 20.078125 44.730469 C 20.488281 53.722656 27.917969 60.898438 37.011719 60.898438 C 46.371094 60.898438 53.964844 53.304688 53.964844 43.945312 C 53.964844 41.902344 53.601562 39.945312 52.9375 38.128906 Z M 52.9375 38.128906 "/>
<path style="fill-rule:evenodd;fill:rgb(100%,0%,0%);fill-opacity:1;stroke-width:2.7;stroke-linecap:round;stroke-linejoin:round;stroke:rgb(0%,0%,0%);stroke-opacity:1;stroke-miterlimit:4;" d="M 112.878647 39.558496 L 108.879651 77.66175 C 117.472366 69.171574 126.577772 61.296628 138.636283 57.953878 C 172.207341 48.622887 129.141231 18.004933 112.878647 39.558496 Z M 112.878647 39.558496 " transform="matrix(0.190477,0,0,0.190477,15.13197,8.902497)"/>
<path style="fill-rule:evenodd;fill:rgb(100%,0%,0%);fill-opacity:1;stroke-width:2.94;stroke-linecap:round;stroke-linejoin:round;stroke:rgb(0%,0%,0%);stroke-opacity:1;stroke-miterlimit:4;" d="M 100.245921 16.938634 L 107.464622 77.374742 C 113.124739 60.517436 119.441102 44.398407 129.817984 33.960002 C 158.795324 4.880124 109.351328 -23.379448 100.245921 16.938634 Z M 100.245921 16.938634 " transform="matrix(0.190477,0,0,0.190477,15.13197,8.902478)"/>
<path style="fill-rule:nonzero;fill:rgb(49.803922%,24.705882%,0%);fill-opacity:1;stroke-width:2.716;stroke-linecap:round;stroke-linejoin:round;stroke:rgb(0%,0%,0%);stroke-opacity:1;stroke-miterlimit:4;" d="M 167.675145 108.689957 C 167.675145 142.055938 140.625527 169.126065 107.259545 169.126065 C 73.873056 169.126065 46.823437 142.055938 46.843945 108.689957 C 46.823437 75.323975 73.873056 48.253849 107.259545 48.253849 C 140.625527 48.253849 167.675145 75.323975 167.675145 108.689957 Z M 167.675145 108.689957 " transform="matrix(0.190477,0,0,0.190477,15.13197,8.902478)"/>
<path style="fill-rule:nonzero;fill:rgb(100%,100%,100%);fill-opacity:1;stroke-width:2.71;stroke-linecap:round;stroke-linejoin:round;stroke:rgb(0%,0%,0%);stroke-opacity:1;stroke-miterlimit:4;" d="M 148.767072 98.456629 C 148.767072 108.013204 141.015172 115.765103 131.458597 115.765103 C 121.902023 115.765103 114.150123 108.013204 114.17063 98.456629 C 114.150123 88.900054 121.902023 81.148154 131.458597 81.148154 C 141.015172 81.148154 148.767072 88.900054 148.767072 98.456629 Z M 148.767072 98.456629 " transform="matrix(0.190477,0,0,0.190477,15.13197,8.902478)"/>
<path style=" stroke:none;fill-rule:nonzero;fill:rgb(0%,0%,0%);fill-opacity:1;" d="M 40.539062 28.238281 C 40.539062 28.84375 40.046875 29.335938 39.441406 29.335938 C 38.832031 29.335938 38.339844 28.84375 38.339844 28.238281 C 38.339844 27.632812 38.832031 27.140625 39.441406 27.140625 C 40.046875 27.140625 40.539062 27.632812 40.539062 28.238281 Z M 40.539062 28.238281 "/>
<path style="fill-rule:nonzero;fill:rgb(100%,100%,100%);fill-opacity:1;stroke-width:2.71;stroke-linecap:round;stroke-linejoin:round;stroke:rgb(0%,0%,0%);stroke-opacity:1;stroke-miterlimit:4;" d="M 101.476382 98.456629 C 101.476382 108.013204 93.74499 115.765103 84.188415 115.765103 C 74.63184 115.765103 66.87994 108.013204 66.87994 98.456629 C 66.87994 88.900054 74.63184 81.148154 84.188415 81.148154 C 93.74499 81.148154 101.476382 88.900054 101.476382 98.456629 Z M 101.476382 98.456629 " transform="matrix(0.190477,0,0,0.190477,15.13197,8.902478)"/>
<path style=" stroke:none;fill-rule:nonzero;fill:rgb(0%,0%,0%);fill-opacity:1;" d="M 33.089844 28.238281 C 33.089844 28.84375 32.597656 29.335938 31.992188 29.335938 C 31.382812 29.335938 30.890625 28.84375 30.890625 28.238281 C 30.890625 27.632812 31.382812 27.140625 31.992188 27.140625 C 32.597656 27.140625 33.089844 27.632812 33.089844 28.238281 Z M 33.089844 28.238281 "/>
<path style=" stroke:none;fill-rule:nonzero;fill:rgb(0%,0%,0%);fill-opacity:0.309804;" d="M 46.816406 25.703125 L 46.546875 26.113281 C 46.582031 26.589844 46.59375 27.074219 46.59375 27.566406 C 46.59375 34.554688 39.625 40.355469 34.804688 39.597656 C 30.792969 38.964844 26.003906 36.554688 23.851562 31.472656 C 24.945312 37.699219 32.085938 42.316406 35.5 42.28125 C 43.070312 42.199219 47.289062 36.84375 47.289062 29.851562 C 47.289062 28.398438 47.132812 27.003906 46.816406 25.703125 Z M 46.816406 25.703125 "/>
<path style="fill-rule:evenodd;fill:rgb(100%,0%,0%);fill-opacity:1;stroke-width:3.062;stroke-linecap:round;stroke-linejoin:round;stroke:rgb(0%,0%,0%);stroke-opacity:1;stroke-miterlimit:4;" d="M 84.352476 5.987538 L 106.541777 77.969465 C 107.587668 56.887579 109.412851 36.605491 116.54952 22.639767 C 136.421454 -16.263286 82.670847 -43.866612 84.352476 5.987538 Z M 84.352476 5.987538 " transform="matrix(0.190477,0,0,0.190477,15.13197,8.902478)"/>
<path style="fill-rule:evenodd;fill:rgb(100%,0%,0%);fill-opacity:1;stroke-width:3.062;stroke-linecap:round;stroke-linejoin:round;stroke:rgb(0%,0%,0%);stroke-opacity:1;stroke-miterlimit:4;" d="M 116.426474 205.055505 L 107.792745 143.081322 C 105.065224 159.548982 101.84552 175.196336 95.549665 184.67088 C 77.954083 211.084761 112.858139 244.922419 116.426474 205.055505 Z M 116.426474 205.055505 " transform="matrix(0.190477,0,0,0.190477,15.13197,8.902478)"/>
<path style="fill-rule:evenodd;fill:rgb(100%,80.784314%,0%);fill-opacity:1;stroke-width:3.099;stroke-linecap:round;stroke-linejoin:round;stroke:rgb(0%,0%,0%);stroke-opacity:1;stroke-miterlimit:4;" d="M 87.756749 132.909517 L 105.024209 171.463939 L 125.983049 137.769835 C 119.441102 122.060959 98.420739 119.559023 87.756749 132.909517 Z M 87.756749 132.909517 " transform="matrix(0.190477,0,0,0.190477,15.13197,8.902477)"/>
</g>
</svg>
