<?xml version="1.0" encoding="UTF-8"?>
<svg xmlns="http://www.w3.org/2000/svg" xmlns:xlink="http://www.w3.org/1999/xlink" width="75px" height="px" viewBox="0 0 75 78" version="1.1">
<g id="surface1">
<path style="fill-rule:nonzero;fill:rgb(100%,100%,100%);fill-opacity:1;stroke-width:4;stroke-linecap:round;stroke-linejoin:round;stroke:rgb(0%,0%,0%);stroke-opacity:1;stroke-miterlimit:4;" d="M 471.304978 550.709816 C 471.330403 617.015541 417.583384 670.77522 351.264038 670.77522 C 284.957404 670.77522 231.210385 617.015541 231.235809 550.709816 C 231.210385 484.404092 284.957404 430.644413 351.264038 430.644413 C 417.583384 430.644413 471.330403 484.404092 471.304978 550.709816 Z M 471.304978 550.709816 " transform="matrix(0.307284,0,0,0.306994,-70.441896,-131.580311)"/>
<path style=" stroke:none;fill-rule:nonzero;fill:rgb(0%,0%,0%);fill-opacity:0.313725;" d="M 37.546875 19.339844 C 20.546875 19.683594 13.214844 30.800781 13.214844 44.453125 C 13.214844 50.546875 16.539062 56.144531 20.945312 60.496094 C 11.5625 56.523438 4.167969 48.785156 0.652344 39.1875 C 1.546875 58.738281 17.710938 74.335938 37.5 74.335938 C 57.859375 74.335938 74.382812 57.832031 74.382812 37.488281 C 74.382812 33.046875 73.597656 28.789062 72.15625 24.84375 C 72.179688 25.410156 72.203125 25.980469 72.203125 26.550781 C 72.203125 36.542969 68.210938 45.605469 61.746094 52.246094 C 62.855469 49.792969 63.511719 47.171875 63.511719 44.453125 C 63.511719 30.585938 55.949219 19.339844 38.363281 19.339844 C 38.089844 19.339844 37.816406 19.332031 37.546875 19.339844 Z M 37.546875 19.339844 "/>
<path style="fill-rule:nonzero;fill:rgb(20%,20%,20%);fill-opacity:1;stroke-width:4;stroke-linecap:round;stroke-linejoin:round;stroke:rgb(0%,0%,0%);stroke-opacity:1;stroke-miterlimit:4;" d="M 359.45067 671.284187 C 359.45067 680.369255 374.120504 680.661911 392.184486 680.661911 C 410.261179 680.661911 424.918301 681.349017 424.918301 671.284187 C 424.918301 653.559398 410.261179 639.18107 392.184486 639.18107 C 374.120504 639.18107 359.45067 653.559398 359.45067 671.284187 Z M 359.45067 671.284187 " transform="matrix(0.307284,0,0,0.306994,-70.441896,-131.580311)"/>
<path style="fill-rule:nonzero;fill:rgb(20%,20%,20%);fill-opacity:1;stroke-width:4;stroke-linecap:round;stroke-linejoin:round;stroke:rgb(0%,0%,0%);stroke-opacity:1;stroke-miterlimit:4;" d="M 344.463031 671.284187 C 344.463031 680.369255 329.793197 680.661911 311.729216 680.661911 C 293.652522 680.661911 278.9954 681.349017 278.9954 671.284187 C 278.9954 653.559398 293.652522 639.18107 311.729216 639.18107 C 329.793197 639.18107 344.463031 653.559398 344.463031 671.284187 Z M 344.463031 671.284187 " transform="matrix(0.307284,0,0,0.306994,-70.441896,-131.580311)"/>
<path style="fill-rule:evenodd;fill:rgb(0%,0%,0%);fill-opacity:0.313725;stroke-width:4;stroke-linecap:butt;stroke-linejoin:round;stroke:rgb(0%,0%,0%);stroke-opacity:1;stroke-miterlimit:4;" d="M 299.131464 680.063874 C 299.131464 663.687849 308.5766 653.623019 308.5766 653.623019 C 308.5766 653.623019 304.801088 667.466932 305.423984 680.063874 Z M 299.131464 680.063874 " transform="matrix(0.307284,0,0,0.306994,-70.441896,-131.580311)"/>
<path style="fill-rule:evenodd;fill:rgb(26.666667%,66.666667%,0%);fill-opacity:1;stroke-width:4;stroke-linecap:butt;stroke-linejoin:round;stroke:rgb(0%,0%,0%);stroke-opacity:1;stroke-miterlimit:4;" d="M 353.04374 623.657565 C 306.644351 620.311105 274.546143 635.096607 274.546143 635.096607 C 274.546143 635.096607 284.792146 634.854847 290.563467 635.770989 C 279.732705 643.176464 276.186012 657.885621 276.186012 657.885621 C 276.186012 657.885621 288.262566 644.945125 300.644211 640.338971 C 290.131253 654.322849 288.732916 677.302726 288.732916 677.302726 C 288.732916 677.302726 300.822181 641.573217 323.411692 634.180466 C 340.636671 628.543652 358.840486 631.85194 358.840486 631.85194 C 358.840486 631.85194 394.955737 629.358 407.337382 650.925492 C 408.964539 651.701667 408.799281 637.832306 398.553278 632.882599 L 426.176805 631.45749 C 406.028029 622.970459 353.04374 623.657565 353.04374 623.657565 Z M 353.04374 623.657565 " transform="matrix(0.307284,0,0,0.306994,-70.441896,-131.580311)"/>
<path style="fill-rule:nonzero;fill:rgb(20%,20%,20%);fill-opacity:1;stroke-width:4;stroke-linecap:round;stroke-linejoin:round;stroke:rgb(0%,0%,0%);stroke-opacity:1;stroke-miterlimit:4;" d="M 348.607196 478.411001 C 318.479373 479.021762 297.682277 490.066354 284.982828 507.154934 C 260.918706 504.571924 240.922476 530.783744 240.922476 530.783744 C 240.922476 530.783744 259.812748 540.225089 272.982548 532.310646 C 270.579949 541.026712 269.423142 550.41716 269.423142 560.227506 C 269.423142 605.398361 325.547335 642.06946 351.264038 642.06946 C 377.985001 642.06946 433.104933 605.398361 433.104933 560.227506 C 433.104933 550.41716 431.948127 541.026712 429.545528 532.310646 C 442.715327 540.225089 461.580175 530.783744 461.580175 530.783744 C 461.580175 530.783744 441.609369 504.584648 417.545248 507.154934 C 404.489858 489.570111 382.841047 478.411001 351.264038 478.411001 C 350.374187 478.411001 349.484335 478.398277 348.607196 478.411001 Z M 348.607196 478.411001 " transform="matrix(0.307284,0,0,0.306994,-70.441896,-131.580311)"/>
<path style="fill-rule:evenodd;fill:rgb(0%,0%,0%);fill-opacity:0.313725;stroke-width:4;stroke-linecap:butt;stroke-linejoin:round;stroke:rgb(0%,0%,0%);stroke-opacity:1;stroke-miterlimit:4;" d="M 404.782238 680.063874 C 404.782238 663.687849 395.337102 653.623019 395.337102 653.623019 C 395.337102 653.623019 399.112614 667.466932 398.489718 680.063874 Z M 404.782238 680.063874 " transform="matrix(0.307284,0,0,0.306994,-70.441896,-131.580311)"/>
<path style="fill-rule:nonzero;fill:rgb(100%,100%,100%);fill-opacity:1;stroke-width:4;stroke-linecap:round;stroke-linejoin:round;stroke:rgb(0%,0%,0%);stroke-opacity:1;stroke-miterlimit:4;" d="M 347.641072 548.241325 C 347.641072 560.761922 337.496767 570.915821 324.975288 570.915821 C 312.453809 570.915821 302.309504 560.761922 302.309504 548.241325 C 302.322216 535.720727 312.453809 525.566828 324.975288 525.566828 C 337.496767 525.566828 347.641072 535.720727 347.641072 548.241325 Z M 347.641072 548.241325 " transform="matrix(0.307284,0,0,0.306994,-70.441896,-131.580311)"/>
<path style="fill-rule:nonzero;fill:rgb(100%,100%,100%);fill-opacity:1;stroke-width:4;stroke-linecap:round;stroke-linejoin:round;stroke:rgb(0%,0%,0%);stroke-opacity:1;stroke-miterlimit:4;" d="M 400.38383 548.241325 C 400.38383 560.761922 390.239525 570.915821 377.718046 570.915821 C 365.196567 570.915821 355.052262 560.761922 355.052262 548.241325 C 355.052262 535.720727 365.196567 525.566828 377.718046 525.566828 C 390.239525 525.566828 400.38383 535.720727 400.38383 548.241325 Z M 400.38383 548.241325 " transform="matrix(0.307284,0,0,0.306994,-70.441896,-131.580311)"/>
<path style=" stroke:none;fill-rule:nonzero;fill:rgb(0%,0%,0%);fill-opacity:1;" d="M 46.398438 37.953125 C 46.398438 39.234375 45.359375 40.273438 44.074219 40.273438 C 42.792969 40.273438 41.753906 39.234375 41.753906 37.953125 C 41.753906 36.671875 42.792969 35.632812 44.074219 35.632812 C 45.359375 35.632812 46.398438 36.671875 46.398438 37.953125 Z M 46.398438 37.953125 "/>
<path style=" stroke:none;fill-rule:nonzero;fill:rgb(0%,0%,0%);fill-opacity:1;" d="M 33.480469 37.953125 C 33.480469 39.234375 32.441406 40.273438 31.160156 40.273438 C 29.878906 40.273438 28.839844 39.234375 28.839844 37.953125 C 28.839844 36.671875 29.878906 35.632812 31.160156 35.632812 C 32.441406 35.632812 33.480469 36.671875 33.480469 37.953125 Z M 33.480469 37.953125 "/>
<path style=" stroke:none;fill-rule:nonzero;fill:rgb(0%,0%,0%);fill-opacity:0.313725;" d="M 61.636719 32.171875 L 61.0625 32.988281 C 61.136719 33.933594 61.167969 34.894531 61.167969 35.867188 C 61.167969 49.734375 44.226562 60.992188 36.019531 60.992188 C 29.65625 60.992188 17.242188 53.699219 12.644531 43.617188 C 14.984375 55.972656 30.214844 65.53125 37.496094 65.53125 C 45.707031 65.53125 62.648438 54.273438 62.648438 40.40625 C 62.648438 37.519531 62.316406 34.753906 61.636719 32.171875 Z M 61.636719 32.171875 "/>
<path style=" stroke:none;fill-rule:nonzero;fill:rgb(0%,0%,0%);fill-opacity:1;" d="M 42.597656 56.566406 C 41.894531 57.785156 40.601562 58.359375 39.710938 57.847656 C 38.820312 57.332031 38.671875 55.929688 39.375 54.707031 C 40.082031 53.488281 41.375 52.914062 42.265625 53.429688 C 43.152344 53.941406 43.304688 55.347656 42.597656 56.566406 Z M 42.597656 56.566406 "/>
<path style=" stroke:none;fill-rule:nonzero;fill:rgb(0%,0%,0%);fill-opacity:1;" d="M 32.539062 56.566406 C 33.242188 57.785156 34.535156 58.359375 35.425781 57.847656 C 36.316406 57.332031 36.464844 55.929688 35.761719 54.707031 C 35.054688 53.488281 33.761719 52.914062 32.875 53.429688 C 31.984375 53.941406 31.832031 55.347656 32.539062 56.566406 Z M 32.539062 56.566406 "/>
<path style="fill-rule:nonzero;fill:rgb(100%,100%,0%);fill-opacity:1;stroke-width:4;stroke-linecap:round;stroke-linejoin:round;stroke:rgb(0%,0%,0%);stroke-opacity:1;stroke-miterlimit:4;" d="M 276.135164 641.013353 C 272.842714 640.6698 269.855356 643.061946 269.512128 646.35751 C 269.461279 646.879202 269.499415 647.400893 269.575688 647.897136 C 266.791725 648.177068 264.478112 650.391076 264.17302 653.279466 C 263.829791 656.57503 266.245102 659.527041 269.550264 659.870594 C 270.300282 659.946939 271.012163 659.870594 271.698619 659.692455 C 271.533361 662.860777 273.872399 665.660098 277.075864 666.003651 C 280.368313 666.347203 283.317535 663.929608 283.673475 660.621321 C 283.749748 659.806973 283.673475 658.992625 283.444656 658.241898 C 286.012513 657.796552 288.11002 655.684337 288.402399 652.948637 C 288.745628 649.653074 286.330317 646.701063 283.025155 646.35751 C 282.503957 646.306613 281.982758 646.306613 281.486984 646.382958 C 281.207316 643.596362 279.020824 641.318733 276.135164 641.013353 Z M 276.427543 652.923189 C 276.46568 653.330363 276.529241 653.724813 276.656362 654.106538 C 276.478392 654.144711 276.300422 654.170159 276.135164 654.208332 C 276.160588 653.788434 276.147876 653.355811 276.084315 652.948637 C 276.198724 652.935913 276.313134 652.935913 276.427543 652.923189 Z M 276.427543 652.923189 " transform="matrix(0.307284,0,0,0.306994,-70.441896,-131.580311)"/>
</g>
</svg>
