<?xml version="1.0" encoding="UTF-8"?>
<svg xmlns="http://www.w3.org/2000/svg" xmlns:xlink="http://www.w3.org/1999/xlink" width="75px" height="px" viewBox="0 0 75 99" version="1.1">
<g id="surface1">
<path style="fill-rule:nonzero;fill:rgb(49.803922%,49.803922%,49.803922%);fill-opacity:1;stroke-width:4;stroke-linecap:round;stroke-linejoin:round;stroke:rgb(0%,0%,0%);stroke-opacity:1;stroke-miterlimit:4;" d="M 420.871481 248.058052 C 419.483775 326.919161 366.552694 361.217203 365.67161 327.894671 C 364.592283 285.79255 346.463994 176.55761 275.250433 210.035336 C 190.115756 250.097755 266.858115 494.108258 242.209808 494.108258 C 143.594556 494.108258 63.548135 383.875637 63.548135 248.058052 C 63.548135 112.240467 143.594556 1.985676 242.209808 1.985676 C 340.82506 1.985676 423.228379 113.94761 420.871481 248.058052 Z M 420.871481 248.058052 " transform="matrix(0.177339,0,0,0.17619,0,0.00561267)"/>
<path style=" stroke:none;fill-rule:nonzero;fill:rgb(0%,0%,0%);fill-opacity:0.313725;" d="M 66.078125 13.972656 C 70.136719 21.261719 72.148438 30.40625 72.332031 40.007812 C 72.5 48.878906 70.066406 57.253906 65.558594 59.625 C 67.664062 60.296875 74.390625 57.605469 74.636719 43.707031 C 74.839844 32.289062 71.527344 21.78125 66.078125 13.96875 Z M 50.8125 32.207031 C 49.515625 32.230469 48.085938 32.574219 46.507812 33.3125 C 31.40625 40.371094 45.019531 83.363281 40.648438 83.363281 C 31.640625 83.363281 23.507812 78.210938 17.738281 69.945312 C 23.527344 80.34375 32.667969 87.0625 42.953125 87.0625 C 47.324219 87.0625 33.710938 44.070312 48.8125 37.011719 C 53.492188 34.824219 56.882812 36.09375 59.300781 38.933594 C 57.496094 35.066406 54.785156 32.132812 50.8125 32.207031 Z M 50.8125 32.207031 "/>
<path style="fill-rule:nonzero;fill:rgb(49.803922%,49.803922%,49.803922%);fill-opacity:1;stroke-width:2.977;stroke-linecap:round;stroke-linejoin:round;stroke:rgb(0%,0%,0%);stroke-opacity:1;stroke-miterlimit:4;" d="M 328.29165 389.440478 C 328.29165 479.630804 255.249842 552.749706 165.159071 552.749706 C 75.046273 552.749706 2.004465 479.630804 2.004465 389.440478 C 2.004465 299.250152 75.046273 226.13125 165.159071 226.13125 C 255.249842 226.13125 328.29165 299.250152 328.29165 389.440478 Z M 328.29165 389.440478 " transform="matrix(0.177339,0,0,0.17619,0,0.00561267)"/>
<path style=" stroke:none;fill-rule:nonzero;fill:rgb(0%,0%,0%);fill-opacity:0.313725;" d="M 29.289062 39.847656 C 26.210938 39.847656 23.246094 40.332031 20.460938 41.21875 C 22.964844 40.636719 25.605469 40.324219 28.335938 40.324219 C 35.820312 40.324219 42.648438 42.660156 47.789062 46.5 C 42.769531 42.347656 36.320312 39.847656 29.289062 39.847656 Z M 56.6875 59.355469 C 57.066406 60.890625 57.269531 62.476562 57.269531 64.105469 C 57.269531 77.234375 44.304688 87.890625 28.332031 87.890625 C 14.976562 87.890625 3.730469 80.441406 0.40625 70.320312 C 1.292969 85.414062 13.890625 97.390625 29.285156 97.390625 C 45.257812 97.390625 58.222656 84.5 58.222656 68.621094 C 58.222656 65.378906 57.683594 62.261719 56.6875 59.355469 Z M 56.6875 59.355469 "/>
<path style=" stroke:none;fill-rule:nonzero;fill:rgb(0%,0%,0%);fill-opacity:0.313725;" d="M 29.289062 39.847656 C 24.351562 39.847656 19.707031 41.078125 15.640625 43.246094 C 17.566406 49.933594 23.191406 56.121094 29.839844 56.121094 C 36.308594 56.121094 41.824219 50.261719 43.886719 43.777344 C 39.601562 41.28125 34.609375 39.847656 29.289062 39.847656 Z M 29.289062 39.847656 "/>
<path style="fill-rule:evenodd;fill:rgb(49.803922%,49.803922%,49.803922%);fill-opacity:1;stroke-width:4;stroke-linecap:butt;stroke-linejoin:round;stroke:rgb(0%,0%,0%);stroke-opacity:1;stroke-miterlimit:4;" d="M 276.946519 90.114129 C 257.122144 90.136299 216.90069 100.667372 209.852023 127.98165 C 209.741887 128.203357 209.521617 128.95716 209.301346 130.132206 C 196.547665 122.350297 181.569248 117.805308 165.555558 117.805308 C 148.859029 117.805308 133.307908 122.74937 120.223821 131.174228 C 119.937469 129.467086 119.62909 128.269869 119.496927 127.98165 C 112.44826 100.667372 72.204779 90.15847 52.402431 90.136299 C 49.230531 90.136299 46.631335 90.402348 44.714979 90.912273 C 34.075898 92.397709 22.445598 96.632309 23.304654 98.96023 C 31.102242 97.629989 35.04509 99.159766 34.912927 100.401324 C 34.670629 102.773587 29.97886 103.394366 31.498729 111.907907 C 34.340223 107.784161 38.305098 106.365237 41.432944 105.700117 C 44.626871 125.786753 58.636096 160.860768 84.826298 162.678764 C 87.07306 162.833959 89.18766 162.833959 91.170098 162.789617 C 84.980487 174.517907 81.478181 187.864656 81.478181 202.031721 C 81.478181 248.501466 119.122467 302.354047 165.555558 302.354047 C 211.98865 302.354047 249.699017 248.501466 249.699017 202.031721 C 249.699017 187.886827 246.174683 174.540078 240.0071 162.833959 C 241.43886 162.833959 242.958729 162.789617 244.500625 162.678764 C 270.624746 160.860768 284.611944 126.008459 287.871952 105.877482 C 290.845608 106.631285 294.413996 108.116721 297.035219 111.907907 C 298.53306 103.394366 293.841292 102.773587 293.598994 100.401324 C 293.466831 99.159766 297.409679 97.629989 305.229294 98.96023 C 306.022269 96.765333 295.625485 92.841122 285.493027 91.156151 C 283.576671 90.49103 280.603015 90.114129 276.946519 90.114129 Z M 276.946519 90.114129 " transform="matrix(0.177339,0,0,0.17619,0,0.00561267)"/>
<path style=" stroke:none;fill-rule:nonzero;fill:rgb(0%,0%,0%);fill-opacity:0.313725;" d="M 35.050781 59.820312 C 32.578125 57.363281 28.175781 57.238281 25.558594 59.546875 C 23.714844 61.152344 22.980469 63.617188 22.742188 65.953125 C 22.570312 67.636719 22.671875 69.441406 23.542969 70.941406 C 24.414062 72.054688 25.933594 72.289062 27.265625 72.355469 C 29.925781 72.472656 32.734375 71.835938 34.859375 70.164062 C 37.421875 67.980469 38.015625 63.914062 36.136719 61.128906 C 35.832031 60.652344 35.460938 60.214844 35.050781 59.820312 Z M 35.050781 59.820312 "/>
<path style=" stroke:none;fill-rule:nonzero;fill:rgb(0%,0%,0%);fill-opacity:0.313725;" d="M 26.269531 64.796875 C 26.269531 67.800781 23.820312 70.238281 20.796875 70.238281 C 17.777344 70.238281 15.324219 67.800781 15.324219 64.796875 C 15.324219 61.792969 17.777344 59.355469 20.796875 59.355469 C 23.820312 59.355469 26.269531 61.792969 26.269531 64.796875 Z M 26.269531 64.796875 "/>
<path style="fill-rule:nonzero;fill:rgb(62.745098%,35.294118%,17.254902%);fill-opacity:1;stroke-width:4;stroke-linecap:round;stroke-linejoin:round;stroke:rgb(0%,0%,0%);stroke-opacity:1;stroke-miterlimit:4;" d="M 192.648871 329.49096 C 178.705727 315.545602 153.881204 314.83614 139.123058 327.939012 C 128.726275 337.051162 124.585183 351.040861 123.241531 364.298927 C 122.27234 373.85449 122.845044 384.097344 127.757083 392.610885 C 132.669123 398.929529 141.237658 400.25977 148.748894 400.636672 C 163.749337 401.301792 179.58681 397.687971 191.569544 388.19892 C 206.01931 375.80551 209.367427 352.725832 198.7724 336.918137 C 197.054287 334.213314 194.961715 331.730198 192.648871 329.49096 Z M 192.648871 329.49096 " transform="matrix(0.177339,0,0,0.17619,0,0.00561267)"/>
<path style=" stroke:none;fill-rule:nonzero;fill:rgb(0%,0%,0%);fill-opacity:0.313725;" d="M 28.585938 56.160156 C 29.113281 56.285156 29.625 56.476562 30.101562 56.746094 C 30.5625 56.996094 31 57.292969 31.394531 57.640625 C 33.757812 59.648438 34.246094 63.398438 32.519531 65.964844 C 31.050781 67.972656 28.714844 69.226562 26.324219 69.777344 C 25.355469 69.996094 24.253906 70.144531 23.3125 69.789062 C 24.183594 70.386719 25.335938 70.542969 26.378906 70.59375 C 29.035156 70.710938 31.847656 70.074219 33.972656 68.402344 C 36.53125 66.21875 37.128906 62.152344 35.25 59.367188 C 34.945312 58.890625 34.574219 58.453125 34.164062 58.058594 C 32.714844 56.621094 30.609375 55.980469 28.585938 56.160156 Z M 28.585938 56.160156 "/>
<path style="fill-rule:evenodd;fill:rgb(31.372549%,17.647059%,8.627451%);fill-opacity:1;stroke-width:4;stroke-linecap:butt;stroke-linejoin:miter;stroke:rgb(0%,0%,0%);stroke-opacity:1;stroke-miterlimit:4;" d="M 193.001304 325.987992 C 195.75469 317.45228 209.631752 309.559518 213.72879 312.53039 C 217.847854 315.501261 218.156233 322.573708 217.42934 323.6379 C 216.702446 324.679922 209.301346 321.465174 204.609577 325.322872 C 199.939835 329.202741 197.604965 332.506172 197.604965 332.506172 Z M 193.001304 325.987992 " transform="matrix(0.177339,0,0,0.17619,0,0.00561267)"/>
<path style=" stroke:none;fill-rule:evenodd;fill:rgb(0%,0%,0%);fill-opacity:0.313725;" d="M 38.40625 55.722656 C 38.421875 55.886719 38.398438 56.023438 38.351562 56.074219 C 38.226562 56.226562 36.96875 56.078125 36.160156 56.699219 C 35.351562 57.324219 34.941406 57.796875 34.941406 57.796875 L 34.296875 57.261719 C 34.273438 57.320312 34.246094 57.378906 34.226562 57.441406 L 35.042969 58.589844 C 35.042969 58.589844 35.457031 58.007812 36.285156 57.324219 C 37.117188 56.644531 38.429688 57.210938 38.558594 57.027344 C 38.648438 56.898438 38.648438 56.273438 38.40625 55.722656 Z M 38.40625 55.722656 "/>
<path style="fill-rule:nonzero;fill:rgb(31.372549%,17.647059%,8.627451%);fill-opacity:1;stroke-width:4;stroke-linecap:round;stroke-linejoin:round;stroke:rgb(0%,0%,0%);stroke-opacity:1;stroke-miterlimit:4;" d="M 196.195231 326.032334 C 182.516413 312.486048 159.828517 308.983081 143.858881 319.137252 C 140.24644 321.132613 141.347794 326.121016 141.369821 326.032334 C 147.405242 321.287808 153.660933 326.520089 161.877035 332.417489 C 171.921385 339.62296 182.978981 350.68613 191.084948 361.438909 C 196.767935 368.95477 200.820919 376.337606 197.56091 381.503375 C 197.737127 381.569887 202.47295 382.900128 204.609577 378.488162 C 215.490956 357.980283 209.3454 338.270549 196.195231 326.032334 Z M 196.195231 326.032334 " transform="matrix(0.177339,0,0,0.17619,0,0.00561267)"/>
<path style=" stroke:none;fill-rule:nonzero;fill:rgb(0%,0%,0%);fill-opacity:0.313725;" d="M 34.605469 57.183594 C 35.371094 59.167969 35.273438 61.042969 34.296875 62.855469 C 34.074219 63.265625 33.734375 63.132812 33.445312 63.128906 C 33.597656 63.3125 33.746094 63.5 33.886719 63.6875 C 34.894531 65.011719 35.613281 66.3125 35.039062 67.222656 C 35.066406 67.234375 35.90625 67.46875 36.289062 66.691406 C 38.054688 63.382812 37.28125 59.777344 34.605469 57.183594 Z M 34.605469 57.183594 "/>
<path style="fill-rule:nonzero;fill:rgb(24.705882%,24.705882%,24.705882%);fill-opacity:1;stroke-width:6.363;stroke-linecap:round;stroke-linejoin:round;stroke:rgb(0%,0%,0%);stroke-opacity:1;stroke-miterlimit:4;" d="M 138.902787 346.030287 C 147.427269 360.81813 142.36104 379.685379 127.602894 388.221091 C 112.844748 396.734632 93.989565 391.657546 85.465083 376.891873 C 76.962629 362.126201 82.006831 343.236781 96.764977 334.72324 C 111.523123 326.209699 130.400333 331.264614 138.902787 346.030287 Z M 138.902787 346.030287 " transform="matrix(0.177339,0,0,0.17619,0,0.00561267)"/>
<path style=" stroke:none;fill-rule:nonzero;fill:rgb(0%,0%,0%);fill-opacity:0.313725;" d="M 46.800781 64.882812 C 46.800781 67.886719 44.351562 70.324219 41.328125 70.324219 C 38.304688 70.324219 35.855469 67.886719 35.855469 64.882812 C 35.855469 61.878906 38.304688 59.441406 41.328125 59.441406 C 44.351562 59.441406 46.800781 61.878906 46.800781 64.882812 Z M 46.800781 64.882812 "/>
<path style="fill-rule:nonzero;fill:rgb(24.705882%,24.705882%,24.705882%);fill-opacity:1;stroke-width:6.363;stroke-linecap:round;stroke-linejoin:round;stroke:rgb(0%,0%,0%);stroke-opacity:1;stroke-miterlimit:4;" d="M 249.853206 383.277029 C 237.826419 395.337879 218.288396 395.337879 206.239581 383.2992 C 194.190767 371.23835 194.190767 351.705981 206.217554 339.645131 C 218.266369 327.584281 237.782365 327.584281 249.831179 339.62296 C 261.879994 351.68381 261.902021 371.216179 249.853206 383.277029 Z M 249.853206 383.277029 " transform="matrix(0.177339,0,0,0.17619,0,0.00561267)"/>
<path style="fill-rule:nonzero;fill:rgb(49.803922%,49.803922%,49.803922%);fill-opacity:1;stroke-width:4;stroke-linecap:round;stroke-linejoin:round;stroke:rgb(0%,0%,0%);stroke-opacity:1;stroke-miterlimit:4;" d="M 244.214273 459.677192 C 203.37606 459.677192 170.2253 492.844529 170.2253 533.727263 C 170.2253 542.174292 171.65706 550.26659 174.256256 557.826792 L 314.106208 557.826792 C 316.727431 550.26659 318.137165 542.174292 318.137165 533.727263 C 318.137165 492.844529 285.030458 459.677192 244.214273 459.677192 Z M 244.214273 459.677192 " transform="matrix(0.177339,0,0,0.17619,0,0.00561267)"/>
<path style="fill-rule:nonzero;fill:rgb(49.803922%,49.803922%,49.803922%);fill-opacity:1;stroke-width:4;stroke-linecap:round;stroke-linejoin:round;stroke:rgb(0%,0%,0%);stroke-opacity:1;stroke-miterlimit:4;" d="M 96.236327 459.677192 C 55.420142 459.677192 22.291408 492.844529 22.291408 533.727263 C 22.291408 542.174292 23.723169 550.26659 26.322365 557.826792 L 166.194344 557.826792 C 168.79354 550.26659 170.2253 542.174292 170.2253 533.727263 C 170.2253 492.844529 137.07454 459.677192 96.236327 459.677192 Z M 96.236327 459.677192 " transform="matrix(0.177339,0,0,0.17619,0,0.00561267)"/>
<path style="fill-rule:nonzero;fill:rgb(100%,100%,100%);fill-opacity:1;stroke-width:1.374;stroke-linecap:round;stroke-linejoin:round;stroke:rgb(0%,0%,0%);stroke-opacity:1;stroke-miterlimit:4;" d="M 162.603929 195.269664 C 162.603929 210.456579 150.312817 222.761307 135.136156 222.761307 C 119.959496 222.761307 107.668383 210.456579 107.668383 195.269664 C 107.668383 180.082748 119.959496 167.75585 135.136156 167.75585 C 150.312817 167.75585 162.603929 180.082748 162.603929 195.269664 Z M 162.603929 195.269664 " transform="matrix(0.177339,0,0,0.17619,0,0.00561267)"/>
<path style="fill-rule:nonzero;fill:rgb(100%,100%,100%);fill-opacity:1;stroke-width:1.374;stroke-linecap:round;stroke-linejoin:round;stroke:rgb(0%,0%,0%);stroke-opacity:1;stroke-miterlimit:4;" d="M 223.486787 195.269664 C 223.530842 205.113445 218.310423 214.269936 209.785942 219.213998 C 201.26146 224.158059 190.754542 224.158059 182.23006 219.213998 C 173.705579 214.269936 168.463133 205.113445 168.529215 195.269664 C 168.463133 185.403711 173.705579 176.24722 182.23006 171.303159 C 190.754542 166.359097 201.26146 166.359097 209.785942 171.303159 C 218.310423 176.24722 223.530842 185.403711 223.486787 195.269664 Z M 223.486787 195.269664 " transform="matrix(0.177339,0,0,0.17619,0,0.00561267)"/>
<path style=" stroke:none;fill-rule:nonzero;fill:rgb(0%,0%,0%);fill-opacity:1;" d="M 27.335938 35.003906 C 27.335938 35.566406 27.039062 36.085938 26.550781 36.367188 C 26.0625 36.648438 25.460938 36.648438 24.972656 36.367188 C 24.484375 36.085938 24.183594 35.566406 24.1875 35.003906 C 24.183594 34.445312 24.484375 33.925781 24.972656 33.644531 C 25.460938 33.363281 26.0625 33.363281 26.550781 33.644531 C 27.039062 33.925781 27.335938 34.445312 27.335938 35.003906 Z M 27.335938 35.003906 "/>
<path style=" stroke:none;fill-rule:nonzero;fill:rgb(0%,0%,0%);fill-opacity:1;" d="M 34.535156 35.003906 C 34.539062 35.566406 34.238281 36.085938 33.75 36.367188 C 33.261719 36.648438 32.660156 36.648438 32.171875 36.367188 C 31.683594 36.085938 31.382812 35.566406 31.386719 35.003906 C 31.382812 34.445312 31.683594 33.925781 32.171875 33.644531 C 32.660156 33.363281 33.261719 33.363281 33.75 33.644531 C 34.238281 33.925781 34.539062 34.445312 34.535156 35.003906 Z M 34.535156 35.003906 "/>
<path style=" stroke:none;fill-rule:evenodd;fill:rgb(0%,0%,0%);fill-opacity:1;" d="M 26.84375 43.710938 C 27.640625 42.867188 31.015625 42.683594 31.71875 43.816406 C 32.425781 44.945312 30.660156 47.292969 29.28125 47.1875 C 27.90625 47.082031 26.101562 44.5 26.84375 43.710938 Z M 26.84375 43.710938 "/>
<path style="fill-rule:evenodd;fill:rgb(24.705882%,24.705882%,24.705882%);fill-opacity:1;stroke-width:4;stroke-linecap:butt;stroke-linejoin:round;stroke:rgb(0%,0%,0%);stroke-opacity:1;stroke-miterlimit:4;" d="M 101.324583 150.418378 C 98.372954 107.695478 54.406896 97.962549 52.292296 103.039635 C 50.177696 108.116721 60.332181 165.228392 101.324583 150.418378 Z M 101.324583 150.418378 " transform="matrix(0.177339,0,0,0.17619,0,0.00561267)"/>
<path style="fill-rule:evenodd;fill:rgb(24.705882%,24.705882%,24.705882%);fill-opacity:1;stroke-width:4;stroke-linecap:butt;stroke-linejoin:round;stroke:rgb(0%,0%,0%);stroke-opacity:1;stroke-miterlimit:4;" d="M 226.592606 150.418378 C 229.566262 107.695478 273.510294 97.962549 275.624894 103.039635 C 277.739494 108.116721 267.607035 165.228392 226.592606 150.418378 Z M 226.592606 150.418378 " transform="matrix(0.177339,0,0,0.17619,0,0.00561267)"/>
<path style="fill-rule:nonzero;fill:rgb(24.705882%,24.705882%,24.705882%);fill-opacity:1;stroke-width:2.977;stroke-linecap:round;stroke-linejoin:round;stroke:rgb(0%,0%,0%);stroke-opacity:1;stroke-miterlimit:4;" d="M 89.694283 536.476427 C 89.694283 549.468446 80.817369 559.999519 69.891935 559.999519 C 58.944475 559.999519 50.089588 549.468446 50.089588 536.476427 C 50.089588 523.484409 58.944475 512.953336 69.891935 512.953336 C 80.817369 512.953336 89.694283 523.484409 89.694283 536.476427 Z M 89.694283 536.476427 " transform="matrix(0.177339,0,0,0.17619,0,0.00561267)"/>
<path style="fill-rule:nonzero;fill:rgb(24.705882%,24.705882%,24.705882%);fill-opacity:1;stroke-width:2.977;stroke-linecap:round;stroke-linejoin:round;stroke:rgb(0%,0%,0%);stroke-opacity:1;stroke-miterlimit:4;" d="M 139.387383 536.476427 C 139.387383 549.468446 130.510469 559.999519 119.563008 559.999519 C 108.637575 559.999519 99.76066 549.468446 99.76066 536.476427 C 99.76066 523.484409 108.637575 512.953336 119.563008 512.953336 C 130.510469 512.953336 139.387383 523.484409 139.387383 536.476427 Z M 139.387383 536.476427 " transform="matrix(0.177339,0,0,0.17619,0,0.00561267)"/>
<path style="fill-rule:nonzero;fill:rgb(24.705882%,24.705882%,24.705882%);fill-opacity:1;stroke-width:2.977;stroke-linecap:round;stroke-linejoin:round;stroke:rgb(0%,0%,0%);stroke-opacity:1;stroke-miterlimit:4;" d="M 115.884485 536.476427 C 115.884485 549.468446 107.007571 559.999519 96.082138 559.999519 C 85.134677 559.999519 76.257762 549.468446 76.257762 536.476427 C 76.257762 523.484409 85.134677 512.953336 96.082138 512.953336 C 107.007571 512.953336 115.884485 523.484409 115.884485 536.476427 Z M 115.884485 536.476427 " transform="matrix(0.177339,0,0,0.17619,0,0.00561267)"/>
<path style="fill-rule:nonzero;fill:rgb(24.705882%,24.705882%,24.705882%);fill-opacity:1;stroke-width:2.977;stroke-linecap:round;stroke-linejoin:round;stroke:rgb(0%,0%,0%);stroke-opacity:1;stroke-miterlimit:4;" d="M 242.099673 536.476427 C 242.099673 549.468446 233.244785 559.999519 222.297325 559.999519 C 211.371892 559.999519 202.494977 549.468446 202.494977 536.476427 C 202.494977 523.484409 211.371892 512.953336 222.297325 512.953336 C 233.244785 512.953336 242.099673 523.484409 242.099673 536.476427 Z M 242.099673 536.476427 " transform="matrix(0.177339,0,0,0.17619,0,0.00561267)"/>
<path style="fill-rule:nonzero;fill:rgb(24.705882%,24.705882%,24.705882%);fill-opacity:1;stroke-width:2.977;stroke-linecap:round;stroke-linejoin:round;stroke:rgb(0%,0%,0%);stroke-opacity:1;stroke-miterlimit:4;" d="M 291.792773 536.476427 C 291.792773 549.468446 282.915858 559.999519 271.990425 559.999519 C 261.042965 559.999519 252.16605 549.468446 252.16605 536.476427 C 252.16605 523.484409 261.042965 512.953336 271.990425 512.953336 C 282.915858 512.953336 291.792773 523.484409 291.792773 536.476427 Z M 291.792773 536.476427 " transform="matrix(0.177339,0,0,0.17619,0,0.00561267)"/>
<path style="fill-rule:nonzero;fill:rgb(24.705882%,24.705882%,24.705882%);fill-opacity:1;stroke-width:2.977;stroke-linecap:round;stroke-linejoin:round;stroke:rgb(0%,0%,0%);stroke-opacity:1;stroke-miterlimit:4;" d="M 268.289875 536.476427 C 268.289875 549.468446 259.41296 559.999519 248.487527 559.999519 C 237.540067 559.999519 228.685179 549.468446 228.685179 536.476427 C 228.685179 523.484409 237.540067 512.953336 248.487527 512.953336 C 259.41296 512.953336 268.289875 523.484409 268.289875 536.476427 Z M 268.289875 536.476427 " transform="matrix(0.177339,0,0,0.17619,0,0.00561267)"/>
<path style=" stroke:none;fill-rule:nonzero;fill:rgb(0%,0%,0%);fill-opacity:0.313725;" d="M 43.105469 29.859375 C 43.378906 30.976562 43.523438 32.144531 43.523438 33.34375 C 43.523438 41.53125 36.835938 51.015625 28.601562 51.015625 C 22.601562 51.015625 17.429688 45.976562 15.066406 40.070312 C 16.898438 46.886719 22.605469 53.28125 29.359375 53.28125 C 37.59375 53.28125 44.28125 43.789062 44.28125 35.601562 C 44.28125 33.566406 43.863281 31.625 43.113281 29.859375 Z M 43.105469 29.859375 "/>
<path style="fill-rule:nonzero;fill:rgb(74.901961%,74.901961%,74.901961%);fill-opacity:1;stroke-width:5.67;stroke-linecap:round;stroke-linejoin:round;stroke:rgb(0%,0%,0%);stroke-opacity:1;stroke-miterlimit:4;" d="M 121.897879 368.866087 C 126.34735 372.191689 127.602894 379.020259 124.673292 384.119515 C 121.721662 389.196601 115.752323 390.593354 111.280825 387.267752 C 106.831354 383.919979 105.597837 377.091409 108.52744 372.014324 C 111.457042 366.937238 117.448408 365.518315 121.897879 368.866087 Z M 121.897879 368.866087 " transform="matrix(0.177339,0,0,0.17619,0,0.00561267)"/>
<path style="fill-rule:nonzero;fill:rgb(74.901961%,74.901961%,74.901961%);fill-opacity:1;stroke-width:5.67;stroke-linecap:round;stroke-linejoin:round;stroke:rgb(0%,0%,0%);stroke-opacity:1;stroke-miterlimit:4;" d="M 135.224265 345.786409 C 139.673735 349.112011 140.907252 355.940581 137.97765 361.039837 C 135.048048 366.116923 129.056681 367.513676 124.60721 364.188074 C 120.15774 360.840301 118.902196 354.011732 121.853825 348.934646 C 124.783427 343.85756 130.752767 342.438637 135.224265 345.786409 Z M 135.224265 345.786409 " transform="matrix(0.177339,0,0,0.17619,0,0.00561267)"/>
<path style="fill-rule:nonzero;fill:rgb(74.901961%,74.901961%,74.901961%);fill-opacity:1;stroke-width:5.67;stroke-linecap:round;stroke-linejoin:round;stroke:rgb(0%,0%,0%);stroke-opacity:1;stroke-miterlimit:4;" d="M 134.2771 360.596424 C 138.726571 363.922026 139.960087 370.750595 137.030485 375.849851 C 134.100883 380.926937 128.109517 382.32369 123.660046 378.998088 C 119.188548 375.650315 117.955031 368.821746 120.884633 363.74466 C 123.814235 358.667574 129.805602 357.248651 134.2771 360.596424 Z M 134.2771 360.596424 " transform="matrix(0.177339,0,0,0.17619,0,0.00561267)"/>
</g>
</svg>
